<svg fill="#EA0029" xmlns="http://www.w3.org/2000/svg" width="38.311" height="66.593" viewBox="0 0 38.311 66.593">
  <g id="Group_45" data-name="Group 45" transform="translate(0.5 0.5)">
    <path id="Path_95" data-name="Path 95" d="M147.915,149.58A3.681,3.681,0,0,1,150.1,153.4c-.066,2.752-.016,5.506-.018,8.26,0,2.352-1.282,3.622-3.65,3.634-1.878.01-3.755,0-5.633.042-1.46.032-1.713.279-1.752,1.742-.04,1.509-.008,3.021-.008,4.6.253.012.478.032.7.032,2.135,0,4.269-.006,6.4,0a3.245,3.245,0,0,1,3.56,3.582q0,4.707,0,9.413a3.253,3.253,0,0,1-3.546,3.546c-2.346.006-4.691,0-7.153,0v.83c0,7.469.014,14.94-.022,22.41a4.973,4.973,0,0,1-.524,2.188,2.8,2.8,0,0,1-2.6,1.473c-3.542.02-7.085.032-10.627,0a3.107,3.107,0,0,1-3.09-2.983c-.024-.3-.026-.6-.026-.9q0-11.075,0-22.153v-.866c-1.914,0-3.746,0-5.579,0a6.649,6.649,0,0,1-1.145-.084,3.035,3.035,0,0,1-2.569-2.931q-.054-5.248,0-10.5a3.022,3.022,0,0,1,2.983-3c1.812-.056,3.628-.022,5.442-.028h.832c.014-.267.034-.494.038-.721.02-1.92-.03-3.845.07-5.761a16.626,16.626,0,0,1,4.1-10.577,15.481,15.481,0,0,1,9.369-4.94,4.474,4.474,0,0,0,.48-.127Q142.021,149.579,147.915,149.58ZM116.667,184.4h.765c2.135,0,4.269-.012,6.4.01a2.045,2.045,0,0,1,2.1,1.916,6.8,6.8,0,0,1,.034.83q0,11.655,0,23.31v.8h9.176v-.882q0-11.717,0-23.437c0-1.76.787-2.543,2.539-2.545q3.713,0,7.427,0h.691v-8.841h-.753c-2.5,0-4.994.008-7.493,0a2.1,2.1,0,0,1-2.386-2.117c-.038-2.389-.034-4.783.082-7.168a4.477,4.477,0,0,1,2.985-4.3,7.775,7.775,0,0,1,2.3-.468c1.661-.082,3.327-.05,4.992-.068.225,0,.448-.026.651-.038V153.23c-3.206.072-6.366.036-9.51.247a10.918,10.918,0,0,0-6.551,2.764,12.361,12.361,0,0,0-4.094,9.136c-.122,2.535-.048,5.08-.062,7.619a2.243,2.243,0,0,1-2.549,2.557c-2.027,0-4.056,0-6.083,0-.223,0-.448.018-.671.028C116.667,178.549,116.667,181.428,116.667,184.4Z" transform="translate(-112.792 -149.58)" fill="#EA0029" stroke="#EA0029" stroke-width="1"/>
  </g>
</svg>
