<svg  fill="#EA0029" xmlns="http://www.w3.org/2000/svg" width="66.14" height="66.122" viewBox="0 0 66.14 66.122">
  <g id="Group_44" data-name="Group 44" transform="translate(0.5 0.486)">
    <path id="Path_92" data-name="Path 92" d="M1036.006,217.006h-35.114c-.456-.082-.914-.157-1.368-.243a15.934,15.934,0,0,1-12.469-10.122A32.441,32.441,0,0,1,985.88,202V166.888a35.332,35.332,0,0,1,.789-3.646,16.25,16.25,0,0,1,15.6-11.354q16.186-.045,32.374,0a15.721,15.721,0,0,1,9.52,3.049,16.1,16.1,0,0,1,6.858,13.636q.015,15.771-.008,31.539a18.194,18.194,0,0,1-.245,3.226,15.835,15.835,0,0,1-10.161,12.515A33.307,33.307,0,0,1,1036.006,217.006Zm9.546-32.567h.024c0-5.3-.008-10.6.006-15.9a10.891,10.891,0,0,0-11.217-11.223q-15.9-.015-31.8,0a15.533,15.533,0,0,0-2.151.151,10.677,10.677,0,0,0-9.048,10.151c-.074,11.085-.03,22.173-.036,33.258a9.6,9.6,0,0,0,.96,4.3,10.668,10.668,0,0,0,10.215,6.378q15.933.024,31.866,0a15.873,15.873,0,0,0,2.151-.153,10.74,10.74,0,0,0,9.014-10.054C1045.612,195.717,1045.552,190.078,1045.552,184.439Z" transform="translate(-985.88 -151.87)" fill="#EA0029" stroke="#EA0029" stroke-width="1"/>
    <path id="Path_93" data-name="Path 93" d="M1100.227,249.976a16.283,16.283,0,1,1-16.244-16.286A16.326,16.326,0,0,1,1100.227,249.976Zm-16.274-10.848a10.84,10.84,0,1,0,10.834,10.832A10.824,10.824,0,0,0,1083.953,239.128Z" transform="translate(-1051.376 -217.397)" fill="#EA0029" stroke="#EA0029" stroke-width="1"/>
    <path id="Path_94" data-name="Path 94" d="M1221.738,214.556a4.058,4.058,0,0,1,.027-8.116,4.058,4.058,0,1,1-.027,8.116Z" transform="translate(-1171.539 -195.573)" fill="#EA0029" stroke="#EA0029" stroke-width="1"/>
  </g>
</svg>
