<svg xmlns="http://www.w3.org/2000/svg" width="16.025" height="24.324" viewBox="0 0 16.025 24.324">
  <g id="Group_251" data-name="Group 251" transform="translate(-295.2 -97)">
    <path id="Path_498" data-name="Path 498" d="M304.573,100.744a5.269,5.269,0,0,0-2.783-.8c-2.026,0-4.032,1.35-4.032,1.78,0,.634.675,1.35,1.494,2.046a4.1,4.1,0,0,0,2.026.962c.532,0,2.722-1.146,6.467-2.537l.2.164A37.01,37.01,0,0,1,306.906,106c-6.3,2.148-9.742,4.644-9.742,6.71,0,2.516,3.4,4.726,9.291,4.726a24.3,24.3,0,0,0,4.462-.389l.307.45a27.792,27.792,0,0,1-4.789,3.539,7.62,7.62,0,0,1-2.395.286c-4.953,0-8.841-2.271-8.841-7.324a10.144,10.144,0,0,1,2.845-6.649c-1.494-1.084-2.558-2.353-2.558-4.051a6.991,6.991,0,0,1,1.044-3.457A5.234,5.234,0,0,1,300.808,97c1.7,0,3.152,1.084,4.359,3.089Z" fill="#fff"/>
  </g>
</svg>
