<svg xmlns="http://www.w3.org/2000/svg" width="22.846" height="25.043" viewBox="0 0 22.846 25.043">
  <path id="Path_473" data-name="Path 473" d="M89.464,150l1.275,3.251q4.2,10.683,8.465,21.4a2.564,2.564,0,0,0,.142.348c-.106,0-.213.039-.319.039H95.272c-.213,0-.319-.077-.39-.31-.531-1.471-1.1-2.942-1.629-4.412a.37.37,0,0,0-.425-.31H83.017c-.248,0-.319.077-.425.31-.531,1.471-1.1,2.942-1.629,4.412-.071.232-.177.31-.39.31H76.5a1,1,0,0,1,.142-.348c3.188-8.09,6.411-16.218,9.6-24.307.035-.116.071-.194.106-.31C87.374,150,88.436,150,89.464,150Zm-1.523,4.606H87.87c-1.275,3.755-2.55,7.509-3.861,11.263h7.757C90.491,162.076,89.216,158.36,87.941,154.606Z" transform="translate(-76.5 -150)" fill="#fff"/>
</svg>
