<svg id="Group_235" data-name="Group 235" xmlns="http://www.w3.org/2000/svg" width="24.595" height="24.586" viewBox="0 0 24.595 24.586">
  <path id="Path_467" data-name="Path 467" d="M91.666,376.386a12.015,12.015,0,0,0-6.513-10.307,11.4,11.4,0,0,0-6.292-1.423,12.047,12.047,0,0,0-10.307,6.481,11.342,11.342,0,0,0-1.423,4.837v.063a.116.116,0,0,1-.032.095v1.549c.032.126.032.285.063.411.032.316.063.632.126.98A12.291,12.291,0,0,0,78.45,389.191h.032c.032,0,.063,0,.063.032h1.581c.126-.032.285-.032.411-.063h0c.316-.032.632-.063.98-.126a12.205,12.205,0,0,0,8.694-6.323A10.934,10.934,0,0,0,91.666,376.386Zm-2.466.537a9.769,9.769,0,0,1-9.769,9.769H79.4a9.792,9.792,0,0,1-6.892-16.725,9.711,9.711,0,0,1,6.892-2.845h.032A9.823,9.823,0,0,1,89.2,376.924Z" transform="translate(-67.1 -364.637)" fill="#fff"/>
  <path id="Path_468" data-name="Path 468" d="M103.554,376.19a1.311,1.311,0,0,0-1.075.348,1.438,1.438,0,0,0-.379,1.075v14.449a1.384,1.384,0,0,0,.379,1.012,1.265,1.265,0,0,0,.917.348h.095c.411-.032.759-.032,1.138-.095a8.314,8.314,0,0,0,5.406-3.1,8.429,8.429,0,0,0,1.834-6.671,8.2,8.2,0,0,0-1.9-4.268A8.535,8.535,0,0,0,103.554,376.19Z" transform="translate(-91.034 -372.534)" fill="#fff"/>
</svg>
