<svg id="Group_223" data-name="Group 223" xmlns="http://www.w3.org/2000/svg" width="25.1" height="25.081" viewBox="0 0 25.1 25.081">
  <path id="Path_420" data-name="Path 420" d="M174.33,77.658a11.984,11.984,0,0,0-3.06-7.031,12.407,12.407,0,0,0-8.886-4.264,11.767,11.767,0,0,0-6.933,1.758,12.448,12.448,0,0,0-5.957,8.593c-.065.325-.1.651-.13.976-.033.13-.033.293-.065.423v1.562c.033.13.033.293.065.423.033.325.065.651.13.976a12.35,12.35,0,0,0,5.957,8.593,11.763,11.763,0,0,0,5.468,1.725h.033a.12.12,0,0,1,.1.033h1.628c.13,0,.26-.033.391-.033.26-.033.553-.065.846-.1A12.509,12.509,0,0,0,174.33,77.658ZM161.9,68.935a9.947,9.947,0,1,1-7.128,2.929,10.016,10.016,0,0,1,7.128-2.929Z" transform="translate(-149.3 -66.345)" fill="#fff"/>
  <path id="Path_421" data-name="Path 421" d="M168.506,110.588l-.358-.488L166,111.5l.391.521a7.964,7.964,0,0,0,6.705,3.613h.163a7.941,7.941,0,0,0,6.608-3.646l.358-.521-2.116-1.367-.358.488a5.508,5.508,0,0,1-4.655,2.506A5.363,5.363,0,0,1,168.506,110.588Z" transform="translate(-160.564 -95.858)" fill="#fff"/>
</svg>
