<svg fill="#EA0029" xmlns="http://www.w3.org/2000/svg" width="75.673" height="66.04" viewBox="0 0 75.673 66.04">
  <path id="Path_91" data-name="Path 91" d="M529.838,164.682a2.6,2.6,0,0,0-2.738-1.151c-.713.08-1.43.133-2.189.189l-.549.042c.048-.106.092-.2.137-.291l.671-1.36c.765-1.549,1.557-3.152,2.344-4.723a2.538,2.538,0,0,0-3.529-3.471c-2.551,1.241-5.516,2.686-8.431,4.14a.939.939,0,0,1-.948.01,15.638,15.638,0,0,0-11.617-.779,16.4,16.4,0,0,0-8.329,6.018,19.483,19.483,0,0,0-3.642,9.478c-.082.8-.114,1.621-.143,2.411-.01.267-.02.534-.032.8l-.018,0c-.223-.032-.432-.062-.639-.088a30.922,30.922,0,0,1-15.54-6.6,34.019,34.019,0,0,1-8.323-9.942,2.6,2.6,0,0,0-4.885-.141,14.84,14.84,0,0,0-1.886,12.013,22.172,22.172,0,0,0,.769,2.37c.07.187.139.38.207.574-.394-.114-.781-.225-1.167-.343-1.971-.6-2.923-.179-3.774,1.651l-.028.06v1.119l.01.038c.07.253.135.508.2.761.143.548.293,1.113.462,1.665a18.383,18.383,0,0,0,7.461,10.056c.54.364,1.1.7,1.683,1.049.092.056.185.109.279.167a.221.221,0,0,1-.038.01c-.464.133-.9.261-1.34.36a2.579,2.579,0,0,0-2.119,1.882,2.686,2.686,0,0,0,.916,2.676,26.093,26.093,0,0,0,9.329,5.88c1.1.42,2.189.777,3.347,1.157l1.008.331-.191.129c-.49.331-.952.643-1.436.928a21.229,21.229,0,0,1-10.38,2.67c-1.01.036-2.041.028-3.039.022-.637,0-1.3-.01-1.945,0a2.465,2.465,0,0,0-2.5,1.617,2.512,2.512,0,0,0,.765,2.869l.04.038c.237.215.482.438.747.639a21.9,21.9,0,0,0,5.886,3.073,62.992,62.992,0,0,0,21.509,3.863,60.484,60.484,0,0,0,7.927-.524c9.588-1.271,17.007-5.074,22.684-11.627a42.6,42.6,0,0,0,7.017-10.828,39.592,39.592,0,0,0,2.694-22.244,1.566,1.566,0,0,1,.2-.94c.826-1.394,1.7-2.79,2.551-4.142l.408-.649A2.563,2.563,0,0,0,529.838,164.682Zm-8.375,8.632a40.134,40.134,0,0,1,.416,10.3,32.727,32.727,0,0,1-3.294,11.342,36.068,36.068,0,0,1-9.271,11.727,28.759,28.759,0,0,1-13.383,5.954,56.063,56.063,0,0,1-26.5-1.637,24.346,24.346,0,0,0,14.423-7.931,2.542,2.542,0,0,0,.689-2.676,2.622,2.622,0,0,0-2.387-1.764,32.168,32.168,0,0,1-8.6-2.35c-1-.436-1.953-.942-2.967-1.475q-.457-.242-.928-.486l.747-.412c.87-.48,1.679-.928,2.489-1.368a2.561,2.561,0,0,0-.576-4.879,18.164,18.164,0,0,1-7.109-3.6,12.91,12.91,0,0,1-3.4-4.359l.345,0c.637,0,1.241.008,1.858-.012a13.072,13.072,0,0,0,1.687-.175,2.648,2.648,0,0,0,2.139-1.637,2.516,2.516,0,0,0-.524-2.539,12.884,12.884,0,0,1-2.734-4.733,10.884,10.884,0,0,1-.315-5.106l.181.237c.382.5.745.98,1.117,1.448a36.075,36.075,0,0,0,20.775,13.1,48.525,48.525,0,0,0,6.121.824c.357.032.713.066,1.069.1a2.462,2.462,0,0,0,2.061-.707,2.568,2.568,0,0,0,.635-2.182,19.232,19.232,0,0,1-.149-5.669c.844-5.5,4.644-9.857,9.452-10.85a10.359,10.359,0,0,1,7.6,1.157,3.3,3.3,0,0,0,3.616.105c.814-.454,1.661-.854,2.555-1.276l.565-.267c-.255.52-.514,1.039-.771,1.557q-.532,1.069-1.057,2.141a2.838,2.838,0,0,0-.028,2.832,2.784,2.784,0,0,0,2.567,1.075c.639-.032,1.276-.086,1.951-.143l.414-.036c-.032.054-.064.106-.094.157-.263.44-.512.858-.781,1.248A3.9,3.9,0,0,0,521.462,173.314Z" transform="translate(-455.06 -153.001)" fill="#EA0029" stroke="#EA0029" stroke-width="1"/>
</svg>
