<svg xmlns="http://www.w3.org/2000/svg" width="81" height="81" viewBox="0 0 81 81">
  <g id="Group_316" data-name="Group 316" transform="translate(-1303 -1364)">
    <circle id="Ellipse_29" data-name="Ellipse 29" cx="40.5" cy="40.5" r="40.5" transform="translate(1303 1364)" fill="#c10d2c"/>
    <g id="Group_313" data-name="Group 313" transform="translate(6018 583)">
      <g id="Group_308" data-name="Group 308" transform="translate(-4699 794.5)">
        <path id="Path_591" data-name="Path 591" d="M119.82,123.261a2.836,2.836,0,0,0-2-.871h-6.448a2.783,2.783,0,0,0,.261-1.22,2.983,2.983,0,0,0-2.091-2.788,13.613,13.613,0,0,0-12.721-12.9V104.7h4.618a.781.781,0,0,0,.784-.784v-3.834a.781.781,0,0,0-.784-.784h-5.4a.781.781,0,0,0-.784.784v5.4a14.631,14.631,0,0,0-6.274,1.917.822.822,0,0,0,.871,1.394,11.844,11.844,0,0,1,6.186-1.743,11.988,11.988,0,0,1,11.937,11.153h-9.41l-1.307-.7a2.44,2.44,0,0,0-2.44,0l-1.307.7H84.1a11.935,11.935,0,0,1,3.572-7.755.791.791,0,0,0,.261-.61.941.941,0,0,0-.261-.61.791.791,0,0,0-.61-.261.941.941,0,0,0-.61.261,13.653,13.653,0,0,0-4.1,8.975A2.9,2.9,0,0,0,80.262,121a2.783,2.783,0,0,0,.261,1.22H74.075a2.9,2.9,0,0,0-2.875,2.875,2.523,2.523,0,0,0,.871,2,2.746,2.746,0,0,0,1.481.784V144.7a.781.781,0,0,0,.784.784h42.956a.781.781,0,0,0,.784-.784V127.879a2.965,2.965,0,0,0,2.353-2.788A1.925,1.925,0,0,0,119.82,123.261Zm-5.141,17.514v-9.149h2v9.149Zm-5.664,2.091v1.22H83.05v-1.22Zm-31.629-11.24v9.149h-2v-9.149Zm4.531-6.709a2.268,2.268,0,0,0-1.133,1.568H74.337a1.191,1.191,0,0,1-1.22-1.22,1.191,1.191,0,0,1,1.22-1.22h9.236Zm-2.962,16.729v-10.8a.781.781,0,0,0-.784-.784H75.382v-1.83h5.576a2.76,2.76,0,0,0,1.394,1.22v11.937h-.087a.781.781,0,0,0-.784.784v2h-6.1v-1.656h2.788A.927.927,0,0,0,78.955,141.646Zm34.069-10.8v10.8a.781.781,0,0,0,.784.784H116.6v1.656h-6.1v-2a.781.781,0,0,0-.784-.784h-.087V137.29a.784.784,0,0,0-1.568,0V141.3h-1.481v-7.755a2.962,2.962,0,0,0-5.925,0V141.3H99.082v-7.755a2.962,2.962,0,0,0-5.925,0V141.3H91.589v-7.755a2.962,2.962,0,0,0-5.925,0V141.3H84.183V129.535h24.136V138.6a.784.784,0,1,0,1.568,0v-9.149a2.379,2.379,0,0,0,1.394-1.22h5.576v1.83h-2.788A.825.825,0,0,0,113.023,130.842Zm-25.965,2.614a1.394,1.394,0,1,1,2.788,0v7.755H87.058Zm7.58,0a1.394,1.394,0,1,1,2.788,0v7.755H94.639Zm7.668,0a1.394,1.394,0,1,1,2.788,0v7.755h-2.788Zm7.406-6.186a.857.857,0,0,1-.784.61H83.137a.857.857,0,0,1-.784-.61.752.752,0,0,1,.349-.871l12.9-7.319a.653.653,0,0,1,.436-.087.786.786,0,0,1,.436.087l12.9,7.319A.714.714,0,0,1,109.712,127.269Zm-1.133-3.224h9.236a1.191,1.191,0,0,1,1.22,1.22,1.191,1.191,0,0,1-1.22,1.22h-6.448a2.653,2.653,0,0,0-1.133-1.568Zm.174-1.656H105.7l-4.357-2.44h7.406a1.22,1.22,0,0,1,0,2.44ZM82,121.17a1.191,1.191,0,0,1,1.22-1.22H90.63l-4.357,2.44h-3.05A1.246,1.246,0,0,1,82,121.17Zm14.812-17.949v-2.178h3.747v2.178Z" transform="translate(-71.2 -99.3)" fill="#fff"/>
      </g>
    </g>
  </g>
</svg>
