<svg xmlns="http://www.w3.org/2000/svg" width="81" height="81" viewBox="0 0 81 81">
  <g id="Group_317" data-name="Group 317" transform="translate(-1496 -1364)">
    <circle id="Ellipse_30" data-name="Ellipse 30" cx="40.5" cy="40.5" r="40.5" transform="translate(1496 1364)" fill="#c10d2c"/>
    <g id="Group_309" data-name="Group 309" transform="translate(1512.855 1389.383)">
      <g id="Group_305" data-name="Group 305">
        <g id="Group_302" data-name="Group 302">
          <g id="Group_301" data-name="Group 301">
            <path id="Path_592" data-name="Path 592" d="M185.61,131.772c-.174-1.22-1.481-2.265-3.834-2.962a24.252,24.252,0,0,0-7.058-.958V117.657a1.616,1.616,0,0,0-.174-.61c-.349-1.133-1.568-2-3.834-2.7a30.152,30.152,0,0,0-7.929-1.046,25.9,25.9,0,0,0-7.842,1.046c-1.743.523-3.834,1.568-3.834,3.224v.349l.087,4.357a11.466,11.466,0,0,0-13.418,9.149,8.839,8.839,0,0,0-.174,2.178,11.53,11.53,0,0,0,18.733,8.975,32.583,32.583,0,0,0,6.1.7c.523,2.614,6.273,3.834,11.589,3.834a25.9,25.9,0,0,0,7.842-1.046c1.743-.523,3.834-1.568,3.834-3.224V132.295C185.7,132.033,185.7,131.859,185.61,131.772Zm-30.148-15.6a25.275,25.275,0,0,1,7.319-.958,26.8,26.8,0,0,1,7.406.958c2.091.61,2.527,1.307,2.527,1.394s-.436.784-2.527,1.394a25.913,25.913,0,0,1-7.406.958,27.889,27.889,0,0,1-7.058-.871c-2.091-.61-2.614-1.22-2.7-1.481h0C153.022,117.4,153.458,116.785,155.462,116.175Zm17.339,3.834v2.44c-.087.174-.174.261-.087.436,0,.087-.436.784-2.527,1.394a25.913,25.913,0,0,1-7.406.958,29.468,29.468,0,0,1-6.535-.7h-.087a9.935,9.935,0,0,0-2.962-1.656l-.087-2.7a10.217,10.217,0,0,0,2.091.784,28.129,28.129,0,0,0,7.58.958,26.9,26.9,0,0,0,7.929-1.046A21.281,21.281,0,0,0,172.8,120.009Zm-17.339,20.563a9.56,9.56,0,0,1-12.9-14.115,9.815,9.815,0,0,1,6.448-2.527,10.955,10.955,0,0,1,2.875.436,9.665,9.665,0,0,1,6.535,7.232,14.246,14.246,0,0,1,.174,1.917A9.509,9.509,0,0,1,155.462,140.572Zm2.44.174a11.378,11.378,0,0,0,1.83-3.137,23.652,23.652,0,0,0,2.527.087v.174l.087,3.224A19.124,19.124,0,0,1,157.9,140.747Zm2.527-8.365c.523,0,1.133.087,1.743.087v.087l.087,3.311a15.422,15.422,0,0,1-2-.087,9.5,9.5,0,0,0,.261-2.265A4.968,4.968,0,0,0,160.429,132.382Zm2.44-1.83h0a25.372,25.372,0,0,1-2.7-.087,10.5,10.5,0,0,0-1.743-3.572,35.468,35.468,0,0,0,4.357.261,26.905,26.905,0,0,0,7.929-1.046,21.274,21.274,0,0,0,2.091-.871v2.527C168.619,127.938,164.437,128.81,162.868,130.552Zm1.22,1.481c.087-.261.784-.871,2.788-1.481a26.261,26.261,0,0,1,6.883-.784h.087a30.85,30.85,0,0,1,7.406.871c2,.61,2.527,1.22,2.527,1.394h0c0,.174-.523.784-2.614,1.394a25.93,25.93,0,0,1-7.319.871,27.44,27.44,0,0,1-6.971-.784,6.116,6.116,0,0,1-2.788-1.394C164.175,132.121,164.088,132.033,164.088,132.033Zm19.692,10.63c0,.174-.436.784-2.44,1.394a25.275,25.275,0,0,1-7.319.958,28.3,28.3,0,0,1-7.232-.871c-2-.61-2.44-1.307-2.44-1.394h0l-.087-2.788c2.265,1.133,6.1,1.656,9.585,1.656a26.9,26.9,0,0,0,7.929-1.046,8.218,8.218,0,0,0,2-.871v2.962Zm-.087-5.315c0,.174-.436.784-2.527,1.394a25.71,25.71,0,0,1-7.319.958c-5.228,0-8.8-1.22-9.585-2.091v-2.962a16.216,16.216,0,0,0,2.178.871,27.662,27.662,0,0,0,7.493.871,30.179,30.179,0,0,0,7.842-.958,8.835,8.835,0,0,0,2.091-.871V137h0A.661.661,0,0,0,183.693,137.348Z" transform="translate(-137.6 -113.3)" fill="#fff"/>
          </g>
        </g>
        <g id="Group_304" data-name="Group 304" transform="translate(7.493 12.286)">
          <g id="Group_303" data-name="Group 303">
            <path id="Path_593" data-name="Path 593" d="M150.208,134.371a1.846,1.846,0,1,1,2.091-1.83.958.958,0,1,0,1.917,0,3.884,3.884,0,0,0-3.05-3.66v-.523a.958.958,0,1,0-1.917,0v.523a3.74,3.74,0,0,0,.958,7.406,1.846,1.846,0,1,1-2.091,1.83.958.958,0,1,0-1.917,0,3.884,3.884,0,0,0,3.05,3.66v.436a.958.958,0,1,0,1.917,0v-.436a3.884,3.884,0,0,0,3.05-3.66A3.951,3.951,0,0,0,150.208,134.371Z" transform="translate(-146.2 -127.4)" fill="#fff"/>
          </g>
        </g>
      </g>
    </g>
  </g>
</svg>
