<svg xmlns="http://www.w3.org/2000/svg" width="81" height="81" viewBox="0 0 81 81">
  <g id="Group_318" data-name="Group 318" transform="translate(-1689 -1364)">
    <circle id="Ellipse_31" data-name="Ellipse 31" cx="40.5" cy="40.5" r="40.5" transform="translate(1689 1364)" fill="#c10d2c"/>
    <g id="Group_310" data-name="Group 310" transform="translate(1706.174 1382.383)">
      <g id="Group_300" data-name="Group 300" transform="translate(0)">
        <path id="Path_585" data-name="Path 585" d="M242,149.786c-9.585,0-12.286-2.44-12.547-2.7a1.31,1.31,0,0,1-.349-.958l1.22-8.365a10.432,10.432,0,0,1,3.572-6.448,10.574,10.574,0,0,1,6.883-2.614H243.3a10.574,10.574,0,0,1,6.883,2.614,10.865,10.865,0,0,1,3.572,6.448l1.22,8.365a1.037,1.037,0,0,1-.349.958C254.281,147.433,251.667,149.786,242,149.786Zm0-2.265h1.394a24.374,24.374,0,0,0,8.626-1.568l.436-.174-1.133-7.755a8.189,8.189,0,0,0-8.19-7.058H240.6a8.254,8.254,0,0,0-8.19,7.058l-1.133,7.755.436.174a24.374,24.374,0,0,0,8.626,1.568h0A5.2,5.2,0,0,0,242,147.521Z" transform="translate(-216.693 -109.967)" fill="#fff"/>
        <path id="Path_586" data-name="Path 586" d="M224.479,142.828h-.261c-6.971,0-8.975-2.527-9.149-2.875a1.013,1.013,0,0,1-.174-.871l.523-2.875a8.966,8.966,0,0,1,8.8-7.406,9.6,9.6,0,0,1,1.568.174,8.857,8.857,0,0,1,6.012,4.008,1.433,1.433,0,0,1,.174.871,1.355,1.355,0,0,1-.523.7,1.259,1.259,0,0,1-.61.174,1,1,0,0,1-.958-.523,6.7,6.7,0,0,0-5.664-3.137,6.613,6.613,0,0,0-6.535,5.576l-.436,2.353.436.174a12.943,12.943,0,0,0,5.751,1.307h1.133a27.233,27.233,0,0,0,3.747-.349h.261a1.2,1.2,0,0,1,1.133.871,1.119,1.119,0,0,1-.784,1.394h-.087A24.614,24.614,0,0,1,224.479,142.828Z" transform="translate(-214.861 -109.979)" fill="#fff"/>
        <path id="Path_587" data-name="Path 587" d="M224.738,124.276a5.838,5.838,0,1,1,5.838-5.838,5.838,5.838,0,0,1-5.838,5.838Zm0-9.41a3.572,3.572,0,1,0,3.572,3.572,3.533,3.533,0,0,0-3.572-3.572Z" transform="translate(-215.381 -107.895)" fill="#fff"/>
        <path id="Path_588" data-name="Path 588" d="M260.818,142.828a23.659,23.659,0,0,1-4.269-.436,1.049,1.049,0,0,1-.871-1.307,1.128,1.128,0,0,1,1.133-.871h.349a17.634,17.634,0,0,0,3.747.349h1.133a11.939,11.939,0,0,0,5.751-1.394l.436-.174-.436-2.353a6.661,6.661,0,0,0-6.622-5.576h0a6.463,6.463,0,0,0-5.576,3.137,1.093,1.093,0,0,1-.958.523,1.615,1.615,0,0,1-.61-.174,1.135,1.135,0,0,1-.349-1.568,8.88,8.88,0,0,1,7.581-4.182,8.93,8.93,0,0,1,8.8,7.406l.523,2.875a1.073,1.073,0,0,1-.174.871c-.174.261-2.178,2.875-9.149,2.875Z" transform="translate(-219.832 -109.979)" fill="#fff"/>
        <path id="Path_589" data-name="Path 589" d="M261.338,124.276a5.838,5.838,0,1,1,5.838-5.838,5.838,5.838,0,0,1-5.838,5.838Zm0-9.41a3.572,3.572,0,1,0,3.572,3.572,3.588,3.588,0,0,0-3.572-3.572Z" transform="translate(-220.09 -107.895)" fill="#fff"/>
        <path id="Path_590" data-name="Path 590" d="M242.69,123.581a8.19,8.19,0,1,1,8.19-8.19A8.181,8.181,0,0,1,242.69,123.581Zm0-14.115a5.925,5.925,0,1,0,5.925,5.925,5.931,5.931,0,0,0-5.925-5.925Z" transform="translate(-217.388 -107.2)" fill="#fff"/>
      </g>
    </g>
  </g>
</svg>
