<svg xmlns="http://www.w3.org/2000/svg" width="81" height="81" viewBox="0 0 81 81">
  <g id="Group_319" data-name="Group 319" transform="translate(-1303 -1532)">
    <circle id="Ellipse_32" data-name="Ellipse 32" cx="40.5" cy="40.5" r="40.5" transform="translate(1303 1532)" fill="#c10d2c"/>
    <g id="Group_311" data-name="Group 311" transform="translate(1323.001 1552.331)">
      <g id="Group_299" data-name="Group 299" transform="translate(0 0)">
        <g id="Page-1_21_">
          <g id="ride_export_21_">
            <path id="intersection_x2C_-road_x2C_-crossing_x2C_-highway_x2C_-infrastructure" d="M744.2,184.278l4.008,19.6a1.248,1.248,0,0,1-2.44.523l-4.1-20.04H722.5l-4.1,20.04a1.248,1.248,0,1,1-2.44-.523l4.008-19.6H718.58l-2.788,11.937a1.228,1.228,0,0,1-2.178-1.133l2.7-10.892h-4.1a1.22,1.22,0,1,1,0-2.44h39.645a1.22,1.22,0,1,1,0,2.44h-3.921l2.788,10.369a1.228,1.228,0,0,1-2.178,1.133l-2.962-11.5H744.2Zm-4.792-11.153-1.743-8.452a1.248,1.248,0,0,1,2.44-.523l1.83,8.887h7.493a1.22,1.22,0,1,1,0,2.44H714.747a1.22,1.22,0,1,1,0-2.44h7.493l1.83-8.887a1.248,1.248,0,1,1,2.44.523l-1.743,8.452Zm-8.539-8.713a1.22,1.22,0,0,1,2.44,0v3.747a1.22,1.22,0,0,1-2.44,0Zm0,23.526a1.22,1.22,0,0,1,2.44,0v3.747a1.22,1.22,0,0,1-2.44,0Zm0,11.153a1.22,1.22,0,0,1,2.44,0v3.747a1.22,1.22,0,0,1-2.44,0Z" transform="translate(-711 -163.14)" fill="#fff"/>
          </g>
        </g>
      </g>
    </g>
  </g>
</svg>
