<svg xmlns="http://www.w3.org/2000/svg" width="81" height="81" viewBox="0 0 81 81">
  <g id="Group_320" data-name="Group 320" transform="translate(-1496 -1532)">
    <circle id="Ellipse_33" data-name="Ellipse 33" cx="40.5" cy="40.5" r="40.5" transform="translate(1496 1532)" fill="#c10d2c"/>
    <g id="Group_312" data-name="Group 312" transform="translate(1513.531 1551.376)">
      <g id="Group_307" data-name="Group 307" transform="translate(0 0)">
        <g id="Group_306" data-name="Group 306">
          <path id="Path_594" data-name="Path 594" d="M403.694,114.094h-6.928l-2.417-5.639a3.685,3.685,0,0,0-3.383-2.256H377.433a3.685,3.685,0,0,0-3.383,2.256l-2.417,5.639h-6.928A3.7,3.7,0,0,0,361,117.8v23.925a3.7,3.7,0,0,0,3.706,3.705h38.988a3.7,3.7,0,0,0,3.706-3.705V117.8A3.747,3.747,0,0,0,403.694,114.094Zm-36.008,9.425v19.575h-2.981a1.358,1.358,0,0,1-1.369-1.369V121.908h2.739A1.521,1.521,0,0,1,367.686,123.519Zm-1.692-3.947h-2.739v-1.853a1.358,1.358,0,0,1,1.369-1.369h7.653a1.04,1.04,0,0,0,1.047-.725l2.658-6.283a1.435,1.435,0,0,1,1.289-.806h13.533a1.435,1.435,0,0,1,1.289.806l2.739,6.283a1.147,1.147,0,0,0,1.047.725h7.653a1.358,1.358,0,0,1,1.369,1.369v24.086a1.328,1.328,0,0,1-1.369,1.208H369.861V123.439A3.817,3.817,0,0,0,365.994,119.572Z" transform="translate(-361 -106.2)" fill="#fff"/>
          <path id="Path_595" data-name="Path 595" d="M386.708,144.116A12.808,12.808,0,1,0,373.9,131.308,12.789,12.789,0,0,0,386.708,144.116Zm-10.633-12.808a10.553,10.553,0,1,1,10.553,10.553A10.589,10.589,0,0,1,376.075,131.308Z" transform="translate(-363.508 -108.592)" fill="#fff"/>
          <path id="Path_596" data-name="Path 596" d="M386.67,124.242c-.161,0-.161-.242-.322-.242a8.418,8.418,0,0,0,1.289,16.755,8.611,8.611,0,0,0,7.975-6.2h0c0-.081-.081-.161-.081-.081l-2.336.725v.081a6.521,6.521,0,0,1-5.719,3.464,6.367,6.367,0,0,1-1.047-12.647h.081Z" transform="translate(-364.517 -109.661)" fill="#fff"/>
          <path id="Path_597" data-name="Path 597" d="M409.728,123.356h.967a1.128,1.128,0,0,0,0-2.256h-.967a1.128,1.128,0,1,0,0,2.256Z" transform="translate(-370.256 -109.097)" fill="#fff"/>
          <path id="Path_598" data-name="Path 598" d="M382.128,113.056h11.761a1.128,1.128,0,0,0,0-2.256H382.128A1.1,1.1,0,0,0,381,111.928,1.152,1.152,0,0,0,382.128,113.056Z" transform="translate(-364.889 -107.095)" fill="#fff"/>
        </g>
        <path id="Path_599" data-name="Path 599" d="M397.264,138.45l-.564-.806s.4-.967,1.128-1.047a2.035,2.035,0,0,1,1.289.322Z" transform="translate(-367.942 -112.109)" fill="#fff"/>
        <ellipse id="Ellipse_28" data-name="Ellipse 28" cx="0.967" cy="0.967" rx="0.967" ry="0.967" transform="translate(20.944 14.419)" fill="#fff"/>
      </g>
    </g>
  </g>
</svg>
