<svg xmlns="http://www.w3.org/2000/svg" width="58" height="58" viewBox="0 0 58 58">
  <g id="Group_322" data-name="Group 322" transform="translate(-1346 -4598)">
    <circle id="Ellipse_26" data-name="Ellipse 26" cx="29" cy="29" r="29" transform="translate(1346 4598)" fill="#e61035"/>
    <g id="law" transform="translate(1354 4606.352)">
      <path id="Path_583" data-name="Path 583" d="M24.161,49.027V48.018A2.018,2.018,0,0,0,22.143,46H9.531a2.018,2.018,0,0,0-2.018,2.018v1.009a1.513,1.513,0,1,0,0,3.027H24.161a1.513,1.513,0,0,0,0-3.027Z" transform="translate(0 -20.015)" fill="#fff"/>
      <path id="Path_584" data-name="Path 584" d="M34.959,26.772,24.613,16.426l2.2-2.2a1.453,1.453,0,0,0,.676.161A1.513,1.513,0,0,0,28.563,11.8L22.832,6.079A1.513,1.513,0,0,0,20.4,7.825l-2.2,2.2L17.122,8.934A1.483,1.483,0,0,0,16.062,8.5a1.513,1.513,0,0,0-1.08,2.578l1.069,1.069-2.179,2.2a1.564,1.564,0,0,0-1.72.293,1.513,1.513,0,0,0,0,2.144l5.685,5.705a1.513,1.513,0,0,0,2.432-1.72l2.2-2.2L32.821,28.911a1.512,1.512,0,1,0,2.139-2.139Z" transform="translate(-2.828 0)" fill="#fff"/>
    </g>
  </g>
</svg>
