<svg xmlns="http://www.w3.org/2000/svg" width="58" height="58" viewBox="0 0 58 58">
  <g id="Group_321" data-name="Group 321" transform="translate(-747 -4598)">
    <circle id="Ellipse_27" data-name="Ellipse 27" cx="29" cy="29" r="29" transform="translate(747 4598)" fill="#e61035"/>
    <g id="insurance" transform="translate(763 4614)">
      <path id="Path_581" data-name="Path 581" d="M15.539,0H3A3,3,0,0,0,0,3V19.9a3,3,0,0,0,3,3h8.887a9.49,9.49,0,0,1-1.527-5.125V15.114a1.054,1.054,0,0,1-.545.153H4.362a1.09,1.09,0,0,1,0-2.181H9.814a1.064,1.064,0,0,1,.556.153A3.2,3.2,0,0,1,11.537,10.9H4.362a1.09,1.09,0,1,1,0-2.181h9.814a1.1,1.1,0,0,1,1.014.687L18.3,8.353a.866.866,0,0,1,.24-.065V3a3,3,0,0,0-3-3ZM8.724,6.543H4.362a1.09,1.09,0,0,1,0-2.181H8.724a1.09,1.09,0,0,1,0,2.181Z" fill="#fff"/>
      <path id="Path_582" data-name="Path 582" d="M24.391,11.505,18.667,9.558a1.094,1.094,0,0,0-.7,0l-5.725,1.948a1.092,1.092,0,0,0-.739,1.033v4.381c0,5.525,6.127,8.195,6.388,8.306a1.106,1.106,0,0,0,.429.086,1.078,1.078,0,0,0,.427-.087c.261-.111,6.388-2.78,6.388-8.3V12.538a1.089,1.089,0,0,0-.739-1.033Zm-2.2,4.1-3.271,4.362a1.086,1.086,0,0,1-.795.433c-.026,0-.052,0-.077,0a1.085,1.085,0,0,1-.771-.32L15.091,17.9a1.09,1.09,0,1,1,1.542-1.542l1.292,1.292L20.442,14.3a1.09,1.09,0,0,1,1.745,1.309Z" transform="translate(1.04 0.859)" fill="#fff"/>
    </g>
  </g>
</svg>
