<svg xmlns="http://www.w3.org/2000/svg" width="309" height="264.66" viewBox="0 0 309 264.66">
  <g id="Group_314" data-name="Group 314" transform="translate(-322 -6103.133)">
    <g id="Group_38" data-name="Group 38" transform="translate(322 6103.133)">
      <g id="Group_35" data-name="Group 35" transform="translate(0.237)">
        <g id="Group_1" data-name="Group 1" transform="translate(205.467)">
          <path id="Path_4" data-name="Path 4" d="M194.477,85.906c-5.052-1.469-10.155-3.377-15.362-4.176-5.026-.773-10.284.438-12.424,5.567a11.786,11.786,0,0,0-.773,7.449c.747,2.526,1.959,5,2.913,7.449-2.191-.1-3.84-1.7-5.284-3.17a36.474,36.474,0,0,1-4.923-6.315c-2.835-4.459-6.057-8.635-9.021-13.016A78.561,78.561,0,0,0,140.376,68.3c-1.856-1.856-3.712-3.686-5.567-5.516-.387-.387-1.959-1.469-2.01-1.907-.1-.8,1.418-1.7,1.907-2.062,7.784-5.98,16.908-9.975,25.955-13.738,4.511-1.882,9.15-3.377,13.635-5.258,1.418-.593,12.063-3.686,10.877.464-.335,1.134-1.753,2.5-2.449,3.48-.67.928-1.366,1.856-2.088,2.758-1.418,1.753-2.655,3.634-4.021,5.438a27.684,27.684,0,0,0-3.557,6.238c-.67,1.6-2.036,4.768-1.34,6.5a18.662,18.662,0,0,0,2.088-3.789c.7-1.263,1.418-2.5,2.217-3.686,3.119-4.691,6.959-8.918,9.64-13.893,1.186-2.165,2.784-5.207,2.4-7.732-.438-2.99-2.913-3.944-5.67-3.737-5.645.464-11.7,2.784-16.831,5.1-5.645,2.552-11.392,4.9-16.96,7.629a94.584,94.584,0,0,0-14.511,8.428c-1.856,1.366-3.944,3.145-4.15,5.593-.206,2.423-.438,5.516,1.134,7.5,3.48,4.433,7.191,8.686,10.568,13.2,3.222,4.3,6.856,9.1,8.325,14.357.438,1.6.49,2.088-1.031,2.835-1.289.619-2.577,1.237-3.892,1.778-.928.387-.825.438-1.418-.18-.438-.464-.773-1.031-1.16-1.495a12.717,12.717,0,0,0-2.681-2.577c-2.217-1.6-4.717-2.6-7.165-.876a9.966,9.966,0,0,0-3.712,6.366c-.541,2.526-1.186,5.542,1.521,7.062,2.474,1.392,5.542.567,8.093-.052,1.108-.258,3.2-1.7,3.454.077.18,1.134-.851,1.933-1.572,2.655a66.975,66.975,0,0,1-6.521,5.567c-4.279,3.325-8.686,6.727-14.125,7.913-2.526.567-5.155.515-7.269-1.134-2.242-1.727-2.732-4-2.629-6.7a15.868,15.868,0,0,1,.851-4.511c.155-.49,1.108-2.887.438-3.2-1.34-.593-2.732,6.16-2.835,6.959-.722,4.82-.206,11.547,4.639,14.073,4.64,2.423,10.671-.258,14.614-2.913,2.371-1.6,4.511-3.505,6.753-5.284a49.427,49.427,0,0,0,5.825-5.31,16.646,16.646,0,0,0,3.866-7.4c.232-.9.335-2.294.979-3.041a7.507,7.507,0,0,1,2.449-1.211c2.526-1.186,3.84-2.345,4.511-5.129a25.253,25.253,0,0,0,.644-4.15c.026-.516-.335-3.428.026-3.557a158.12,158.12,0,0,0,10.052,14.975,10.4,10.4,0,0,0,5.413,3.145,10.663,10.663,0,0,1,2.114.335c.516.309.361,1.031.438,1.675.155,1.186.747,1.34,1.108.18.206-.7.232-1.572.8-1.907a5.721,5.721,0,0,1,1.778-.309,18.315,18.315,0,0,0,3.918-1.057c2.6-1.031,5.181-2.165,7.707-3.4,4.743-2.32,9.382-4.975,14.254-6.985a33.221,33.221,0,0,1,4.1-1.366c1.057-.284,2.6-.18,3.531-.644.825-.387.954-1.6,1.211-2.4.387-1.134.825-2.268,1.108-3.428A94.281,94.281,0,0,1,194.477,85.906Zm-60.623,14.872c-.954.077-2.423.232-1.778-1.083,1.237-2.526,4.743-1.031,6.212.387A41.786,41.786,0,0,1,133.855,100.778Zm47.091-.335a35.194,35.194,0,0,1-4.82,1.6,19.73,19.73,0,0,1-2.423.387c-.851.077-1.186.232-1.5-.232-.026-.258-.052-.464-.052-.567-.077-.567-1.083-4.253-1.083-4.253-.464-1.443-1.108-2.861-1.675-4.253-.464-1.16-1.675-2.681-.619-3.686a8.506,8.506,0,0,1,3.815-1.675c3.17-.8,6.366.155,9.434.979s6.109,1.907,9.2,2.578a59.532,59.532,0,0,1,6.057,1.546C191.874,95.52,186.513,98.278,180.945,100.443Z" transform="translate(-108.048 -31.83)" fill="#ea0029"/>
        </g>
        <g id="Group_2" data-name="Group 2" transform="translate(0 2.446)">
          <path id="Path_5" data-name="Path 5" d="M109.776,102.426a23.636,23.636,0,0,0,3.944-2.784,27.068,27.068,0,0,1,3.634-3.454c1.572-1.057,1.572-.412,2.01,1.031a6,6,0,0,0,6.6,4.459c3.376-.361,5.928-2.294,8.635-4.1,1.031,2.577,1.959,5.464,4.253,7.243,2.01,1.547,4.846,1.16,7.114.515,2.242-.619,4.975-1.753,6.547-3.531a15.137,15.137,0,0,0,2.861-6.469c1.211-5.207.1-10.645-.67-15.8-.825-5.542-1.753-11.083-2.629-16.6-.438-2.809-.9-5.619-1.315-8.428-.387-2.577-1.057-5.1-1.392-7.655.722.438,1.959,2.861,2.99,2.268,1.031-.567-.335-3.041-.619-3.789-1.108-3.016-2.294-6.031-3.531-9-.258-.619-1.005-3.686-2.088-3.557-.593.077-1.392,3.557-1.572,4.1a3.254,3.254,0,0,0-.361,1.83,15.12,15.12,0,0,1,.67,2.242c.18,1.675.387,3.325.644,4.975,1.907,12.063,4.047,24.1,5.928,36.188.464,2.99.954,5.98,1.315,9a20.181,20.181,0,0,1,.309,4.3c-.129,1.031-.979,1.6-1.856,2.062a19.631,19.631,0,0,1-8.119,2.32,5.136,5.136,0,0,1-3.583-1.16c-.515-.412-2.242-2.036-2.139-2.758.026-.284,1.134-.876,1.366-1.083a6.687,6.687,0,0,0,1.083-1.315,19.175,19.175,0,0,0,1.675-3.428,13.153,13.153,0,0,0,.387-7.964c-.593-1.882-1.933-5.593-3.918-6.418-2.4-1.005-4.665,1.907-5.413,3.789a16.677,16.677,0,0,0-.979,8.171,33.144,33.144,0,0,0,1.005,4.124c.232.8.593,1.211.052,1.83a4.775,4.775,0,0,1-1.521.8c-2.165,1.005-5.026,1.959-7.4.979-2.526-1.057-3.067-3.557-3.248-6.006-3.016.464-4.82,3.583-7.114,5.387a17.832,17.832,0,0,1-3.686,2.191c-.644.284-1.572.8-2.036.387-.412-.361-.722-1.392-1.083-1.882-1.546-2.165-3.737-4.743-6.65-4.717-2.938,0-4.975,2.938-5.98,5.361-.954,2.371-1.727,5.567.284,7.655,1.882,1.985,5.155,1.546,7.552,1.134.8-.129,1.6-.284,2.4-.438s1.315-.515,1.727.155c.49.8-.026,1.392-.567,1.933a38.17,38.17,0,0,1-6.5,5.387c-6.366,4.3-23.919,16.96-28.017,3.712-.8-2.6.052-5.464.773-8.016a10.534,10.534,0,0,1,1.624-3.686,13,13,0,0,1,2.655-1.882,77.192,77.192,0,0,0,7.191-5.748,40.276,40.276,0,0,0,2.861-3.067A5.5,5.5,0,0,0,87.4,90.106a28.181,28.181,0,0,0,.077-8.583c-.155-1.392-.722-2.809-.8-4.176-.052-.928,0-.722.876-1.057a8.177,8.177,0,0,0,1.263-.619c2.114-1.315,3.067-3.634,4.691-5.413.464-.515,2.062-1.933,2.784-1.083.464.567-.077,2.165.232,2.938,1.727-1.289,2.526-5.593,1.778-7.526-1.211-3.093-3.892-1.366-5.361.515-1.675,2.114-3.119,4.717-5.851,5.516-1.263.361-2.938.644-4.047-.232a31.711,31.711,0,0,1-2.578-2.964A24.714,24.714,0,0,0,79.439,72.4c-.232,1.572,1.083,2.629,2.036,3.789a19.144,19.144,0,0,1,4.047,8.944c.18,1.031.619,2.423.077,3.377a11.4,11.4,0,0,1-2.809,2.629,86.655,86.655,0,0,1-7.6,5.645c-5,3.2-10.052,5.98-15.8,7.526-5.516,1.469-12.527,3.531-18.094,1.134a17.567,17.567,0,0,1-6.341-4.227,17.686,17.686,0,0,1-3.531-6.882,26.591,26.591,0,0,1-.876-8.789,21.549,21.549,0,0,1,.773-4.639c.232-.876.077-3.222-.954-1.572-1.418,2.268-1.495,5.8-1.83,8.377a32.754,32.754,0,0,0,.309,9.253,18.946,18.946,0,0,0,8.428,13.3c5.232,3.273,11.779,2.6,17.527,1.418a60.66,60.66,0,0,0,15.517-5.98,10.026,10.026,0,0,1-.7,2.784c-.258,1.005-.515,2.01-.7,3.016a23.567,23.567,0,0,0-.335,6.6c.361,3.531,2.062,7.449,5.49,9,2.938,1.34,6.882.49,9.717-.67a58.074,58.074,0,0,0,9.511-5.078,55.923,55.923,0,0,0,8.428-6.547c2.474-2.345,4.846-4.768,5.8-8.119C108.049,104.926,108.307,103.354,109.776,102.426Zm26.883-20.671c1.211.619,3.119,4.227,3.17,5.593.052,1.547-3.093,3.3-4.3,4.072-.438-1.237-.8-2.449-1.16-3.712a17.585,17.585,0,0,1-.954-3.4C133.334,82.863,135.19,81.007,136.659,81.755Zm-40.467,16.7c1.418-2.655,4.279-1.083,5.98.361A10.509,10.509,0,0,1,96.192,98.457Z" transform="translate(-28.332 -32.778)" fill="#ea0029"/>
        </g>
        <g id="Group_3" data-name="Group 3" transform="translate(93.523 56.145)">
          <path id="Path_6" data-name="Path 6" d="M100.711,87.294a175.123,175.123,0,0,0,15.62-9.872A24.566,24.566,0,0,0,122,72.139a31.754,31.754,0,0,0,2.474-4.124c.541-1.005,1.031-2.346,2.01-3.016.309.7.232,1.057.8,1.572a7.234,7.234,0,0,0,1.933,1.108,33.969,33.969,0,0,0,4.743,1.546c.361.1.773.155,1.108.284.825.361.387.052.7.7a13.033,13.033,0,0,1,.567,2.681,20.169,20.169,0,0,0,1.6,4.846,13.51,13.51,0,0,0,4.717,5.928c3.016,1.882,4.768.155,6.031-2.732,2.165-4.949,3.583-12.114,9.047-14.666,1.34-.619,2.32-.851,3.2.387.825,1.16,1.495,2.423,2.32,3.583,1.521,2.114,3.634,4.562,6.341,4.975a9.049,9.049,0,0,0,7.784-2.062,11.545,11.545,0,0,0,2.191-3.119c.464-.9.722-2.423,1.572-3.016.335.9.438,1.392,1.289,1.933a12.785,12.785,0,0,0,2.835,1.289,28.111,28.111,0,0,0,7.14,1.6c1.495.1,1.727.052,2.4-1.366a8.8,8.8,0,0,0,.928-5.877,19.909,19.909,0,0,0-2.191-5.7c-.7-1.34-1.753-3.067-3.4-3.222-2.01-.18-4.124,1.186-5.413,2.577-.541.593-.9,1.366-1.443,1.933s-1.263.876-1.778,1.469c-1.237,1.418-1.572,3.4-2.861,4.82A9.094,9.094,0,0,1,168.37,68.4a15.5,15.5,0,0,1-3.918-3.969c-.7-.954-1.366-1.985-2.01-2.99-.438-.67-.8-1.546-1.6-1.83-1.366-.516-3.17.593-4.2,1.34-3.248,2.346-5.1,6.134-6.521,9.794-1.005,2.577-2.6,8.351-6.392,7.732-3.815-.593-4.975-5.464-6.057-8.454.619-.1,1.34,0,1.83-.412a5.654,5.654,0,0,0,.9-1.856,8.3,8.3,0,0,0,.773-4.975c-.438-2.758-1.882-6.676-4.124-8.48-2.242-1.778-5.516.232-7.114,2.062-.464.541-.8,1.211-1.289,1.727-.438.49-1.057.747-1.521,1.211a20.241,20.241,0,0,0-2.552,4.1,21.174,21.174,0,0,1-5.413,6.392c-2.449,1.856-5,3.66-7.578,5.31a158.731,158.731,0,0,1-16.264,9c-5.748,2.732-11.341,5.722-17.192,8.248-2.887,1.263-5.825,2.423-8.738,3.634-1.186.49-3.454,1.005-4.382,1.907-1.108,1.083.361,1.031,1.34.851,6.031-1.031,12.011-2.629,17.914-4.253a53.7,53.7,0,0,0,8.428-2.758C95.453,90.465,98.056,88.841,100.711,87.294Zm90.367-21.986a8.326,8.326,0,0,1-2.835-.7,12.107,12.107,0,0,1-2.938-1.186C186.9,60.746,190.82,62.6,191.078,65.308ZM133.96,60.231a3.91,3.91,0,0,1,2.474,3.041,33.461,33.461,0,0,1-5.851-1.83A2.755,2.755,0,0,1,133.96,60.231Z" transform="translate(-64.616 -53.612)" fill="#ea0029"/>
        </g>
        <g id="Group_4" data-name="Group 4" transform="translate(165.46 2.347)">
          <path id="Path_7" data-name="Path 7" d="M93.671,44.029c.18,2.165.515,4.33.825,6.469.722,5,1.443,9.975,2.294,14.949,1.675,10.052,3.634,20.259,4.253,30.44.155,2.423.232,4.846.206,7.269,0,.67-.387,2.191-.026,2.758.438.722.876.387,1.186-.18,2.191-3.918,1.753-9.279,1.7-13.583-.129-10.052-2.242-20.13-3.969-30,4.794-3.093,9.872-5.928,14.022-9.923.9-.851,1.624-2.346,2.577-3.067.747-.567,1.237-.155,2.139.1,1.315.361,2.371.851,3.248-.516a7.156,7.156,0,0,0,1.005-3.222c.077-2.294-2.577-4.356-3.969-5.9-1.16-1.289-3.3-3.557-4.536-1.108-.593,1.211-.387,2.5-.851,3.686a10.1,10.1,0,0,0-1.108,3.248c-.18,2.242,1.392,2.139,3.016,3.041a101.063,101.063,0,0,1-7.861,6.573c-1.443,1.083-2.887,2.114-4.356,3.17a23.859,23.859,0,0,1-3.66,2.552c-.8-5.052-2.191-10.233-2.345-15.362.773.516,1.572,2.681,2.577,2.706,1.16,0,.593-1.521.309-2.242-.851-2.268-1.985-4.382-2.784-6.676-.438-1.263-.928-2.474-1.495-3.712-.284-.619-.49-2.242-1.134-2.629-.876-.516-.954.644-1.186,1.315a28.745,28.745,0,0,0-1.16,3.763c-.232,1.16.232,1.753.593,2.835A11.526,11.526,0,0,1,93.671,44.029Zm25.491-.773a6.727,6.727,0,0,1,2.371,2.99c-1.108.412-2.114-.258-3.093-.722C118.672,44.777,118.93,44,119.162,43.256Zm-4-.438c.9-.722,1.6-1.031,2.242.1a2.71,2.71,0,0,1,.309,2.5C116.275,45.344,113.028,44.545,115.167,42.818Z" transform="translate(-92.526 -32.74)" fill="#ea0029"/>
        </g>
        <g id="Group_5" data-name="Group 5" transform="translate(131.447 2.755)">
          <path id="Path_8" data-name="Path 8" d="M80.284,40.455a7.385,7.385,0,0,1,.284,1.985c.129,1.443.284,2.835.541,4.253,1.289,6.8,2.036,13.764,2.99,20.62.954,6.779,2.346,13.583,2.835,20.414.232,3.273.619,6.521.593,9.82a39.316,39.316,0,0,1-.258,5.232c-.155,1.134-.928,3.016-.155,4.072,1.572-1.624,2.474-4.407,2.99-6.6a29.809,29.809,0,0,0,.619-6.933,103.668,103.668,0,0,0-1.469-15.7c-1.546-10.516-3.428-21.007-4.743-31.574.67-.232,1.6,3.505,2.809,2.887,1.186-.619-.18-3.454-.438-4.227-1.237-3.583-2.809-7.037-4.33-10.516-.284-.619-.438-1.624-1.315-1.186-.464.232-.515.722-.644,1.186-.387,1.211-1.443,3.3-1.237,4.588C79.511,39.475,80.052,39.81,80.284,40.455Z" transform="translate(-79.33 -32.898)" fill="#ea0029"/>
        </g>
        <g id="Group_6" data-name="Group 6" transform="translate(68.309 10.363)">
          <path id="Path_9" data-name="Path 9" d="M58.922,48.969c1.418-.335,2.809-.619,4.253-.876a13.54,13.54,0,0,0,6.6-2.835,18.117,18.117,0,0,0,4.562-6.289c.284-.67.876-2.268.206-2.861-.593-.49-2.938-.129-3.66-.129-2.861-.026-5.748,0-8.609-.1-2.706-.077-3.119,1.753-4.15,3.944-.206.438-1.546,2.706-.593,2.6.258-.026.67-.541,1.005-.67a5.747,5.747,0,0,1,1.882-.077c2.861-.026,5.7,0,8.557,0,.412.619-6.753,3.531-7.5,3.892-1.366.644-2.784,1.211-4.176,1.83-.541.232-3.248,1.211-2.242,2.139C55.752,50.18,58.123,49.149,58.922,48.969Z" transform="translate(-54.834 -35.85)" fill="#ea0029"/>
        </g>
        <g id="Group_7" data-name="Group 7" transform="translate(264.317 21.56)">
          <path id="Path_10" data-name="Path 10" d="M157.918,48.019c-1.263,2.191-3.918,4.124-5.954,5.516a60.559,60.559,0,0,1-7.243,4.072c-2.371,1.16-4.562,2.6-6.882,3.84-1.366.722-2.706,1.469-4.072,2.165-.9.49-2.449.928-2.887,1.959,4.279-.67,8.325-3.145,12.14-5.129,3.737-1.959,7.887-3.325,11.057-6.238a27.359,27.359,0,0,0,4.2-4.433c.464-.7.619-1.366,1.521-.928a2.922,2.922,0,0,1,1.186,1.7c.258,1.546-1.289,3.789-1.907,5.155a35.164,35.164,0,0,0-2.139,5.31c-.464,1.675-1.083,4.3-.387,6.006a2.067,2.067,0,0,0,3.325,1.005c.825-.722,2.758-3.557,2.165-4.768-.464-.954-.9-.052-1.263.49-.387.593-.825,1.289-1.6,1.237-2.165-.129-1.547-3.273-1.083-4.485.722-1.83,1.7-3.531,2.449-5.335s1.753-4.047,1.778-6.031c.026-1.856-1.933-2.165-2.242-3.608-.155-.7.206-1.546.129-2.294a4.306,4.306,0,0,0-.954-2.346c-1.057-1.237-2.578-.619-3.608.438-.876.9-1.753,2.913-1.392,4.2C154.619,47.039,156.655,47.555,157.918,48.019Zm-1.469-5.026c1.547-.928,2.346,1.237,2.4,2.5C157.841,45.338,154.412,44.2,156.449,42.993Z" transform="translate(-130.88 -40.194)" fill="#ea0029"/>
        </g>
        <g id="Group_8" data-name="Group 8" transform="translate(201.323 0.03)">
          <path id="Path_11" data-name="Path 11" d="M154.124,37.148a51.9,51.9,0,0,0,5.516-2.681c.851-.515,2.114-3.17.309-2.526a58.566,58.566,0,0,0-5.645,2.913c-1.83.876-3.66,1.753-5.439,2.706-7.732,4.021-15.491,7.913-23.2,12.011-3.634,1.933-7.165,4.021-10.645,6.186-2.01,1.263-4.047,2.526-6.006,3.892a8.438,8.438,0,0,0-2.268,1.7,6.13,6.13,0,0,0-.309,2.577c8.093-5.284,16.058-10.516,24.667-14.949C138.762,45.035,146.262,40.7,154.124,37.148Z" transform="translate(-106.44 -31.841)" fill="#ea0029"/>
        </g>
        <g id="Group_9" data-name="Group 9" transform="translate(98.861 7.553)">
          <path id="Path_12" data-name="Path 12" d="M67.236,41.307c1.031,1.031,4.923,2.784,4.511,4.356-.335,1.237-1.6,2.268-1.856,3.531-.206,1.031.387,1.186,1.211,1.778,1.134.8,2.217,1.65,3.325,2.5.851.644,1.6,1.675,2.5.747a10.92,10.92,0,0,0,1.7-3.145c.619-1.418.722-1.778-.516-2.706-1.083-.825-2.191-1.6-3.3-2.423-.644-.49-1.057-.67-1.057-1.443.026-.979,1.16-2.577,1.521-3.505.206-.567.747-1.521.438-2.139-.361-.7-1.83-1.366-2.449-1.778-1.186-.773-2.4-1.521-3.608-2.32A24.154,24.154,0,0,0,67.7,38.24,8.7,8.7,0,0,0,66.72,40.2C66.617,40.946,66.746,40.791,67.236,41.307Z" transform="translate(-66.687 -34.76)" fill="#ea0029"/>
        </g>
        <g id="Group_10" data-name="Group 10" transform="translate(246.502 19.069)">
          <path id="Path_13" data-name="Path 13" d="M143.923,49.389c2.964-1.907.979-5.928-2.088-6.083-1.624-.077-3.248.747-4.794,1.16-.954.232-4.408,1.392-5.1.464,1.366-1.083,2.809-2.552,4.562-2.913.8-.18.7,0,1.315.284.361.155.077.412.464.309.18-.052.464-.7.516-.8.567-1.16.387-2.474-1.211-2.577-1.392-.1-2.99,1.16-4.021,1.959-1.418,1.134-2.835,2.423-3.145,4.279-.309,1.882.747,2.474,2.577,2.242a35.43,35.43,0,0,0,5.851-1.289c1.778-.515,3.3-1.005,4.485.8-5.877,2.191-12.784,4.717-19.151,3.918-1.16,1.263,2.809,2.165,3.557,2.191a19.6,19.6,0,0,0,5.464-.67c1.856-.438,3.686-.979,5.49-1.546C140.288,50.626,142.5,50.317,143.923,49.389Z" transform="translate(-123.968 -39.228)" fill="#ea0029"/>
        </g>
        <g id="Group_11" data-name="Group 11" transform="translate(76.139 83.923)">
          <path id="Path_14" data-name="Path 14" d="M76.5,68.386c-.361-.747-2.191-1.6-2.861-2.01-.747-.49-2.371-1.933-3.273-1.985-.928-.052-1.521,1.134-1.882,1.778-.361.67-1.083,2.835-1.8,3.067-.67.232-2.191-1.108-2.732-1.443-.67-.387-2.887-1.856-3.4-1.521-.67.438-1.186,2.268-1.6,2.99a11.7,11.7,0,0,0-.773,1.366c-.284.593-.49.747-.052,1.237.593.67,2.01,1.057,2.784,1.521.8.464,2.139,1.624,3.041,1.753,1.572.232,2.809-3.634,3.4-4.82a10.07,10.07,0,0,1,3.428,1.753c.412.258,2.5,2.036,2.913,1.959.7-.129,1.521-2.371,1.83-2.99C75.832,70.474,76.812,69.03,76.5,68.386Z" transform="translate(-57.872 -64.389)" fill="#ea0029"/>
        </g>
        <g id="Group_12" data-name="Group 12" transform="translate(45.563 74.748)">
          <path id="Path_15" data-name="Path 15" d="M58.358,61.526a9.582,9.582,0,0,0-1.237-.7c-1.134-.026-2.423,4.82-2.784,5.7-1.289-.541-2.552-1.083-3.84-1.624a8.65,8.65,0,0,0-1.675-.722c-.722-.1-.412-.284-.9.361a14.733,14.733,0,0,0-1.392,3.4c-.284.722-.851,1.443-.258,2.088.567.619,2.346,1.005,3.119,1.315.8.335,2.861,1.547,3.531,1.263.567-.258,1.005-1.856,1.237-2.371.464-1.057.876-2.114,1.289-3.2,1.211.644,2.4,1.263,3.608,1.907a10.193,10.193,0,0,0,1.572.825c.747.232.644.258,1.108-.438.722-1.108,2.552-4,1.546-5.232-.619-.747-2.346-1.289-3.222-1.727C59.466,62.093,58.9,61.835,58.358,61.526Z" transform="translate(-46.009 -60.83)" fill="#ea0029"/>
        </g>
        <g id="Group_13" data-name="Group 13" transform="translate(180.863 38.349)">
          <path id="Path_16" data-name="Path 16" d="M110.147,46.713c-.515.077-1.237,2.346-1.469,2.835-.361.722-.644,1.907-1.572,2.088-1.057-.593-5.593-3.789-6.392-3.17-.619.464-1.083,2.371-1.366,3.067-.232.515-.979,1.7-.825,2.32s2.165,1.315,2.706,1.624A17.044,17.044,0,0,0,104.5,57.41c.722.206.644.412,1.186-.412a8.564,8.564,0,0,0,.593-1.315c.438-1.083.928-2.139,1.392-3.2,1.186.773,2.346,1.546,3.531,2.32.722.464,2.114,1.83,2.809,1.315.7-.49,1.108-2.294,1.521-3.041.541-1.005,1.186-1.753.361-2.681a11.94,11.94,0,0,0-2.758-2.036C112.544,48.079,110.792,46.61,110.147,46.713Z" transform="translate(-98.502 -46.708)" fill="#ea0029"/>
        </g>
        <g id="Group_14" data-name="Group 14" transform="translate(2.906 24.307)">
          <path id="Path_17" data-name="Path 17" d="M31.188,64.535c2.191,1.65,4.072-1.392,4.691-3.145.258-.7,1.108-2.887.619-3.557-.747-1.057-1.366.722-1.778,1.263-.851,1.108-1.675,1.057-2.32-.18a5.347,5.347,0,0,1,.026-3.944,74.643,74.643,0,0,1,3.067-7.758c.541-1.263,1.005-2.552,1.443-3.866.258-.8.954-1.933-.232-2.088-2.4,5.129-5.438,10.31-6.779,15.826C29.333,59.483,28.92,62.808,31.188,64.535Z" transform="translate(-29.459 -41.26)" fill="#ea0029"/>
        </g>
        <g id="Group_15" data-name="Group 15" transform="translate(210.364 28.545)">
          <path id="Path_18" data-name="Path 18" d="M112.041,49.852a6.6,6.6,0,0,1,2.191-1.237c1.521-.49,3.273-.155,3.273-2.32,0-1.34-1.83-2.6-2.964-3.119-1.933-.876-3.48.464-3.48,2.577,0,.851.1.979.825.464.773-.567,1.211-1.083,2.088-.206-1.546.928-3.2,1.856-3.789,3.712-.7,2.088.284,3.789,1.031,5.67a44.531,44.531,0,0,1,2.268,6.779,18.163,18.163,0,0,1,.1,6.134c1.7-.387,1.418-3.377,1.418-4.639a20.037,20.037,0,0,0-.9-6.16,50.362,50.362,0,0,0-2.423-5.825C111.32,50.754,111.242,50.522,112.041,49.852Z" transform="translate(-109.948 -42.904)" fill="#ea0029"/>
        </g>
        <g id="Group_16" data-name="Group 16" transform="translate(145.918 39.523)">
          <path id="Path_19" data-name="Path 19" d="M85.037,62.336c.851-.335,1.907-1.727,2.706-2.294.9-.619,1.83-1.211,2.784-1.753,2.036-1.16,4.072-2.32,6.109-3.428,2.242-1.211,4.485-2.423,6.753-3.608.979-.516,2.423-.979,3.145-1.856.309-.387,1.005-1.778.541-2.165-.644-.567-5.413,2.552-6.212,2.964-2.191,1.16-4.408,2.32-6.6,3.505-2.139,1.16-4.176,2.474-6.238,3.763C86.248,58.6,84.521,59.939,85.037,62.336Z" transform="translate(-84.944 -47.163)" fill="#ea0029"/>
        </g>
        <g id="Group_17" data-name="Group 17" transform="translate(153.106 26.162)">
          <path id="Path_20" data-name="Path 20" d="M95.819,42.444c-.928,1.985.8,4.253,1.8,5.8-1.7,1.057-2.784-.18-3.273-1.778-.258-.8-.851-3.892-1.959-3.866a10.154,10.154,0,0,0,.619,4.639c.361,1.34.232,2.6-1.315,3.067-2.99.876-1.547-4.9-2.99-5.877-.8-.541-.8.026-.876.722a4.084,4.084,0,0,0-.052,1.366c.129.438.258.206.49.567.722,1.186.49,2.861.954,4.176a2.186,2.186,0,0,0,2.861,1.6c1.495-.593,1.186-2.036,2.217-2.913.928,1.263,2.449,2.371,3.969,1.108A3.964,3.964,0,0,0,99.3,48.579a3.769,3.769,0,0,0-.9-2.758,14.432,14.432,0,0,1-1.572-2.732C96.515,42.367,96.334,41.387,95.819,42.444Z" transform="translate(-87.733 -41.98)" fill="#ea0029"/>
        </g>
        <g id="Group_18" data-name="Group 18" transform="translate(279.988 77.193)">
          <path id="Path_21" data-name="Path 21" d="M149.28,67.375a23.391,23.391,0,0,1-7.269,3.145c-.722.206-2.423.851-2.784-.129-.232-.644,1.186-2.268,1.547-2.861.722-1.186,2.681-4.176,1.211-5.207a4.2,4.2,0,0,0-3.686-.232c-1.16.464-1.34,1.6-1.34,2.784,1.186-.232,3.17-.979,4.15.077-1.237,2.01-2.964,4.124-3.2,6.573a2.3,2.3,0,0,0,.18,1.392c.515,1.315,2.655,1.031,4.33.412a1.488,1.488,0,0,0,.438-.155h.026a15.7,15.7,0,0,0,3.351-1.83A25.768,25.768,0,0,0,149,69.489c.464-.387,2.371-1.959,2.4-2.629C151.445,65.391,149.59,67.169,149.28,67.375Z" transform="translate(-136.96 -61.779)" fill="#ea0029"/>
        </g>
        <g id="Group_19" data-name="Group 19" transform="translate(82.384 26.632)">
          <path id="Path_22" data-name="Path 22" d="M60.824,46.126c-.851.7-.619,3.119.284,3.608a8.26,8.26,0,0,0,2.6.8c.18.026.593-.309.644-.309.284.1.541.541.747.747A14.7,14.7,0,0,1,66.6,53.059a12.318,12.318,0,0,0,1.134,2.165c1.418,1.418,1.263-2.681,1.315-3.454.129-1.856-.026-4.072.722-5.8.825-1.933,2.088-.593,3.067.516,1.882-2.449-1.572-6.109-3.4-3.325-.851,1.289-.954,3.093-1.108,4.614-.052.593.052,3.892-.387,4.021a17.115,17.115,0,0,0-2.809-4.072C64.329,46.9,62.087,45.095,60.824,46.126Z" transform="translate(-60.295 -42.162)" fill="#ea0029"/>
        </g>
        <g id="Group_20" data-name="Group 20" transform="translate(150.013 3.092)">
          <path id="Path_23" data-name="Path 23" d="M93.3,40.918c1.134-.567,2.268-1.083,3.4-1.624,1.108-.541,1.237-1.16,1.8-2.294-.851-.876-3.119.8-3.969,1.186-1.572.7-3.609-.206-5.052-1.057.361-.49,1.675-1.572,2.371-1.469.67.077.412.619.825.979.67.593,1.031-.387,1.237-1.083.283-.928.155-2.165-.954-2.474-1.624-.438-3.892,1.907-4.588,3.17a3.9,3.9,0,0,0-.567,2.6c.232.851,1.186,1.16,1.907,1.521-1.83,1.108-3.377,1.727-3.17,4.253C88.871,43.651,91.062,42.053,93.3,40.918Z" transform="translate(-86.533 -33.029)" fill="#ea0029"/>
        </g>
        <g id="Group_21" data-name="Group 21" transform="translate(40.046 15.194)">
          <path id="Path_24" data-name="Path 24" d="M46.218,45.316c.876.284,1.108.567,1.624-.18a24.3,24.3,0,0,1,3.093,4.3c.18.309.644,1.315,1.134,1.186.412-.1.49-1.83.516-2.062.129-1.392-1.289-8.093.8-8.042.567,0,1.469.979,1.8.876.464-.155.412-1.16.412-1.546a1.386,1.386,0,0,0-.979-1.6c-.593-.284-1.392-.773-2.036-.387-1.031.619-1.134,3.351-1.134,4.356-.026,1.65.206,3.3.335,4.949-.309.077-2.036-3.093-2.4-3.557a7.426,7.426,0,0,0-3.737-2.5,2.489,2.489,0,0,0-1.134-.232c-.619.155-.464.258-.515.954-.052.722-.335,1.882.129,2.526C44.543,44.981,45.574,45.084,46.218,45.316Z" transform="translate(-43.868 -37.725)" fill="#ea0029"/>
        </g>
        <g id="Group_22" data-name="Group 22" transform="translate(206.03 2.798)">
          <path id="Path_25" data-name="Path 25" d="M110.235,39.784a5.891,5.891,0,0,0,1.315.412c.129-.052.309-.722.361-.851a15.5,15.5,0,0,1,2.6,2.913c.387.619.954,2.732,1.727,2.913.722-.825.567-2.165.619-3.2.052-1.237.077-2.449.129-3.686.026-.851.052-2.32,1.134-2.6.773-.206,1.392.619,2.088.876.129-1.186.567-2.371-.49-3.17a1.742,1.742,0,0,0-2.449.052c-1.882,1.985-.541,5.593-1.34,7.887-1.263-2.32-3.222-5.516-6.186-5.8-1.108-.1-1.237.361-1.392,1.366a3.66,3.66,0,0,0,.155,2.165C108.817,39.552,109.694,39.629,110.235,39.784Z" transform="translate(-108.266 -32.915)" fill="#ea0029"/>
        </g>
        <g id="Group_23" data-name="Group 23" transform="translate(219.048 42.165)">
          <path id="Path_26" data-name="Path 26" d="M117.733,51.646c-.7-.7-2.577-2.217-3.634-1.778-1.031.412-.954,2.732-.284,3.505a4.812,4.812,0,0,0,1.933.928,5.9,5.9,0,0,1,.593.258c.077-.077.129-.18.206-.258.309.026.052-.258.541-.052,1.16.515,1.753,2.938,2.294,3.969,1.031,1.959,1.315-.49,1.443-1.572.206-1.546-.129-3.428.7-4.82.8-1.34,1.907-.9,2.526.309.541-.773,1.057-2.165.515-3.041a2,2,0,0,0-2.706-.619c-2.088,1.34-1.495,4.871-1.933,6.933A13.093,13.093,0,0,0,117.733,51.646Z" transform="translate(-113.317 -48.188)" fill="#ea0029"/>
        </g>
        <g id="Group_24" data-name="Group 24" transform="translate(11.36 57.814)">
          <path id="Path_27" data-name="Path 27" d="M36.788,64.029a4.4,4.4,0,0,0,2.139-1.959c.412-.876.773-2.629.155-3.505-.7-1.005-2.191-1.134-3.119-1.753-.773-.515-.593-.387-.541-1.366.052-.851.309-1.108-.593-1.186-1.134,2.6-2.139,4.794-2.088,7.681C32.767,64.6,34.623,65.137,36.788,64.029Zm-2.5-5c1.005.387,1.985.8,2.99,1.186-.644.541-1.933,1.546-2.861,1.186C33.282,61.013,34,59.8,34.288,59.028Z" transform="translate(-32.739 -54.26)" fill="#ea0029"/>
        </g>
        <g id="Group_25" data-name="Group 25" transform="translate(103.237 77.893)">
          <path id="Path_28" data-name="Path 28" d="M72.934,65.452c.438-.8,2.242-3.2.644-3.4-1.882,3.248-4.691,6.109-5.155,10-.155,1.34.1,3.84,1.727,4.253,1.495.387,2.6-1.6,3.119-2.681.232-.49.954-1.753.773-2.294-.361-1.289-.928.284-1.237.8-1.211,1.985-2.577.309-2.449-1.469C70.486,68.906,72.109,66.947,72.934,65.452Z" transform="translate(-68.385 -62.05)" fill="#ea0029"/>
        </g>
        <g id="Group_26" data-name="Group 26" transform="translate(248.833 77.341)">
          <path id="Path_29" data-name="Path 29" d="M128.784,64.115c-.67-.8-2.088-2.423-3.273-2.268a6.473,6.473,0,0,0-.619,2.346c.129.619.9.954,1.34,1.314a7.549,7.549,0,0,1,2.474,3.273,10.764,10.764,0,0,1,.438,4.949c-.18,1.392-1.005,2.861-.747,4.253a10.647,10.647,0,0,0,1.8-4.743,16.784,16.784,0,0,0,.567-4.511A8.21,8.21,0,0,0,128.784,64.115Z" transform="translate(-124.873 -61.836)" fill="#ea0029"/>
        </g>
        <g id="Group_27" data-name="Group 27" transform="translate(80.692 44.798)">
          <path id="Path_30" data-name="Path 30" d="M62.478,52.9c.232-.67,1.572-3.634.309-3.686-.8,1.83-1.418,3.763-2.062,5.645a12.317,12.317,0,0,0-1.057,5.155c.1,1.083.851,3.016,2.242,2.861,1.495-.155,2.088-2.577,2.268-3.763.026-.18.232-1.65-.567-1.211-.464.258-.309,1.675-.825,2.036-1.263.851-1.882-1.546-1.8-2.371C61.06,55.937,61.962,54.417,62.478,52.9Z" transform="translate(-59.638 -49.21)" fill="#ea0029"/>
        </g>
        <g id="Group_28" data-name="Group 28" transform="translate(13.185 84.904)">
          <path id="Path_31" data-name="Path 31" d="M36.805,69.1c.284-.8,1.856-4.279.387-4.33-.928,2.165-1.675,4.433-2.449,6.65-.67,1.933-1.469,4-1.263,6.057.129,1.263.979,3.531,2.655,3.351,1.778-.18,2.449-3.041,2.655-4.407.026-.206.284-1.933-.67-1.418-.541.284-.361,1.985-.979,2.4C35.645,78.4,34.949,75.57,35,74.59,35.13,72.657,36.187,70.879,36.805,69.1Z" transform="translate(-33.447 -64.77)" fill="#ea0029"/>
        </g>
        <g id="Group_29" data-name="Group 29" transform="translate(127.491 27.297)">
          <path id="Path_32" data-name="Path 32" d="M79.406,55.8c1.366.387,2.191-1.6,2.474-2.681.077-.309.361-1.289.026-1.572-.593-.49-.747.979-1.083,1.289-1.211,1.186-1.727-1.057-1.675-1.985.077-1.7,1.031-3.583,1.624-5.181.335-.876,1.546-2.913.155-3.248-1.16,3.093-2.835,6.418-3.119,9.769C77.731,53.426,77.963,55.385,79.406,55.8Z" transform="translate(-77.795 -42.42)" fill="#ea0029"/>
        </g>
        <g id="Group_30" data-name="Group 30" transform="translate(144.335 17.772)">
          <path id="Path_33" data-name="Path 33" d="M88.042,46.522c-.309.9-.954,3.248-2.036,1.366-.67-1.186.077-2.964.438-4.176.309-1.083,1.521-3.454,1.134-4.562-.567-1.624-1.366,1.882-1.521,2.423-.722,2.294-2.964,7.088-.825,9.2C87.887,53.353,89.433,46.651,88.042,46.522Z" transform="translate(-84.33 -38.725)" fill="#ea0029"/>
        </g>
        <g id="Group_31" data-name="Group 31" transform="translate(29.372 83.282)">
          <path id="Path_34" data-name="Path 34" d="M43.472,64.474a1.782,1.782,0,0,0-2.6.619c-.49.722-1.469,2.346-1.031,3.2.567-.206,1.469-1.34,2.191-.851.773.541,0,2.01-.335,2.6-.258.464-1.882,2.165-1.031,2.474.8.284,2.114-1.7,2.474-2.217C44.193,68.881,45.43,65.711,43.472,64.474Z" transform="translate(-39.727 -64.141)" fill="#ea0029"/>
        </g>
        <g id="Group_32" data-name="Group 32" transform="translate(254.871 36.937)">
          <path id="Path_35" data-name="Path 35" d="M130.166,46.16c-.773,2.062-1.624,4.124-2.32,6.212-.516,1.521-.954,3.4-.309,4.923.49,1.186,1.907,2.371,2.99,1.16.438-.516,1.8-4,.516-4.1-.309.9-.7,2.577-1.882,1.443a3.009,3.009,0,0,1-.438-3.2C129.161,51.418,131.661,46.907,130.166,46.16Z" transform="translate(-127.215 -46.16)" fill="#ea0029"/>
        </g>
        <g id="Group_33" data-name="Group 33" transform="translate(215.036 75.702)">
          <path id="Path_36" data-name="Path 36" d="M114.673,63.855a9.251,9.251,0,0,0,.8-1.7c.155-.7.335-.541-.412-.954-1.315,2.552-4.072,6.341-3.093,9.382.464,1.392,1.8,2.088,2.887.851a6.67,6.67,0,0,0,1.005-2.062c.284-.825.722-1.392-.155-1.8-.232.593-.541,2.088-1.495,1.907s-1.186-1.933-.979-2.655A22.531,22.531,0,0,1,114.673,63.855Z" transform="translate(-111.76 -61.2)" fill="#ea0029"/>
        </g>
        <g id="Group_34" data-name="Group 34" transform="translate(29.28 51.343)">
          <path id="Path_37" data-name="Path 37" d="M48.76,55.411A1.01,1.01,0,0,0,48.3,55c-1.057-.593-5.593-3.789-6.392-3.17-.619.464-1.083,2.371-1.366,3.067-.232.515-.979,1.7-.825,2.32s2.165,1.315,2.706,1.624a17.043,17.043,0,0,0,3.273,1.933c.722.206.644.412,1.186-.412a8.564,8.564,0,0,0,.593-1.315c.438-1.083.928-2.139,1.392-3.2A.967.967,0,0,0,48.76,55.411Z" transform="translate(-39.692 -51.749)" fill="#ea0029"/>
        </g>
      </g>
      <g id="Group_36" data-name="Group 36" transform="translate(0 123.385)">
        <path id="Path_38" data-name="Path 38" d="M38.189,88.755c0,.67.026.979.335,1.057.052.052.052.335-.052.387a8.6,8.6,0,0,0-1.108.232,12.145,12.145,0,0,1-2.835.387,7.683,7.683,0,0,1-3.145-.567,5.01,5.01,0,0,1-3.145-4.82,5.273,5.273,0,0,1,2.809-4.82,7.754,7.754,0,0,1,3.737-.851,20.347,20.347,0,0,1,3.17.387c.052.49.052,1.6.232,2.577-.052.18-.49.18-.619.026a2.972,2.972,0,0,0-3.016-2.242c-2.552,0-3.763,2.114-3.763,4.639,0,2.294.773,3.634,1.83,4.356a3.909,3.909,0,0,0,2.191.619c.9,0,1.108-.18,1.108-1.211V87.9c0-.876-.1-.954-.851-1.083l-.7-.1a.365.365,0,0,1,0-.567c1.134.026,1.907.052,2.706.052.773,0,1.547-.026,2.088-.052a.464.464,0,0,1,0,.567l-.361.052c-.49.077-.567.232-.567,1.108v.876Z" transform="translate(-28.24 -79.605)" fill="#222"/>
        <path id="Path_39" data-name="Path 39" d="M44.715,85.25c0,3.48-2.346,5.567-5.774,5.567A5.209,5.209,0,0,1,33.4,85.379a5.508,5.508,0,0,1,5.7-5.619A5.3,5.3,0,0,1,44.715,85.25Zm-5.748-4.743c-1.959,0-3.016,1.83-3.016,4.511,0,1.959.7,5.078,3.3,5.078,2.088,0,2.913-2.036,2.913-4.639C42.138,82.724,40.952,80.507,38.967,80.507Z" transform="translate(-20.1 -79.605)" fill="#222"/>
        <path id="Path_40" data-name="Path 40" d="M46.062,86.474c-.825,1.933-1.237,3.2-1.6,4.1a1.084,1.084,0,0,1-.567.129.737.737,0,0,1-.438-.129c-.18-.438-.438-1.289-.67-1.83l-2.577-6.5c-.619-1.547-.7-1.572-1.211-1.7l-.644-.155a.417.417,0,0,1,.052-.541c.825.026,1.34.052,2.165.052.747,0,1.418-.026,2.4-.052.129.1.1.412.026.541l-.49.1c-.284.052-.412.155-.412.309a12.894,12.894,0,0,0,.644,1.753l1.418,3.608.515,1.34c.129-.284.387-.825.567-1.289l.619-1.495c.412-1.005,1.083-2.809,1.289-3.351A2.7,2.7,0,0,0,47.3,80.8c0-.1-.129-.18-.516-.284l-.515-.1c-.129-.129-.129-.464.052-.541.747.026,1.366.052,1.959.052.541,0,1.031-.026,1.495-.052.129.052.155.438.026.541l-.412.077a1.172,1.172,0,0,0-.928.516,17.033,17.033,0,0,0-1.289,2.706Z" transform="translate(-12.4 -79.463)" fill="#222"/>
        <path id="Path_41" data-name="Path 41" d="M47.105,84.041c0,.438.026.49.438.49h1.108c.825,0,1.031-.1,1.186-.876l.077-.412c.1-.129.515-.129.593.026-.026.515-.052,1.083-.052,1.7s.026,1.186.052,1.7c-.077.155-.49.155-.593.026l-.077-.412c-.155-.773-.361-.9-1.186-.9H47.544c-.438,0-.438.026-.438.49v1.907a2.762,2.762,0,0,0,.258,1.521c.206.284.516.412,1.675.412,1.392,0,1.933-.052,2.809-1.856a.4.4,0,0,1,.593.077,8.277,8.277,0,0,1-.67,2.552c-.851-.026-2.371-.052-3.686-.052H46c-.773,0-1.547.026-2.758.052-.129-.1-.129-.49,0-.567l.747-.1c.722-.1.825-.206.825-1.675V82.186c0-1.443-.1-1.546-.825-1.7l-.412-.077a.405.405,0,0,1,.026-.567c.747.026,1.546.052,2.294.052H49.27c1.031,0,1.933-.026,2.139-.052.026.258.129,1.418.206,2.474-.052.18-.438.206-.593.052A3.807,3.807,0,0,0,50.4,81.1a2.077,2.077,0,0,0-1.572-.49H47.544c-.515,0-.515.026-.515.619v2.809Z" transform="translate(-4.731 -79.479)" fill="#222"/>
        <path id="Path_42" data-name="Path 42" d="M48.881,82.485c0-1.6-.026-1.778-.7-1.882l-.438-.052a.384.384,0,0,1,.026-.567c1.211-.077,2.449-.155,3.969-.155a6.9,6.9,0,0,1,3.145.567A2.624,2.624,0,0,1,56.3,82.768a2.564,2.564,0,0,1-1.7,2.4c-.155.077-.155.18-.077.361,1.057,2.139,1.7,3.351,2.474,4a1.8,1.8,0,0,0,1.083.438.271.271,0,0,1,.052.412,4.091,4.091,0,0,1-1.263.155,3.23,3.23,0,0,1-3.093-1.675,18.461,18.461,0,0,1-1.237-2.474.8.8,0,0,0-.851-.567c-.567,0-.593.026-.593.361V88.13c0,1.469.1,1.572.825,1.7l.438.077a.558.558,0,0,1,0,.567c-.851-.026-1.572-.052-2.346-.052-.8,0-1.495.026-2.346.052-.129-.1-.129-.49,0-.567l.438-.077c.722-.129.825-.232.825-1.7V82.485Zm2.191,2.036c0,.567.052.619.979.619a1.617,1.617,0,0,0,1.211-.438,2.283,2.283,0,0,0,.567-1.727A2.116,2.116,0,0,0,51.742,80.6c-.644,0-.7.052-.7.825v3.093Z" transform="translate(2.257 -79.495)" fill="#222"/>
        <path id="Path_43" data-name="Path 43" d="M62.368,87.743c0,1.031,0,2.036.026,2.578a1.312,1.312,0,0,1-.954.361c-.026,0-.541-.825-1.289-1.753l-3.686-4.562a18.28,18.28,0,0,0-1.753-2.036,2.951,2.951,0,0,0-.077,1.031v3.093a10.906,10.906,0,0,0,.232,2.913c.155.335.516.438.928.516l.438.052a.505.505,0,0,1,0,.567c-.851-.026-1.495-.052-2.139-.052-.593,0-1.186.026-1.778.052a.505.505,0,0,1,0-.567l.284-.052c.438-.077.747-.18.876-.516a11.027,11.027,0,0,0,.232-2.913V82.382a4.405,4.405,0,0,0-.1-1.366c-.129-.284-.361-.464-.9-.541l-.438-.052c-.1-.129-.1-.515.052-.567.747.026,1.546.052,2.217.052.541,0,1.005-.026,1.34-.052.155.722,1.211,1.933,2.629,3.634l1.34,1.572c.7.825,1.16,1.392,1.547,1.753a2.843,2.843,0,0,0,.052-.722V83.877a10.9,10.9,0,0,0-.232-2.913c-.155-.335-.49-.438-.928-.515l-.438-.052a.505.505,0,0,1,0-.567c.851.026,1.495.052,2.139.052.593,0,1.16-.026,1.778-.052a.505.505,0,0,1,0,.567l-.284.052c-.412.052-.722.18-.851.515a11.026,11.026,0,0,0-.232,2.913v3.866Z" transform="translate(9.544 -79.495)" fill="#222"/>
        <path id="Path_44" data-name="Path 44" d="M57.722,80.407c-.129-.129-.129-.516.052-.567.541.026,1.237.052,2.01.052.516,0,.979,0,1.572-.052,0,.979.567,1.959,1.263,3.48l1.057,2.242c.155.309.722,1.315.954,1.727.206-.387.464-.876.9-1.83l.825-1.753a20.487,20.487,0,0,0,1.521-3.866c.747.052,1.108.052,1.572.052.515,0,1.263-.026,1.83-.052a.4.4,0,0,1,.052.567l-.464.077c-.644.1-.979.309-.979,1.16,0,3.3.026,5.026.129,7.037.026.747.1,1.108.722,1.211l.516.052c.129.129.129.49-.026.567-.747-.026-1.418-.052-2.217-.052-.722,0-1.6.026-2.371.052a.383.383,0,0,1-.052-.567l.49-.052c.747-.1.747-.284.747-1.263l-.026-4.15v-1.83h-.026c-1.186,2.552-2.474,5.232-3.505,7.939a.553.553,0,0,1-.309.1.7.7,0,0,1-.412-.1c-.619-1.985-2.577-5.954-3.48-8.016h-.026c-.052,1.031-.077,1.753-.1,2.577-.026,1.031-.026,2.629-.026,3.608,0,.8.1,1.031.747,1.108l.619.1a.464.464,0,0,1-.026.567c-.593-.026-1.289-.052-1.882-.052-.515,0-1.108.026-1.753.052-.206-.052-.206-.49-.052-.567l.284-.052c.825-.155.9-.232,1.005-1.237.077-.773.129-2.165.232-3.686.052-1.083.1-2.371.1-3.222,0-.9-.361-1.16-.979-1.263Z" transform="translate(17.85 -79.479)" fill="#222"/>
        <path id="Path_45" data-name="Path 45" d="M67.605,84.041c0,.438.026.49.438.49h1.108c.825,0,1.031-.1,1.186-.876l.077-.412c.1-.129.515-.129.593.026-.026.515-.052,1.083-.052,1.7s.026,1.186.052,1.7c-.077.155-.49.155-.593.026l-.077-.412c-.155-.773-.361-.9-1.186-.9H68.044c-.438,0-.438.026-.438.49v1.907a2.761,2.761,0,0,0,.258,1.521c.206.284.515.412,1.675.412,1.392,0,1.933-.052,2.809-1.856a.4.4,0,0,1,.593.077,8.277,8.277,0,0,1-.67,2.552c-.851-.026-2.371-.052-3.686-.052H66.5c-.773,0-1.547.026-2.758.052-.129-.1-.129-.49,0-.567l.747-.1c.722-.1.825-.206.825-1.675V82.186c0-1.443-.1-1.546-.825-1.7l-.412-.077a.405.405,0,0,1,.026-.567c.747.026,1.546.052,2.294.052H69.77c1.031,0,1.933-.026,2.139-.052.026.258.129,1.418.206,2.474-.052.18-.438.206-.593.052A3.807,3.807,0,0,0,70.9,81.1a2.077,2.077,0,0,0-1.572-.49H68.044c-.516,0-.516.026-.516.619v2.809Z" transform="translate(27.607 -79.479)" fill="#222"/>
        <path id="Path_46" data-name="Path 46" d="M78.148,87.743c0,1.031,0,2.036.026,2.578a1.312,1.312,0,0,1-.954.361c-.026,0-.541-.825-1.289-1.753l-3.686-4.562a18.277,18.277,0,0,0-1.753-2.036,2.95,2.95,0,0,0-.077,1.031v3.093a10.9,10.9,0,0,0,.232,2.913c.155.335.515.438.928.516l.438.052a.505.505,0,0,1,0,.567c-.851-.026-1.495-.052-2.139-.052-.593,0-1.186.026-1.778.052a.505.505,0,0,1,0-.567l.284-.052c.438-.077.747-.18.876-.516a11.027,11.027,0,0,0,.232-2.913V82.382a4.406,4.406,0,0,0-.1-1.366c-.129-.284-.361-.464-.9-.541l-.438-.052c-.1-.129-.1-.515.052-.567.747.026,1.546.052,2.217.052.541,0,1.005-.026,1.34-.052.155.722,1.211,1.933,2.629,3.634l1.34,1.572c.7.825,1.16,1.392,1.546,1.753a2.842,2.842,0,0,0,.052-.722V83.877a10.9,10.9,0,0,0-.232-2.913c-.155-.335-.49-.438-.928-.515l-.438-.052a.505.505,0,0,1,0-.567c.851.026,1.495.052,2.139.052.593,0,1.16-.026,1.778-.052a.505.505,0,0,1,0,.567l-.284.052c-.412.052-.722.18-.851.515a11.027,11.027,0,0,0-.232,2.913v3.866Z" transform="translate(34.437 -79.495)" fill="#222"/>
        <path id="Path_47" data-name="Path 47" d="M77.114,81.324c0-.387,0-.464-.387-.464h-.979c-1.16,0-1.495.644-1.985,1.8a.452.452,0,0,1-.593-.155,18.215,18.215,0,0,0,.516-2.706.36.36,0,0,1,.232-.077.753.753,0,0,1,.232.052c.077.284.129.335,1.34.335h5.954c1.057,0,1.289-.026,1.443-.361a.4.4,0,0,1,.206-.052.283.283,0,0,1,.232.1,10.671,10.671,0,0,0-.232,2.758c-.077.155-.515.18-.593.052-.284-1.031-.49-1.778-1.7-1.778h-.954c-.387,0-.438.052-.438.464V88.36c0,1.495.1,1.624.825,1.7l.644.077a.558.558,0,0,1,0,.567c-1.031-.026-1.83-.052-2.552-.052-.773,0-1.6.026-2.706.052a.464.464,0,0,1,0-.567l.722-.077c.722-.077.825-.232.825-1.7V81.324Z" transform="translate(42.637 -79.7)" fill="#222"/>
        <path id="Path_48" data-name="Path 48" d="M91.4,85.25c0,3.48-2.346,5.567-5.774,5.567a5.209,5.209,0,0,1-5.542-5.439,5.508,5.508,0,0,1,5.7-5.619A5.3,5.3,0,0,1,91.4,85.25Zm-5.748-4.743c-1.959,0-3.016,1.83-3.016,4.511,0,1.959.7,5.078,3.3,5.078,2.088,0,2.913-2.036,2.913-4.639C88.843,82.724,87.632,80.507,85.647,80.507Z" transform="translate(53.537 -79.605)" fill="#222"/>
        <path id="Path_49" data-name="Path 49" d="M89.2,84.17c0,.438.026.49.438.49h1.237c.851,0,1.031-.1,1.186-.9l.077-.387a.471.471,0,0,1,.619.026c-.026.515-.052,1.108-.052,1.7s.026,1.186.052,1.675a.5.5,0,0,1-.619.026l-.077-.387c-.155-.773-.335-.9-1.186-.9H89.642c-.438,0-.438.052-.438.49v2.165c0,1.495.1,1.624.825,1.7l.593.077a.559.559,0,0,1,0,.567c-.979-.026-1.778-.052-2.552-.052-.747,0-1.546.026-2.5.052a.464.464,0,0,1,0-.567l.515-.077c.722-.1.825-.232.825-1.7V82.211c0-1.495-.1-1.624-.825-1.753l-.309-.052c-.155-.1-.155-.49.026-.567.7.026,1.495.052,2.242.052h3.351c1.031,0,1.933-.026,2.165-.052,0,.284,0,1.418.026,2.5-.052.18-.412.18-.619.052a4.259,4.259,0,0,0-.464-1.237,1.907,1.907,0,0,0-1.572-.515H89.693c-.515,0-.515.026-.515.644V84.17Z" transform="translate(62.044 -79.479)" fill="#222"/>
        <path id="Path_50" data-name="Path 50" d="M92.93,82.185c0-1.495-.1-1.572-.825-1.727l-.412-.077a.375.375,0,0,1,.026-.541c.773.026,1.572.052,2.346.052s1.572-.026,2.346-.052a.427.427,0,0,1,0,.541l-.387.052c-.722.129-.825.258-.825,1.753v3.686c0,1.882.206,3.944,2.629,3.944,2.036,0,2.681-1.778,2.681-3.969V83.912A10.9,10.9,0,0,0,100.276,81c-.155-.335-.49-.438-.928-.516l-.438-.077a.464.464,0,0,1,0-.541c.851.026,1.495.052,2.139.052.593,0,1.186-.026,1.778-.052a.464.464,0,0,1,0,.541l-.284.052c-.412.1-.722.18-.851.516a10.9,10.9,0,0,0-.232,2.913v1.778a5.511,5.511,0,0,1-1.031,3.84,4.347,4.347,0,0,1-3.17,1.16,4.753,4.753,0,0,1-3.17-.9c-.825-.7-1.186-1.882-1.186-3.608V82.185Z" transform="translate(71.694 -79.479)" fill="#222"/>
        <path id="Path_51" data-name="Path 51" d="M97,80.407c-.129-.129-.129-.516.052-.567.541.026,1.237.052,2.01.052.515,0,.979,0,1.572-.052,0,.979.567,1.959,1.263,3.48l1.057,2.242c.155.309.722,1.315.954,1.727.206-.387.464-.876.9-1.83l.825-1.753a20.485,20.485,0,0,0,1.521-3.866c.747.052,1.108.052,1.572.052.515,0,1.263-.026,1.83-.052a.4.4,0,0,1,.052.567l-.464.077c-.644.1-.979.309-.979,1.16,0,3.3.026,5.026.129,7.037.026.747.1,1.108.722,1.211l.515.052c.129.129.129.49-.026.567-.747-.026-1.418-.052-2.217-.052-.722,0-1.6.026-2.371.052a.383.383,0,0,1-.052-.567l.49-.052c.747-.1.747-.284.747-1.263l-.026-4.15v-1.83h-.026c-1.186,2.552-2.474,5.232-3.505,7.939a.553.553,0,0,1-.309.1.7.7,0,0,1-.412-.1c-.619-1.985-2.577-5.954-3.48-8.016h-.026c-.052,1.031-.077,1.753-.1,2.577-.026,1.031-.026,2.629-.026,3.608,0,.8.1,1.031.747,1.108l.619.1a.464.464,0,0,1-.026.567c-.593-.026-1.289-.052-1.882-.052-.516,0-1.108.026-1.753.052-.206-.052-.206-.49-.052-.567l.284-.052c.825-.155.9-.232,1.005-1.237.077-.773.129-2.165.232-3.686.052-1.083.1-2.371.1-3.222,0-.9-.361-1.16-.979-1.263Z" transform="translate(79.814 -79.479)" fill="#222"/>
        <path id="Path_52" data-name="Path 52" d="M103.242,80.407c-.129-.129-.129-.516.052-.567.541.026,1.237.052,2.01.052.515,0,.979,0,1.572-.052,0,.979.567,1.959,1.263,3.48l1.057,2.242c.155.309.722,1.315.954,1.727.206-.387.464-.876.9-1.83l.825-1.753A20.483,20.483,0,0,0,113.4,79.84c.747.052,1.108.052,1.572.052.516,0,1.263-.026,1.83-.052a.4.4,0,0,1,.052.567l-.464.077c-.644.1-.979.309-.979,1.16,0,3.3.026,5.026.129,7.037.026.747.1,1.108.722,1.211l.515.052c.129.129.129.49-.026.567-.747-.026-1.418-.052-2.217-.052-.722,0-1.6.026-2.371.052a.383.383,0,0,1-.052-.567l.49-.052c.747-.1.747-.284.747-1.263l-.026-4.15v-1.83h-.026c-1.186,2.552-2.474,5.232-3.505,7.939a.553.553,0,0,1-.309.1.7.7,0,0,1-.412-.1c-.619-1.985-2.577-5.954-3.48-8.016h-.026c-.052,1.031-.077,1.753-.1,2.577-.026,1.031-.026,2.629-.026,3.608,0,.8.1,1.031.747,1.108l.619.1a.464.464,0,0,1-.026.567c-.593-.026-1.289-.052-1.882-.052-.515,0-1.108.026-1.753.052-.206-.052-.206-.49-.052-.567l.284-.052c.825-.155.9-.232,1.005-1.237.077-.773.129-2.165.232-3.686.052-1.083.1-2.371.1-3.222,0-.9-.361-1.16-.979-1.263Z" transform="translate(89.657 -79.479)" fill="#222"/>
        <path id="Path_53" data-name="Path 53" d="M114.754,86.951c-.387,0-.438.026-.516.309l-.619,1.856a1.511,1.511,0,0,0-.1.567c0,.1.206.18.644.284l.49.077c.1.1.129.49-.026.567-.567-.026-1.134-.026-1.8-.052-.541,0-.9.052-1.65.052-.18-.1-.155-.438-.052-.567l.438-.052a1.126,1.126,0,0,0,.979-.8c.284-.644.567-1.418,1.005-2.552l1.443-3.892a5.87,5.87,0,0,0,.593-2.036,3.176,3.176,0,0,0,1.392-.954c.206,0,.309.077.361.309.129.464.309,1.057.722,2.191l2.165,6.263c.335.954.49,1.315,1.083,1.418l.619.1a.466.466,0,0,1-.026.567c-.773-.026-1.624-.052-2.449-.052-.8,0-1.418.026-2.165.052a.365.365,0,0,1-.026-.567l.515-.077c.361-.052.438-.18.438-.284A5.826,5.826,0,0,0,117.9,88.6l-.438-1.366c-.077-.258-.206-.284-.773-.284h-1.933Zm1.83-.851c.361,0,.438-.052.309-.464l-.412-1.289c-.232-.7-.515-1.546-.644-1.882-.129.361-.438,1.237-.7,1.959l-.412,1.211c-.155.438-.052.49.335.49h1.521Z" transform="translate(102.374 -79.605)" fill="#222"/>
        <path id="Path_54" data-name="Path 54" d="M119.6,87.779a2.461,2.461,0,0,0,.284,1.521c.206.284.49.412,1.65.412,1.443,0,1.907-.052,2.835-1.907a.434.434,0,0,1,.619.1,9.206,9.206,0,0,1-.7,2.578c-.851-.026-2.371-.052-3.686-.052h-2.139c-.747,0-1.546.026-2.526.052a.435.435,0,0,1-.052-.567l.619-.077c.722-.1.825-.232.825-1.7V82.185c0-1.495-.1-1.624-.825-1.727l-.464-.052a.384.384,0,0,1,.026-.567c.825.026,1.624.052,2.4.052s1.572-.026,2.371-.052a.464.464,0,0,1,0,.567l-.412.052c-.722.1-.825.232-.825,1.727v5.593Z" transform="translate(109.898 -79.479)" fill="#222"/>
        <path id="Path_55" data-name="Path 55" d="M131.289,85.282a5.124,5.124,0,0,1-3.351,5.155c-.1.052-.052.18.155.361a9,9,0,0,0,3.48,2.294,5.865,5.865,0,0,0,1.211.129,2.083,2.083,0,0,0,.7-.129c.155.052.18.258.155.387a4.231,4.231,0,0,1-2.294.593,8.17,8.17,0,0,1-5.774-2.758c-.309-.309-.464-.516-.851-.541A5.134,5.134,0,0,1,120,85.359a5.508,5.508,0,0,1,5.7-5.619A5.346,5.346,0,0,1,131.289,85.282Zm-8.763-.232c0,1.959.7,5.1,3.3,5.1,2.088,0,2.913-2.062,2.913-4.639,0-2.732-1.211-4.949-3.17-4.949C123.583,80.539,122.526,82.369,122.526,85.05Z" transform="translate(116.511 -79.637)" fill="#222"/>
        <path id="Path_56" data-name="Path 56" d="M126.58,82.185c0-1.495-.1-1.572-.825-1.727l-.412-.077a.375.375,0,0,1,.026-.541c.773.026,1.572.052,2.346.052s1.572-.026,2.345-.052a.427.427,0,0,1,0,.541l-.387.052c-.722.129-.825.258-.825,1.753v3.686c0,1.882.206,3.944,2.629,3.944,2.036,0,2.681-1.778,2.681-3.969V83.912A10.907,10.907,0,0,0,133.926,81c-.155-.335-.49-.438-.928-.516l-.438-.077a.464.464,0,0,1,0-.541c.851.026,1.495.052,2.139.052.593,0,1.186-.026,1.778-.052a.464.464,0,0,1,0,.541l-.284.052c-.412.1-.722.18-.851.516a10.9,10.9,0,0,0-.232,2.913v1.778a5.511,5.511,0,0,1-1.031,3.84,4.347,4.347,0,0,1-3.17,1.16,4.752,4.752,0,0,1-3.17-.9c-.825-.7-1.186-1.882-1.186-3.608V82.185Z" transform="translate(124.777 -79.479)" fill="#222"/>
        <path id="Path_57" data-name="Path 57" d="M146.311,80.526a1.174,1.174,0,0,0-.722.361,12.065,12.065,0,0,0-.876,1.778c-.773,1.882-2.526,5.851-3.3,7.939a.948.948,0,0,1-.516.129.8.8,0,0,1-.438-.129c-.18-.387-.412-.954-.619-1.418l-.67-1.521c-.232-.515-.438-.979-.567-1.237-.155.284-.335.644-.541,1.108l-.747,1.546c-.232.515-.412.979-.67,1.495a.922.922,0,0,1-.541.129.869.869,0,0,1-.438-.129c-.258-.67-.9-2.114-1.443-3.3l-2.6-5.645c-.438-.954-.515-1.031-1.057-1.134l-.412-.077c-.129-.155-.1-.49.052-.567.593.026,1.263.052,2.088.052.7,0,1.314-.026,1.933-.052a.429.429,0,0,1,.026.567l-.284.052c-.283.052-.412.129-.412.232s.335.851.825,1.985l1.572,3.531c.438.979.7,1.443.876,1.83.18-.309.567-1.083.825-1.65l.206-.464a1.873,1.873,0,0,0,.155-.567,2.164,2.164,0,0,0-.18-.593L136.285,81.4c-.361-.8-.49-.9-1.083-.979l-.155-.026a.383.383,0,0,1,.052-.567c.7.026,1.314.052,2.01.052.825,0,1.418-.026,1.83-.052.18.052.18.49.052.567l-.284.052c-.18.052-.438.1-.438.232a1.064,1.064,0,0,0,.155.49l.49,1.108c.155.335.361.773.49,1.057l.49-1.083.155-.309a6.271,6.271,0,0,0,.464-1.186c0-.1-.052-.155-.309-.232l-.567-.1c-.1-.1-.1-.49.052-.567.464.026,1.031.052,1.572.052.619,0,1.211-.026,1.624-.052a.464.464,0,0,1,.026.567l-.438.1c-.541.1-.644.1-1.211,1.083-.387.644-.773,1.443-.979,1.882a4.389,4.389,0,0,0-.361.825,1.432,1.432,0,0,0,.129.412l.747,1.624c.412.876.644,1.392.747,1.624.773-1.856,1.65-3.892,2.423-5.825a9.108,9.108,0,0,0,.412-1.289c0-.155-.258-.232-.464-.284l-.361-.1c-.129-.155-.1-.49.052-.567.516.026,1.16.052,1.65.052.567,0,1.031-.026,1.469-.052.155.077.155.438.052.567Z" transform="translate(132.393 -79.495)" fill="#222"/>
        <path id="Path_58" data-name="Path 58" d="M139.664,86.951c-.387,0-.438.026-.516.309l-.619,1.856a1.511,1.511,0,0,0-.1.567c0,.1.206.18.644.284l.49.077c.1.1.129.49-.026.567-.567-.026-1.134-.026-1.8-.052-.541,0-.9.052-1.65.052-.18-.1-.155-.438-.052-.567l.438-.052a1.126,1.126,0,0,0,.979-.8c.284-.644.567-1.418,1.005-2.552L139.9,82.75a5.871,5.871,0,0,0,.593-2.036,3.176,3.176,0,0,0,1.392-.954c.206,0,.309.077.361.309.129.464.309,1.057.722,2.191l2.165,6.263c.335.954.49,1.315,1.083,1.418l.619.1a.466.466,0,0,1-.026.567c-.773-.026-1.624-.052-2.449-.052-.8,0-1.418.026-2.165.052a.365.365,0,0,1-.026-.567l.515-.077c.361-.052.438-.18.438-.284a5.828,5.828,0,0,0-.309-1.083l-.438-1.366c-.077-.258-.206-.284-.773-.284h-1.933Zm1.83-.851c.361,0,.438-.052.309-.464l-.412-1.289c-.232-.7-.515-1.546-.644-1.882-.129.361-.438,1.237-.7,1.959l-.412,1.211c-.155.438-.052.49.335.49h1.521Z" transform="translate(141.67 -79.605)" fill="#222"/>
        <path id="Path_59" data-name="Path 59" d="M144.442,88.114c0,1.495.1,1.624.825,1.753l.438.077a.465.465,0,0,1-.026.567c-.851-.026-1.65-.052-2.4-.052-.773,0-1.572.026-2.423.052a.464.464,0,0,1,0-.567l.438-.077c.747-.129.825-.232.825-1.753V82.237c0-1.495-.1-1.624-.825-1.753l-.438-.077a.464.464,0,0,1,0-.567c.851.026,1.65.052,2.423.052.747,0,1.547-.026,2.423-.052a.464.464,0,0,1,0,.567l-.438.077c-.747.129-.825.232-.825,1.753v5.877Z" transform="translate(149.264 -79.479)" fill="#222"/>
        <path id="Path_60" data-name="Path 60" d="M153.778,87.743c0,1.031,0,2.036.026,2.578a1.312,1.312,0,0,1-.954.361c-.026,0-.541-.825-1.289-1.753l-3.686-4.562a18.276,18.276,0,0,0-1.753-2.036,2.951,2.951,0,0,0-.077,1.031v3.093a10.906,10.906,0,0,0,.232,2.913c.155.335.516.438.928.516l.438.052a.505.505,0,0,1,0,.567c-.876-.026-1.495-.052-2.139-.052-.593,0-1.186.026-1.779.052a.505.505,0,0,1,0-.567l.284-.052c.438-.077.747-.18.876-.516a11.027,11.027,0,0,0,.232-2.913V82.382a4.407,4.407,0,0,0-.1-1.366c-.129-.284-.361-.464-.9-.541l-.438-.052c-.1-.129-.1-.515.052-.567.747.026,1.547.052,2.217.052.541,0,1.005-.026,1.34-.052.155.722,1.211,1.933,2.629,3.634l1.34,1.572c.7.825,1.16,1.392,1.546,1.753a2.84,2.84,0,0,0,.052-.722V83.877a10.906,10.906,0,0,0-.232-2.913c-.155-.335-.49-.438-.928-.515l-.438-.052a.505.505,0,0,1,0-.567c.851.026,1.495.052,2.139.052.593,0,1.16-.026,1.778-.052a.505.505,0,0,1,0,.567l-.284.052a.986.986,0,0,0-.876.515,11.025,11.025,0,0,0-.232,2.913v3.866Z" transform="translate(153.743 -79.495)" fill="#222"/>
      </g>
      <g id="Group_37" data-name="Group 37" transform="translate(0.258 114.699)">
        <rect id="Rectangle_2" data-name="Rectangle 2" width="307.495" height="1.186" fill="#ea0029"/>
      </g>
    </g>
    <g id="Group_43" data-name="Group 43" transform="translate(330.282 6299)">
      <g id="Group_40" data-name="Group 40" transform="translate(1.677 48.452)">
        <g id="Group_39" data-name="Group 39">
          <path id="Path_61" data-name="Path 61" d="M220.52,94.594V74.6h12.031v2.719h-9.177v5.842H231.2v2.7h-7.828v6.015h9.177v2.719H220.52Z" transform="translate(-220.52 -74.426)" fill="#222"/>
          <path id="Path_62" data-name="Path 62" d="M240.743,94.585l-4.107-7.674-4.068,7.674H229.29l5.823-10.238-5.437-9.737h3.278l3.7,7.153,3.721-7.153h3.278l-5.437,9.737,5.842,10.238Z" transform="translate(-212.381 -74.417)" fill="#222"/>
          <path id="Path_63" data-name="Path 63" d="M240,94.594V74.6h12.031v2.719h-9.178v5.842h7.828v2.7h-7.828v6.015h9.178v2.719H240Z" transform="translate(-202.442 -74.426)" fill="#222"/>
          <path id="Path_64" data-name="Path 64" d="M256.337,94.851a6.617,6.617,0,0,1-4.955-2.14c-1.851-1.967-1.832-4.184-1.832-8.04,0-3.837-.019-6.054,1.832-8.021a6.656,6.656,0,0,1,4.955-2.14c3.47,0,6.054,2.159,6.71,6.15h-2.911c-.443-2.024-1.716-3.432-3.8-3.432a3.6,3.6,0,0,0-2.776,1.215c-.925,1.06-1.137,2.217-1.137,6.228s.212,5.167,1.137,6.228a3.662,3.662,0,0,0,2.776,1.215c2.082,0,3.393-1.407,3.837-3.432h2.873C262.41,92.691,259.749,94.851,256.337,94.851Z" transform="translate(-193.579 -74.51)" fill="#222"/>
          <path id="Path_65" data-name="Path 65" d="M266.768,94.767a6.573,6.573,0,0,1-6.748-6.9V74.6h2.854V87.711c0,2.661,1.523,4.319,3.895,4.319,2.352,0,3.914-1.658,3.914-4.319V74.6h2.854V87.846A6.6,6.6,0,0,1,266.768,94.767Z" transform="translate(-183.862 -74.426)" fill="#222"/>
          <path id="Path_66" data-name="Path 66" d="M278.25,77.319V94.594H275.4V77.319H270.21V74.6h13.226v2.719Z" transform="translate(-174.405 -74.426)" fill="#222"/>
          <path id="Path_67" data-name="Path 67" d="M280.4,94.594V74.6h2.854V94.594Z" transform="translate(-164.948 -74.426)" fill="#222"/>
          <path id="Path_68" data-name="Path 68" d="M293.276,94.594h-2.217L284.87,74.6h2.969l4.338,14.537L296.515,74.6h3.008Z" transform="translate(-160.8 -74.426)" fill="#222"/>
          <path id="Path_69" data-name="Path 69" d="M295.45,94.594V74.6h12.031v2.719H298.3v5.842h7.828v2.7H298.3v6.015h9.177v2.719H295.45Z" transform="translate(-150.981 -74.426)" fill="#222"/>
          <path id="Path_70" data-name="Path 70" d="M316.717,94.851a6.575,6.575,0,0,1-4.936-2.14c-1.851-1.967-1.832-4.184-1.832-8.04,0-3.837-.019-6.054,1.832-8.021a6.645,6.645,0,0,1,4.936-2.14c3.47,0,6.054,2.159,6.71,6.15h-2.911c-.444-2.024-1.716-3.432-3.8-3.432a3.6,3.6,0,0,0-2.776,1.215c-.926,1.06-1.138,2.217-1.138,6.228s.212,5.167,1.138,6.228a3.662,3.662,0,0,0,2.776,1.215c2.082,0,3.393-1.407,3.837-3.432h2.873C322.791,92.691,320.13,94.851,316.717,94.851Z" transform="translate(-137.525 -74.51)" fill="#222"/>
          <path id="Path_71" data-name="Path 71" d="M331.942,92.711a6.637,6.637,0,0,1-4.974,2.14,6.485,6.485,0,0,1-4.936-2.14c-1.851-1.967-1.832-4.184-1.832-8.04,0-3.837-.019-6.054,1.832-8.021a6.806,6.806,0,0,1,9.91,0c1.851,1.967,1.793,4.184,1.793,8.021C333.735,88.527,333.793,90.744,331.942,92.711Zm-2.159-14.229a3.784,3.784,0,0,0-5.591,0c-.925,1.06-1.118,2.179-1.118,6.208s.193,5.148,1.118,6.208a3.784,3.784,0,0,0,5.591,0c.925-1.06,1.118-2.2,1.118-6.208S330.708,79.542,329.782,78.482Z" transform="translate(-128.012 -74.51)" fill="#222"/>
          <path id="Path_72" data-name="Path 72" d="M337.658,94.767a6.573,6.573,0,0,1-6.748-6.9V74.6h2.854V87.711c0,2.661,1.542,4.319,3.895,4.319s3.914-1.658,3.914-4.319V74.6h2.854V87.846A6.593,6.593,0,0,1,337.658,94.767Z" transform="translate(-118.073 -74.426)" fill="#222"/>
          <path id="Path_73" data-name="Path 73" d="M353.519,94.594l-8.7-14.075V94.594H341.97V74.6h2.622l8.7,14.036V74.6h2.854V94.594Z" transform="translate(-107.808 -74.426)" fill="#222"/>
          <path id="Path_74" data-name="Path 74" d="M359.917,94.851a6.575,6.575,0,0,1-4.936-2.14c-1.851-1.967-1.832-4.184-1.832-8.04,0-3.837-.019-6.054,1.832-8.021a6.645,6.645,0,0,1,4.936-2.14c3.47,0,6.054,2.159,6.71,6.15h-2.911c-.444-2.024-1.716-3.432-3.8-3.432a3.6,3.6,0,0,0-2.776,1.215C356.215,79.5,356,80.66,356,84.671s.212,5.167,1.138,6.228a3.662,3.662,0,0,0,2.776,1.215c2.082,0,3.393-1.407,3.837-3.432h2.873C366.01,92.691,363.33,94.851,359.917,94.851Z" transform="translate(-97.433 -74.51)" fill="#222"/>
          <path id="Path_75" data-name="Path 75" d="M363.77,94.594V74.6h2.854V94.594Z" transform="translate(-87.577 -74.426)" fill="#222"/>
          <path id="Path_76" data-name="Path 76" d="M369.44,94.594V74.6h2.854V91.875h9.062v2.719Z" transform="translate(-82.315 -74.426)" fill="#222"/>
        </g>
      </g>
      <g id="Group_42" data-name="Group 42">
        <g id="Group_41" data-name="Group 41">
          <path id="Path_77" data-name="Path 77" d="M247.722,54.25a6.445,6.445,0,0,1,4.762,2.024,6.769,6.769,0,0,1,1.967,4.878v7.693c0,.366-.174.559-.54.559h-1.889a.494.494,0,0,1-.54-.559V61.152a3.693,3.693,0,0,0-1.1-2.719,3.658,3.658,0,0,0-5.3,0,3.755,3.755,0,0,0-1.1,2.719v17.14a1.515,1.515,0,0,1-1.485,1.523H228.384a8.265,8.265,0,0,1-6.17-2.622,8.771,8.771,0,0,1-2.564-6.382,9.216,9.216,0,0,1,1.33-4.82,9.051,9.051,0,0,1,3.567-3.413l.829-.424a.527.527,0,0,1,.27-.077.377.377,0,0,1,.135.019.639.639,0,0,1,.308.289l.868,1.735a.95.95,0,0,1,.058.289.473.473,0,0,1-.308.463l-.848.424a6.02,6.02,0,0,0-2.372,2.294,6.207,6.207,0,0,0-.887,3.239,5.776,5.776,0,0,0,1.7,4.2,5.5,5.5,0,0,0,4.087,1.755h12.629V61.172a6.769,6.769,0,0,1,1.967-4.878A6.38,6.38,0,0,1,247.722,54.25ZM231.816,83.807a.505.505,0,0,1,.559.578v2.237c0,.366-.193.54-.559.54H229.83a.48.48,0,0,1-.54-.54V84.385c0-.386.174-.578.54-.578Zm5.4,0c.347,0,.54.193.54.578v2.237a.472.472,0,0,1-.54.54h-1.986c-.366,0-.559-.174-.559-.54V84.385a.505.505,0,0,1,.559-.578Z" transform="translate(-219.65 -44.86)" fill="#222"/>
          <path id="Path_78" data-name="Path 78" d="M261.158,78.669h-1.35a5.784,5.784,0,0,1-4.261-1.639q-.058-.087-.174-.231c-.077-.1-.135-.174-.193-.231-1.157,1.388-2.988,2.1-5.476,2.1h-8.7a.494.494,0,0,1-.54-.559V76.182c0-.386.174-.578.54-.578h8.7a4.361,4.361,0,0,0,3.162-.906,3.637,3.637,0,0,0,.733-2.564V65.462a4.353,4.353,0,0,0-1.272-3.143,4.142,4.142,0,0,0-3.066-1.311,6.574,6.574,0,0,0-3.856.925l-.752.559a.576.576,0,0,1-.328.1h-.1a.443.443,0,0,1-.328-.231l-1.1-1.581a.464.464,0,0,1-.077-.289v-.116a.562.562,0,0,1,.212-.366l.752-.559a9.214,9.214,0,0,1,5.591-1.5,6.927,6.927,0,0,1,5.148,2.2,7.335,7.335,0,0,1,2.14,5.3v7.866a2.034,2.034,0,0,0,.578,1.5,2.788,2.788,0,0,0,2.159.771H261.2v3.085ZM247.989,53.836a.494.494,0,0,1-.54-.559V50.809c0-.366.174-.559.54-.559h1.986a.494.494,0,0,1,.54.559v2.468c0,.366-.173.559-.54.559Z" transform="translate(-200.328 -48.573)" fill="#222"/>
          <path id="Path_79" data-name="Path 79" d="M266.51,74.577h-1.388a5.892,5.892,0,0,1-4.434-1.523c-.019-.019-.039-.058-.058-.077-.019.019-.039.058-.077.1a.266.266,0,0,1-.058.077,5.013,5.013,0,0,1-3.74,1.427H250.7V71.53h6.131a2.075,2.075,0,0,0,1.581-.559,2.394,2.394,0,0,0,.54-1.735v-14c0-.386.173-.578.54-.578h1.87a.506.506,0,0,1,.559.578V69.8a1.516,1.516,0,0,0,.328,1.06,3.308,3.308,0,0,0,2.41.656h1.87v3.066Zm-9.679,3.952a.506.506,0,0,1,.559.578v2.449a.5.5,0,0,1-.559.559h-1.986a.494.494,0,0,1-.54-.559V79.108c0-.386.174-.578.54-.578Zm5.4,0a.505.505,0,0,1,.559.578v2.449a.5.5,0,0,1-.559.559h-1.967a.5.5,0,0,1-.559-.559V79.108a.506.506,0,0,1,.559-.578Z" transform="translate(-190.834 -44.48)" fill="#222"/>
          <path id="Path_80" data-name="Path 80" d="M288.255,75.623v3.046H258.39V75.623h8.753a8.747,8.747,0,0,1-2.082-5.746V66.754a8.54,8.54,0,0,1,2.506-6.208,8.34,8.34,0,0,1,12.07,0,8.54,8.54,0,0,1,2.507,6.208v8.869ZM268.03,69.877a5.557,5.557,0,0,0,1.639,4.049,5.312,5.312,0,0,0,3.933,1.7h5.572V66.754a5.618,5.618,0,0,0-1.62-4.049,5.354,5.354,0,0,0-3.952-1.7,5.271,5.271,0,0,0-3.933,1.7,5.558,5.558,0,0,0-1.639,4.049v3.123Zm4.087-16.041a.5.5,0,0,1-.559-.559V50.809a.5.5,0,0,1,.559-.559h1.967a.5.5,0,0,1,.559.559v2.468a.5.5,0,0,1-.559.559Z" transform="translate(-183.697 -48.573)" fill="#222"/>
          <path id="Path_81" data-name="Path 81" d="M288.98,78.669h-1.388a5.892,5.892,0,0,1-4.434-1.523c-.019-.019-.039-.058-.058-.077-.019.019-.039.058-.077.1a.267.267,0,0,1-.058.077,5.013,5.013,0,0,1-3.74,1.427H273.17V75.623H279.3a2.074,2.074,0,0,0,1.581-.559,2.393,2.393,0,0,0,.54-1.735v-14c0-.386.174-.578.54-.578h1.87a.505.505,0,0,1,.559.578V73.888a1.516,1.516,0,0,0,.328,1.06,3.308,3.308,0,0,0,2.41.656H289v3.066Zm-7.1-24.833a.494.494,0,0,1-.54-.559V50.809c0-.366.173-.559.54-.559h1.986a.5.5,0,0,1,.559.559v2.468a.5.5,0,0,1-.559.559Z" transform="translate(-169.981 -48.573)" fill="#222"/>
          <path id="Path_82" data-name="Path 82" d="M297.567,78.669h-1.388a5.911,5.911,0,0,1-4.454-1.523c0-.019,0-.019-.019-.039s-.019-.019-.019-.039l-.174.193h.019a4.968,4.968,0,0,1-3.721,1.427H280.87V75.642h7a2.075,2.075,0,0,0,1.581-.559,2.373,2.373,0,0,0,.559-1.735v-14q0-.578.521-.578h1.89c.347,0,.54.193.54.578V73.907a1.433,1.433,0,0,0,.347,1.06,3.223,3.223,0,0,0,2.391.656h1.89v3.046Zm-9.814-24.833a.5.5,0,0,1-.559-.559V50.809a.5.5,0,0,1,.559-.559h2.005a.494.494,0,0,1,.54.559v2.468c0,.366-.174.559-.54.559Zm5.4,0a.494.494,0,0,1-.54-.559V50.809c0-.366.174-.559.54-.559h1.967a.5.5,0,0,1,.559.559v2.468a.5.5,0,0,1-.559.559Z" transform="translate(-162.835 -48.573)" fill="#222"/>
          <path id="Path_83" data-name="Path 83" d="M298.313,49.38c.347,0,.54.193.54.578v24.2a5.261,5.261,0,0,1-1.408,3.875,5.073,5.073,0,0,1-3.74,1.427H289.02V76.411h4.7c.019.019.019.019.039.019a2.136,2.136,0,0,0,1.6-.559,2.471,2.471,0,0,0,.54-1.716v-24.2c0-.386.174-.578.54-.578Z" transform="translate(-155.271 -49.38)" fill="#222"/>
          <path id="Path_84" data-name="Path 84" d="M300.459,78.918c0,.366-.173.559-.521.559H298.03a.494.494,0,0,1-.54-.559V49.939c0-.366.173-.559.54-.559h1.909c.347,0,.521.193.521.559Z" transform="translate(-147.411 -49.38)" fill="#222"/>
          <path id="Path_85" data-name="Path 85" d="M349.809,74.567H348.44a5.709,5.709,0,0,1-4.242-1.639.417.417,0,0,1-.116-.135,2.886,2.886,0,0,1-.289.366,5.058,5.058,0,0,1-3.76,1.427h-2.005a5.892,5.892,0,0,1-4.434-1.523c-.019-.019-.039-.058-.058-.077-.058.1-.116.154-.135.193a4.968,4.968,0,0,1-3.721,1.427h-5.418a8.768,8.768,0,0,1-3.008,5.225,8.505,8.505,0,0,1-11.78-.521,8.8,8.8,0,0,1-2.564-6.382V63.1a.472.472,0,0,1,.54-.54h1.89a.48.48,0,0,1,.54.54v9.833a5.714,5.714,0,0,0,1.7,4.2,5.528,5.528,0,0,0,4.087,1.755,5.457,5.457,0,0,0,4.087-1.755,5.775,5.775,0,0,0,1.7-4.2V55.287a.505.505,0,0,1,.559-.578h1.87a.505.505,0,0,1,.559.578V71.56H329.7A2.158,2.158,0,0,0,331.339,71a2.393,2.393,0,0,0,.54-1.735v-12.9c0-.366.173-.559.54-.559h1.909c.347,0,.521.193.521.559V69.824a1.585,1.585,0,0,0,.328,1.06,3.371,3.371,0,0,0,2.41.656h2.545a2.266,2.266,0,0,0,1.658-.559,2.457,2.457,0,0,0,.521-1.735V55.229a.5.5,0,0,1,.559-.559h1.851a.5.5,0,0,1,.559.559V69.246a2.034,2.034,0,0,0,.578,1.5,2.845,2.845,0,0,0,2.159.771h1.889v3.046Z" transform="translate(-138.668 -44.471)" fill="#222"/>
          <path id="Path_86" data-name="Path 86" d="M343.457,79.467H341.9a5.834,5.834,0,0,1-4.435-1.523l-.077-.077c-.058.077-.1.135-.135.193a4.938,4.938,0,0,1-3.721,1.427H328.65V76.44h4.936a2.151,2.151,0,0,0,1.6-.559,2.394,2.394,0,0,0,.521-1.735v-24.2a.5.5,0,0,1,.559-.559h1.87a.492.492,0,0,1,.559.559V74.705a1.483,1.483,0,0,0,.328,1.06,3.223,3.223,0,0,0,2.391.656h2.063v3.046Z" transform="translate(-118.493 -49.371)" fill="#222"/>
          <path id="Path_87" data-name="Path 87" d="M364.255,74.957h-1.388a5.976,5.976,0,0,1-4.454-1.542,5.006,5.006,0,0,1-.424-.559,6.573,6.573,0,0,1-5.225,2.1H335.72V71.911h17.044a4.176,4.176,0,0,0,2.988-.964,4.294,4.294,0,0,0,.945-3.066v-4.01a6.342,6.342,0,0,0-1.87-4.627,6.053,6.053,0,0,0-4.512-1.928,7.4,7.4,0,0,0-6.478,3.1l-.559.791a.5.5,0,0,1-.4.27.484.484,0,0,1-.328-.135L341,60.227a.552.552,0,0,1-.212-.366v-.116a.71.71,0,0,1,.1-.328l.559-.79a10.154,10.154,0,0,1,8.888-4.377,8.851,8.851,0,0,1,6.613,2.815,9.432,9.432,0,0,1,2.738,6.806v6.324a1.483,1.483,0,0,0,.347,1.08,3.455,3.455,0,0,0,2.371.636h1.89v3.046ZM349.062,78.64c.347,0,.54.193.54.578v2.449c0,.366-.174.559-.54.559h-1.986a.5.5,0,0,1-.559-.559V79.218a.506.506,0,0,1,.559-.578Z" transform="translate(-111.931 -44.86)" fill="#222"/>
          <path id="Path_88" data-name="Path 88" d="M378.719,74.976h-2.468a5.679,5.679,0,0,1-4.242-1.677,6.832,6.832,0,0,1-.6-.752,8.146,8.146,0,0,1-5.861,2.41H350.01V71.91h7.018V63.041a8.584,8.584,0,0,1,2.507-6.228,8.295,8.295,0,0,1,12.031,0,8.584,8.584,0,0,1,2.507,6.228v3.1a8.954,8.954,0,0,1-.983,4.107,1.916,1.916,0,0,0,.482.868,2.845,2.845,0,0,0,2.159.771h3.008v3.085Zm-13.149-3.046a5.283,5.283,0,0,0,3.953-1.7,5.6,5.6,0,0,0,1.639-4.068v-3.1a5.6,5.6,0,0,0-1.639-4.068,5.335,5.335,0,0,0-3.953-1.677,5.263,5.263,0,0,0-3.933,1.677A5.6,5.6,0,0,0,360,63.06v8.869Z" transform="translate(-98.669 -44.879)" fill="#222"/>
          <path id="Path_89" data-name="Path 89" d="M373.683,49.38c.347,0,.54.193.54.578v24.2a5.261,5.261,0,0,1-1.408,3.875,5.073,5.073,0,0,1-3.74,1.427H364.39V76.411h4.7c.019.019.019.019.039.019a2.136,2.136,0,0,0,1.6-.559,2.471,2.471,0,0,0,.54-1.716v-24.2c0-.386.173-.578.54-.578Z" transform="translate(-85.324 -49.38)" fill="#222"/>
          <path id="Path_90" data-name="Path 90" d="M375.829,78.918c0,.366-.174.559-.521.559H373.4a.494.494,0,0,1-.54-.559V49.939c0-.366.173-.559.54-.559h1.909c.347,0,.521.193.521.559Z" transform="translate(-77.464 -49.38)" fill="#222"/>
        </g>
      </g>
    </g>
  </g>
</svg>
