<svg xmlns="http://www.w3.org/2000/svg" width="489" height="83.139" viewBox="0 0 489 83.139">
  <g id="Group_277" data-name="Group 277" transform="translate(-100 -42.133)">
    <g id="Group_38" data-name="Group 38" transform="translate(100 42.133)">
      <g id="Group_35" data-name="Group 35" transform="translate(0.143)">
        <g id="Group_1" data-name="Group 1" transform="translate(123.946)">
          <path id="Path_4" data-name="Path 4" d="M160.186,64.451a74.225,74.225,0,0,0-9.267-2.519c-3.032-.466-6.2.264-7.494,3.358a7.11,7.11,0,0,0-.466,4.494c.451,1.524,1.182,3.016,1.757,4.494a5.083,5.083,0,0,1-3.187-1.912,22,22,0,0,1-2.97-3.809c-1.71-2.69-3.654-5.209-5.442-7.852a47.392,47.392,0,0,0-5.566-6.872c-1.119-1.119-2.239-2.223-3.358-3.327-.233-.233-1.182-.886-1.213-1.151-.062-.482.855-1.026,1.151-1.244,4.7-3.607,10.2-6.017,15.657-8.287,2.721-1.135,5.52-2.037,8.225-3.172.855-.358,7.277-2.223,6.561.28a9.519,9.519,0,0,1-1.477,2.1c-.4.56-.824,1.119-1.259,1.664-.855,1.057-1.6,2.192-2.426,3.281a16.7,16.7,0,0,0-2.146,3.763c-.4.964-1.228,2.876-.809,3.918a11.258,11.258,0,0,0,1.259-2.286c.42-.762.855-1.508,1.337-2.223,1.881-2.83,4.2-5.38,5.815-8.381.715-1.306,1.679-3.141,1.446-4.665-.264-1.8-1.757-2.379-3.421-2.255a32.521,32.521,0,0,0-10.153,3.079c-3.405,1.539-6.872,2.954-10.231,4.6a57.056,57.056,0,0,0-8.754,5.084c-1.119.824-2.379,1.9-2.5,3.374-.124,1.462-.264,3.327.684,4.525,2.1,2.674,4.338,5.24,6.375,7.961,1.944,2.6,4.136,5.489,5.022,8.661.264.964.3,1.259-.622,1.71-.777.373-1.555.746-2.348,1.073-.56.233-.5.264-.855-.109-.264-.28-.466-.622-.7-.9a7.671,7.671,0,0,0-1.617-1.555c-1.337-.964-2.845-1.57-4.323-.529a6.012,6.012,0,0,0-2.239,3.84c-.327,1.524-.715,3.343.917,4.26,1.493.84,3.343.342,4.882-.031.669-.155,1.928-1.026,2.084.047.109.684-.513,1.166-.948,1.6a40.4,40.4,0,0,1-3.934,3.358c-2.581,2.006-5.24,4.058-8.521,4.773a5.083,5.083,0,0,1-4.385-.684,4.388,4.388,0,0,1-1.586-4.043,9.572,9.572,0,0,1,.513-2.721c.093-.3.669-1.741.264-1.928-.809-.358-1.648,3.716-1.71,4.2-.435,2.908-.124,6.966,2.8,8.49,2.8,1.462,6.437-.155,8.816-1.757,1.43-.964,2.721-2.115,4.074-3.187a29.817,29.817,0,0,0,3.514-3.2,10.041,10.041,0,0,0,2.332-4.462,4.716,4.716,0,0,1,.591-1.835,4.529,4.529,0,0,1,1.477-.731,4.108,4.108,0,0,0,2.721-3.094,15.234,15.234,0,0,0,.389-2.5c.016-.311-.2-2.068.016-2.146A95.387,95.387,0,0,0,141,76.1a6.274,6.274,0,0,0,3.265,1.9,6.432,6.432,0,0,1,1.275.2c.311.187.218.622.264,1.011.093.715.451.809.669.109.124-.42.14-.948.482-1.151a3.451,3.451,0,0,1,1.073-.187,11.048,11.048,0,0,0,2.363-.637c1.57-.622,3.125-1.306,4.649-2.052,2.861-1.4,5.66-3,8.6-4.214a20.04,20.04,0,0,1,2.472-.824,12.931,12.931,0,0,0,2.13-.389c.5-.233.575-.964.731-1.446.233-.684.5-1.368.669-2.068A56.874,56.874,0,0,1,160.186,64.451Zm-36.57,8.972c-.575.047-1.462.14-1.073-.653.746-1.524,2.861-.622,3.747.233A25.208,25.208,0,0,1,123.615,73.423Zm28.407-.2a21.23,21.23,0,0,1-2.908.964,11.9,11.9,0,0,1-1.462.233c-.513.047-.715.14-.9-.14-.016-.155-.031-.28-.031-.342-.047-.342-.653-2.566-.653-2.566-.28-.871-.669-1.726-1.011-2.566-.28-.7-1.011-1.617-.373-2.223a5.131,5.131,0,0,1,2.3-1.011c1.912-.482,3.84.093,5.691.591s3.685,1.151,5.551,1.555a35.914,35.914,0,0,1,3.654.933C158.615,70.251,155.381,71.914,152.023,73.221Z" transform="translate(-108.048 -31.83)" fill="#ea0029"/>
        </g>
        <g id="Group_2" data-name="Group 2" transform="translate(0 1.475)">
          <path id="Path_5" data-name="Path 5" d="M77.462,74.793a14.258,14.258,0,0,0,2.379-1.679,16.329,16.329,0,0,1,2.192-2.084c.948-.637.948-.249,1.213.622a3.619,3.619,0,0,0,3.98,2.69c2.037-.218,3.576-1.384,5.209-2.472.622,1.555,1.182,3.3,2.566,4.369,1.213.933,2.923.7,4.291.311a8.46,8.46,0,0,0,3.949-2.13,9.131,9.131,0,0,0,1.726-3.9c.731-3.141.062-6.422-.4-9.531-.5-3.343-1.057-6.686-1.586-10.013-.264-1.695-.544-3.39-.793-5.084-.233-1.555-.637-3.079-.84-4.618.435.264,1.182,1.726,1.8,1.368.622-.342-.2-1.835-.373-2.286-.669-1.819-1.384-3.638-2.13-5.426-.155-.373-.606-2.223-1.259-2.146-.358.047-.84,2.146-.948,2.472a1.963,1.963,0,0,0-.218,1.1,9.119,9.119,0,0,1,.4,1.353c.109,1.011.233,2.006.389,3,1.151,7.277,2.441,14.538,3.576,21.83.28,1.8.575,3.607.793,5.426a12.174,12.174,0,0,1,.187,2.6c-.078.622-.591.964-1.12,1.244a11.842,11.842,0,0,1-4.9,1.4,3.1,3.1,0,0,1-2.161-.7c-.311-.249-1.353-1.228-1.291-1.664.016-.171.684-.529.824-.653a4.033,4.033,0,0,0,.653-.793,11.568,11.568,0,0,0,1.011-2.068,7.934,7.934,0,0,0,.233-4.8c-.358-1.135-1.166-3.374-2.363-3.872-1.446-.606-2.814,1.151-3.265,2.286a10.06,10.06,0,0,0-.591,4.929,19.992,19.992,0,0,0,.606,2.488c.14.482.358.731.031,1.1a2.881,2.881,0,0,1-.917.482c-1.306.606-3.032,1.182-4.462.591-1.524-.637-1.85-2.146-1.959-3.623-1.819.28-2.908,2.161-4.291,3.25a10.757,10.757,0,0,1-2.223,1.322c-.389.171-.948.482-1.228.233-.249-.218-.435-.84-.653-1.135-.933-1.306-2.255-2.861-4.012-2.845-1.773,0-3,1.773-3.607,3.234-.575,1.43-1.042,3.358.171,4.618,1.135,1.2,3.11.933,4.556.684.482-.078.964-.171,1.446-.264s.793-.311,1.042.093c.3.482-.016.84-.342,1.166a23.026,23.026,0,0,1-3.918,3.25c-3.84,2.6-14.429,10.231-16.9,2.239-.482-1.57.031-3.3.466-4.836a6.354,6.354,0,0,1,.98-2.223,7.842,7.842,0,0,1,1.6-1.135,46.568,46.568,0,0,0,4.338-3.467,24.3,24.3,0,0,0,1.726-1.85,3.316,3.316,0,0,0,.917-1.881,17,17,0,0,0,.047-5.178c-.093-.84-.435-1.695-.482-2.519-.031-.56,0-.435.529-.637a4.932,4.932,0,0,0,.762-.373c1.275-.793,1.85-2.192,2.83-3.265.28-.311,1.244-1.166,1.679-.653.28.342-.047,1.306.14,1.773,1.042-.777,1.524-3.374,1.073-4.54-.731-1.866-2.348-.824-3.234.311-1.011,1.275-1.881,2.845-3.53,3.327a2.8,2.8,0,0,1-2.441-.14,19.128,19.128,0,0,1-1.555-1.788,14.909,14.909,0,0,0-.622,3c-.14.948.653,1.586,1.228,2.286a11.548,11.548,0,0,1,2.441,5.4c.109.622.373,1.462.047,2.037a6.877,6.877,0,0,1-1.695,1.586A52.273,52.273,0,0,1,56.6,71.388a34.218,34.218,0,0,1-9.531,4.54c-3.327.886-7.557,2.13-10.915.684a10.6,10.6,0,0,1-3.825-2.55,10.669,10.669,0,0,1-2.13-4.151,16.041,16.041,0,0,1-.529-5.3,13,13,0,0,1,.466-2.8c.14-.529.047-1.944-.575-.948-.855,1.368-.9,3.5-1.1,5.053A19.759,19.759,0,0,0,28.64,71.5a11.429,11.429,0,0,0,5.084,8.023c3.156,1.975,7.106,1.57,10.573.855a36.593,36.593,0,0,0,9.36-3.607,6.048,6.048,0,0,1-.42,1.679c-.155.606-.311,1.213-.42,1.819a14.217,14.217,0,0,0-.2,3.98c.218,2.13,1.244,4.494,3.312,5.426,1.773.809,4.151.3,5.862-.4a35.034,35.034,0,0,0,5.737-3.063,33.735,33.735,0,0,0,5.084-3.949,11.194,11.194,0,0,0,3.5-4.9C76.421,76.3,76.576,75.353,77.462,74.793ZM93.68,62.323A6.188,6.188,0,0,1,95.592,65.7c.031.933-1.866,1.99-2.6,2.457-.264-.746-.482-1.477-.7-2.239a10.608,10.608,0,0,1-.575-2.052C91.674,62.992,92.793,61.872,93.68,62.323ZM69.268,72.4c.855-1.6,2.581-.653,3.607.218A6.34,6.34,0,0,1,69.268,72.4Z" transform="translate(-28.332 -32.778)" fill="#ea0029"/>
        </g>
        <g id="Group_3" data-name="Group 3" transform="translate(56.417 33.869)">
          <path id="Path_6" data-name="Path 6" d="M86.39,73.931a105.641,105.641,0,0,0,9.422-5.955,14.819,14.819,0,0,0,3.421-3.187,19.157,19.157,0,0,0,1.493-2.488,4.861,4.861,0,0,1,1.213-1.819c.187.42.14.637.482.948a4.364,4.364,0,0,0,1.166.669,20.491,20.491,0,0,0,2.861.933c.218.062.466.093.669.171.5.218.233.031.42.42a7.861,7.861,0,0,1,.342,1.617,12.167,12.167,0,0,0,.964,2.923,8.15,8.15,0,0,0,2.845,3.576c1.819,1.135,2.876.093,3.638-1.648,1.306-2.985,2.161-7.308,5.458-8.847.809-.373,1.4-.513,1.928.233.5.7.9,1.462,1.4,2.161.917,1.275,2.192,2.752,3.825,3a5.458,5.458,0,0,0,4.7-1.244,6.964,6.964,0,0,0,1.322-1.881c.28-.544.435-1.462.948-1.819.2.544.264.84.777,1.166a7.713,7.713,0,0,0,1.71.777,16.958,16.958,0,0,0,4.307.964c.9.062,1.042.031,1.446-.824a5.308,5.308,0,0,0,.56-3.545A12.01,12.01,0,0,0,142.38,56.8c-.42-.809-1.057-1.85-2.052-1.944a4.374,4.374,0,0,0-3.265,1.555c-.327.358-.544.824-.871,1.166s-.762.529-1.073.886c-.746.855-.948,2.052-1.726,2.908a5.486,5.486,0,0,1-6.188,1.166,9.353,9.353,0,0,1-2.363-2.394c-.42-.575-.824-1.2-1.213-1.8-.264-.4-.482-.933-.964-1.1-.824-.311-1.912.358-2.534.809-1.959,1.415-3.079,3.7-3.934,5.908-.606,1.555-1.57,5.038-3.856,4.665-2.3-.358-3-3.3-3.654-5.1.373-.062.809,0,1.1-.249a3.411,3.411,0,0,0,.544-1.119,5.006,5.006,0,0,0,.466-3c-.264-1.664-1.135-4.027-2.488-5.115-1.353-1.073-3.327.14-4.291,1.244-.28.327-.482.731-.777,1.042-.264.3-.637.451-.917.731a12.21,12.21,0,0,0-1.539,2.472,12.773,12.773,0,0,1-3.265,3.856c-1.477,1.119-3.016,2.208-4.571,3.2A95.754,95.754,0,0,1,83.14,72c-3.467,1.648-6.841,3.452-10.371,4.976-1.741.762-3.514,1.462-5.271,2.192a9.6,9.6,0,0,0-2.643,1.151c-.669.653.218.622.809.513,3.638-.622,7.246-1.586,10.806-2.566a32.394,32.394,0,0,0,5.084-1.664C83.218,75.843,84.788,74.864,86.39,73.931ZM140.9,60.668a5.023,5.023,0,0,1-1.71-.42,7.3,7.3,0,0,1-1.773-.715C138.384,57.916,140.748,59.035,140.9,60.668ZM106.448,57.6a2.358,2.358,0,0,1,1.493,1.835,20.185,20.185,0,0,1-3.53-1.1A1.662,1.662,0,0,1,106.448,57.6Z" transform="translate(-64.616 -53.612)" fill="#ea0029"/>
        </g>
        <g id="Group_4" data-name="Group 4" transform="translate(99.812 1.416)">
          <path id="Path_7" data-name="Path 7" d="M93.216,39.55c.109,1.306.311,2.612.5,3.9.435,3.016.871,6.017,1.384,9.018a178.579,178.579,0,0,1,2.566,18.363c.093,1.462.14,2.923.124,4.385,0,.4-.233,1.322-.016,1.664.264.435.529.233.715-.109,1.322-2.363,1.057-5.6,1.026-8.194-.078-6.064-1.353-12.143-2.394-18.1,2.892-1.866,5.955-3.576,8.458-5.986.544-.513.98-1.415,1.555-1.85.451-.342.746-.093,1.291.062.793.218,1.43.513,1.959-.311a4.317,4.317,0,0,0,.606-1.944c.047-1.384-1.555-2.628-2.394-3.561-.7-.777-1.99-2.146-2.737-.669-.358.731-.233,1.508-.513,2.223a6.093,6.093,0,0,0-.669,1.959c-.109,1.353.84,1.291,1.819,1.835a60.966,60.966,0,0,1-4.742,3.965c-.871.653-1.741,1.275-2.628,1.912a14.392,14.392,0,0,1-2.208,1.539c-.482-3.048-1.322-6.173-1.415-9.267.466.311.948,1.617,1.555,1.633.7,0,.358-.917.187-1.353-.513-1.368-1.2-2.643-1.679-4.027-.264-.762-.56-1.493-.9-2.239-.171-.373-.3-1.353-.684-1.586-.529-.311-.575.389-.715.793a17.34,17.34,0,0,0-.7,2.27c-.14.7.14,1.057.358,1.71A6.953,6.953,0,0,1,93.216,39.55Zm15.378-.466a4.058,4.058,0,0,1,1.43,1.8c-.669.249-1.275-.155-1.866-.435C108.3,40,108.454,39.535,108.594,39.084Zm-2.41-.264c.544-.435.964-.622,1.353.062a1.635,1.635,0,0,1,.187,1.508C106.853,40.343,104.893,39.861,106.184,38.819Z" transform="translate(-92.526 -32.74)" fill="#ea0029"/>
        </g>
        <g id="Group_5" data-name="Group 5" transform="translate(79.294 1.662)">
          <path id="Path_8" data-name="Path 8" d="M79.905,37.457a4.456,4.456,0,0,1,.171,1.2c.078.871.171,1.71.327,2.566.777,4.1,1.228,8.3,1.8,12.439.575,4.089,1.415,8.194,1.71,12.314.14,1.975.373,3.934.358,5.924a23.717,23.717,0,0,1-.155,3.156c-.093.684-.56,1.819-.093,2.457a8.954,8.954,0,0,0,1.8-3.98,17.982,17.982,0,0,0,.373-4.183,62.538,62.538,0,0,0-.886-9.469c-.933-6.344-2.068-12.672-2.861-19.047.4-.14.964,2.115,1.695,1.741.715-.373-.109-2.084-.264-2.55-.746-2.161-1.695-4.245-2.612-6.344-.171-.373-.264-.98-.793-.715-.28.14-.311.435-.389.715a7.729,7.729,0,0,0-.746,2.768C79.439,36.866,79.765,37.068,79.905,37.457Z" transform="translate(-79.33 -32.898)" fill="#ea0029"/>
        </g>
        <g id="Group_6" data-name="Group 6" transform="translate(41.207 6.252)">
          <path id="Path_9" data-name="Path 9" d="M57.3,43.764c.855-.2,1.695-.373,2.566-.529a8.168,8.168,0,0,0,3.98-1.71A10.929,10.929,0,0,0,66.6,37.731c.171-.4.529-1.368.124-1.726-.358-.3-1.773-.078-2.208-.078-1.726-.016-3.467,0-5.193-.062-1.633-.047-1.881,1.057-2.5,2.379-.124.264-.933,1.633-.358,1.57.155-.016.4-.327.606-.4a3.467,3.467,0,0,1,1.135-.047c1.726-.016,3.436,0,5.162,0,.249.373-4.074,2.13-4.525,2.348-.824.389-1.679.731-2.519,1.1-.327.14-1.959.731-1.353,1.291C55.388,44.495,56.818,43.873,57.3,43.764Z" transform="translate(-54.834 -35.85)" fill="#ea0029"/>
        </g>
        <g id="Group_7" data-name="Group 7" transform="translate(159.448 13.006)">
          <path id="Path_10" data-name="Path 10" d="M147.19,44.914a12.042,12.042,0,0,1-3.592,3.327A36.532,36.532,0,0,1,139.23,50.7c-1.43.7-2.752,1.57-4.151,2.317-.824.435-1.633.886-2.457,1.306-.544.3-1.477.56-1.741,1.182,2.581-.4,5.022-1.9,7.323-3.094,2.255-1.182,4.758-2.006,6.67-3.763a16.5,16.5,0,0,0,2.534-2.674c.28-.42.373-.824.917-.56a1.763,1.763,0,0,1,.715,1.026c.156.933-.777,2.286-1.151,3.11a21.214,21.214,0,0,0-1.291,3.2,6.413,6.413,0,0,0-.233,3.623,1.247,1.247,0,0,0,2.006.606c.5-.435,1.664-2.146,1.306-2.876-.28-.575-.544-.031-.762.3-.233.358-.5.777-.964.746-1.306-.078-.933-1.975-.653-2.705.435-1.1,1.026-2.13,1.477-3.219a10.782,10.782,0,0,0,1.073-3.638c.016-1.12-1.166-1.306-1.353-2.177-.093-.42.124-.933.078-1.384A2.6,2.6,0,0,0,148,40.607c-.637-.746-1.555-.373-2.177.264a3.186,3.186,0,0,0-.84,2.534C145.2,44.324,146.429,44.635,147.19,44.914Zm-.886-3.032c.933-.56,1.415.746,1.446,1.508C147.144,43.3,145.076,42.613,146.3,41.882Z" transform="translate(-130.88 -40.194)" fill="#ea0029"/>
        </g>
        <g id="Group_8" data-name="Group 8" transform="translate(121.447 0.018)">
          <path id="Path_11" data-name="Path 11" d="M135.2,35.042a31.306,31.306,0,0,0,3.327-1.617c.513-.311,1.275-1.912.187-1.524a35.33,35.33,0,0,0-3.405,1.757c-1.1.529-2.208,1.057-3.281,1.633-4.665,2.426-9.345,4.773-13.994,7.246-2.192,1.166-4.322,2.426-6.422,3.732-1.213.762-2.441,1.524-3.623,2.348a5.091,5.091,0,0,0-1.368,1.026,3.7,3.7,0,0,0-.187,1.555,168.305,168.305,0,0,1,14.88-9.018C125.938,39.8,130.463,37.188,135.2,35.042Z" transform="translate(-106.44 -31.841)" fill="#ea0029"/>
        </g>
        <g id="Group_9" data-name="Group 9" transform="translate(59.637 4.556)">
          <path id="Path_12" data-name="Path 12" d="M67.018,38.709c.622.622,2.97,1.679,2.721,2.628-.2.746-.964,1.368-1.12,2.13-.124.622.233.715.731,1.073.684.482,1.337,1,2.006,1.508.513.389.964,1.011,1.508.451a6.587,6.587,0,0,0,1.026-1.9c.373-.855.435-1.073-.311-1.633-.653-.5-1.322-.964-1.99-1.462-.389-.3-.637-.4-.637-.871a8.988,8.988,0,0,1,.917-2.115c.124-.342.451-.917.264-1.291-.218-.42-1.1-.824-1.477-1.073-.715-.466-1.446-.917-2.177-1.4a14.57,14.57,0,0,0-1.182,2.1,5.249,5.249,0,0,0-.591,1.182C66.645,38.492,66.723,38.4,67.018,38.709Z" transform="translate(-66.687 -34.76)" fill="#ea0029"/>
        </g>
        <g id="Group_10" data-name="Group 10" transform="translate(148.701 11.503)">
          <path id="Path_13" data-name="Path 13" d="M136.006,45.357c1.788-1.151.591-3.576-1.259-3.669a9.955,9.955,0,0,0-2.892.7c-.575.14-2.659.84-3.079.28a7.308,7.308,0,0,1,2.752-1.757c.482-.109.42,0,.793.171.218.093.047.249.28.187.109-.031.28-.42.311-.482.342-.7.233-1.493-.731-1.555a4.26,4.26,0,0,0-2.426,1.182,4.442,4.442,0,0,0-1.9,2.581c-.187,1.135.451,1.493,1.555,1.353a21.373,21.373,0,0,0,3.53-.777c1.073-.311,1.99-.606,2.705.482-3.545,1.322-7.712,2.845-11.553,2.363-.7.762,1.695,1.306,2.146,1.322a11.824,11.824,0,0,0,3.3-.4c1.12-.264,2.223-.591,3.312-.933A12.97,12.97,0,0,0,136.006,45.357Z" transform="translate(-123.968 -39.228)" fill="#ea0029"/>
        </g>
        <g id="Group_11" data-name="Group 11" transform="translate(45.93 50.626)">
          <path id="Path_14" data-name="Path 14" d="M69.111,66.8c-.218-.451-1.322-.964-1.726-1.213-.451-.3-1.43-1.166-1.975-1.2-.56-.031-.917.684-1.135,1.073-.218.4-.653,1.71-1.088,1.85-.4.14-1.322-.669-1.648-.871-.4-.233-1.741-1.119-2.052-.917-.4.264-.715,1.368-.964,1.8a7.06,7.06,0,0,0-.466.824c-.171.358-.3.451-.031.746a7.593,7.593,0,0,0,1.679.917,7.287,7.287,0,0,0,1.835,1.057c.948.14,1.695-2.192,2.052-2.908a6.075,6.075,0,0,1,2.068,1.057c.249.155,1.508,1.228,1.757,1.182.42-.078.917-1.43,1.1-1.8C68.706,68.06,69.3,67.189,69.111,66.8Z" transform="translate(-57.872 -64.389)" fill="#ea0029"/>
        </g>
        <g id="Group_12" data-name="Group 12" transform="translate(27.486 45.091)">
          <path id="Path_15" data-name="Path 15" d="M53.458,61.25a5.779,5.779,0,0,0-.746-.42c-.684-.016-1.462,2.908-1.679,3.436-.777-.327-1.539-.653-2.317-.98a5.218,5.218,0,0,0-1.011-.435c-.435-.062-.249-.171-.544.218a8.888,8.888,0,0,0-.84,2.052c-.171.435-.513.871-.155,1.259a6.349,6.349,0,0,0,1.881.793c.482.2,1.726.933,2.13.762.342-.155.606-1.119.746-1.43.28-.637.529-1.275.777-1.928.731.389,1.446.762,2.177,1.151a6.149,6.149,0,0,0,.948.5c.451.14.389.155.669-.264.435-.669,1.539-2.41.933-3.156a6.856,6.856,0,0,0-1.944-1.042C54.127,61.592,53.785,61.436,53.458,61.25Z" transform="translate(-46.009 -60.83)" fill="#ea0029"/>
        </g>
        <g id="Group_13" data-name="Group 13" transform="translate(109.104 23.134)">
          <path id="Path_16" data-name="Path 16" d="M105.527,46.711c-.311.047-.746,1.415-.886,1.71-.218.435-.389,1.151-.948,1.259-.637-.358-3.374-2.286-3.856-1.912-.373.28-.653,1.43-.824,1.85-.14.311-.591,1.026-.5,1.4s1.306.793,1.633.98a10.282,10.282,0,0,0,1.975,1.166c.435.124.389.249.715-.249a5.166,5.166,0,0,0,.358-.793c.264-.653.56-1.291.84-1.928.715.466,1.415.933,2.13,1.4.435.28,1.275,1.1,1.695.793.42-.3.669-1.384.917-1.835.327-.606.715-1.057.218-1.617a7.2,7.2,0,0,0-1.664-1.228C106.973,47.535,105.916,46.649,105.527,46.711Z" transform="translate(-98.502 -46.708)" fill="#ea0029"/>
        </g>
        <g id="Group_14" data-name="Group 14" transform="translate(1.753 14.663)">
          <path id="Path_17" data-name="Path 17" d="M30.5,55.3c1.322,1,2.457-.84,2.83-1.9.155-.42.669-1.741.373-2.146-.451-.637-.824.435-1.073.762-.513.669-1.011.637-1.4-.109a3.225,3.225,0,0,1,.016-2.379,45.028,45.028,0,0,1,1.85-4.68c.327-.762.606-1.539.871-2.332.155-.482.575-1.166-.14-1.259-1.446,3.094-3.281,6.219-4.089,9.547C29.383,52.253,29.134,54.259,30.5,55.3Z" transform="translate(-29.459 -41.26)" fill="#ea0029"/>
        </g>
        <g id="Group_15" data-name="Group 15" transform="translate(126.901 17.22)">
          <path id="Path_18" data-name="Path 18" d="M111.211,47.1a3.978,3.978,0,0,1,1.322-.746c.917-.3,1.975-.093,1.975-1.4,0-.809-1.1-1.57-1.788-1.881-1.166-.529-2.1.28-2.1,1.555,0,.513.062.591.5.28.466-.342.731-.653,1.259-.124a4.4,4.4,0,0,0-2.286,2.239c-.42,1.259.171,2.286.622,3.421a26.862,26.862,0,0,1,1.368,4.089,10.956,10.956,0,0,1,.062,3.7c1.026-.233.855-2.037.855-2.8a12.087,12.087,0,0,0-.544-3.716,30.378,30.378,0,0,0-1.462-3.514C110.775,47.64,110.729,47.5,111.211,47.1Z" transform="translate(-109.948 -42.904)" fill="#ea0029"/>
        </g>
        <g id="Group_16" data-name="Group 16" transform="translate(88.024 23.842)">
          <path id="Path_19" data-name="Path 19" d="M85,56.316c.513-.2,1.151-1.042,1.633-1.384.544-.373,1.1-.731,1.679-1.057,1.228-.7,2.457-1.4,3.685-2.068,1.353-.731,2.705-1.462,4.074-2.177a6.118,6.118,0,0,0,1.9-1.119c.187-.233.606-1.073.327-1.306-.389-.342-3.265,1.539-3.747,1.788-1.322.7-2.659,1.4-3.98,2.115-1.291.7-2.519,1.493-3.763,2.27C85.731,54.062,84.689,54.87,85,56.316Z" transform="translate(-84.944 -47.163)" fill="#ea0029"/>
        </g>
        <g id="Group_17" data-name="Group 17" transform="translate(92.36 15.782)">
          <path id="Path_20" data-name="Path 20" d="M92.611,42.26c-.56,1.2.482,2.566,1.088,3.5-1.026.637-1.679-.109-1.975-1.073-.155-.482-.513-2.348-1.182-2.332a6.125,6.125,0,0,0,.373,2.8c.218.809.14,1.57-.793,1.85-1.8.529-.933-2.954-1.8-3.545-.482-.327-.482.016-.529.435a2.464,2.464,0,0,0-.031.824c.078.264.155.124.3.342.435.715.3,1.726.575,2.519a1.319,1.319,0,0,0,1.726.964c.9-.358.715-1.228,1.337-1.757.56.762,1.477,1.43,2.394.669a2.391,2.391,0,0,0,.622-1.493,2.274,2.274,0,0,0-.544-1.664,8.706,8.706,0,0,1-.948-1.648C93.03,42.213,92.922,41.622,92.611,42.26Z" transform="translate(-87.733 -41.98)" fill="#ea0029"/>
        </g>
        <g id="Group_18" data-name="Group 18" transform="translate(168.901 46.566)">
          <path id="Path_21" data-name="Path 21" d="M144.392,65.155a14.11,14.11,0,0,1-4.385,1.9c-.435.124-1.462.513-1.679-.078-.14-.389.715-1.368.933-1.726.435-.715,1.617-2.519.731-3.141a2.535,2.535,0,0,0-2.223-.14c-.7.28-.809.964-.809,1.679.715-.14,1.912-.591,2.5.047-.746,1.213-1.788,2.488-1.928,3.965a1.386,1.386,0,0,0,.109.84c.311.793,1.6.622,2.612.249a.9.9,0,0,0,.264-.093h.016a9.471,9.471,0,0,0,2.021-1.1,15.544,15.544,0,0,0,1.664-1.119c.28-.233,1.43-1.182,1.446-1.586C145.7,63.958,144.579,65.03,144.392,65.155Z" transform="translate(-136.96 -61.779)" fill="#ea0029"/>
        </g>
        <g id="Group_19" data-name="Group 19" transform="translate(49.697 16.066)">
          <path id="Path_22" data-name="Path 22" d="M60.614,44.553a1.693,1.693,0,0,0,.171,2.177,4.983,4.983,0,0,0,1.57.482c.109.016.358-.187.389-.187.171.062.327.327.451.451a8.869,8.869,0,0,1,.9,1.259,7.432,7.432,0,0,0,.684,1.306c.855.855.762-1.617.793-2.084a10.975,10.975,0,0,1,.435-3.5c.5-1.166,1.259-.358,1.85.311,1.135-1.477-.948-3.685-2.052-2.006a6.277,6.277,0,0,0-.669,2.783c-.031.358.031,2.348-.233,2.426a10.325,10.325,0,0,0-1.695-2.457C62.729,45.02,61.376,43.931,60.614,44.553Z" transform="translate(-60.295 -42.162)" fill="#ea0029"/>
        </g>
        <g id="Group_20" data-name="Group 20" transform="translate(90.494 1.865)">
          <path id="Path_23" data-name="Path 23" d="M90.618,37.788c.684-.342,1.368-.653,2.052-.98.669-.327.746-.7,1.088-1.384-.513-.529-1.881.482-2.394.715-.948.42-2.177-.124-3.048-.637.218-.3,1.011-.948,1.43-.886.4.047.249.373.5.591.4.358.622-.233.746-.653.171-.56.093-1.306-.575-1.493-.98-.264-2.348,1.151-2.768,1.912a2.349,2.349,0,0,0-.342,1.57c.14.513.715.7,1.151.917-1.1.669-2.037,1.042-1.912,2.566C87.943,39.436,89.265,38.472,90.618,37.788Z" transform="translate(-86.533 -33.029)" fill="#ea0029"/>
        </g>
        <g id="Group_21" data-name="Group 21" transform="translate(24.157 9.166)">
          <path id="Path_24" data-name="Path 24" d="M45.286,42.3c.529.171.669.342.98-.109a14.659,14.659,0,0,1,1.866,2.6c.109.187.389.793.684.715.249-.062.3-1.1.311-1.244.078-.84-.777-4.882.482-4.851.342,0,.886.591,1.088.529.28-.093.249-.7.249-.933a.836.836,0,0,0-.591-.964c-.358-.171-.84-.466-1.228-.233-.622.373-.684,2.021-.684,2.628-.016,1,.124,1.99.2,2.985-.187.047-1.228-1.866-1.446-2.146a4.48,4.48,0,0,0-2.255-1.508,1.5,1.5,0,0,0-.684-.14c-.373.093-.28.155-.311.575-.031.435-.2,1.135.078,1.524C44.275,42.1,44.9,42.164,45.286,42.3Z" transform="translate(-43.868 -37.725)" fill="#ea0029"/>
        </g>
        <g id="Group_22" data-name="Group 22" transform="translate(124.286 1.688)">
          <path id="Path_25" data-name="Path 25" d="M109.454,37.059a3.554,3.554,0,0,0,.793.249c.078-.031.187-.435.218-.513a9.348,9.348,0,0,1,1.57,1.757c.233.373.575,1.648,1.042,1.757.435-.5.342-1.306.373-1.928.031-.746.047-1.477.078-2.223.016-.513.031-1.4.684-1.57.466-.124.84.373,1.259.529.078-.715.342-1.43-.3-1.912a1.051,1.051,0,0,0-1.477.031c-1.135,1.2-.327,3.374-.809,4.758-.762-1.4-1.944-3.327-3.732-3.5-.669-.062-.746.218-.84.824a2.208,2.208,0,0,0,.093,1.306C108.6,36.919,109.127,36.965,109.454,37.059Z" transform="translate(-108.266 -32.915)" fill="#ea0029"/>
        </g>
        <g id="Group_23" data-name="Group 23" transform="translate(132.139 25.436)">
          <path id="Path_26" data-name="Path 26" d="M115.981,50.274c-.42-.42-1.555-1.337-2.192-1.073-.622.249-.575,1.648-.171,2.115a2.9,2.9,0,0,0,1.166.56,3.556,3.556,0,0,1,.358.155c.047-.047.078-.109.124-.155.187.016.031-.155.327-.031.7.311,1.057,1.773,1.384,2.394.622,1.182.793-.3.871-.948.124-.933-.078-2.068.42-2.908.482-.809,1.151-.544,1.524.187a1.886,1.886,0,0,0,.311-1.835,1.205,1.205,0,0,0-1.633-.373c-1.259.809-.9,2.939-1.166,4.183A7.9,7.9,0,0,0,115.981,50.274Z" transform="translate(-113.317 -48.188)" fill="#ea0029"/>
        </g>
        <g id="Group_24" data-name="Group 24" transform="translate(6.853 34.876)">
          <path id="Path_27" data-name="Path 27" d="M35.182,60.153a2.655,2.655,0,0,0,1.291-1.182,2.52,2.52,0,0,0,.093-2.115c-.42-.606-1.322-.684-1.881-1.057-.466-.311-.358-.233-.327-.824.031-.513.187-.669-.358-.715a10.593,10.593,0,0,0-1.259,4.633C32.756,60.495,33.875,60.821,35.182,60.153Zm-1.508-3.016c.606.233,1.2.482,1.8.715-.389.327-1.166.933-1.726.715C33.067,58.334,33.5,57.6,33.673,57.136Z" transform="translate(-32.739 -54.26)" fill="#ea0029"/>
        </g>
        <g id="Group_25" data-name="Group 25" transform="translate(62.277 46.988)">
          <path id="Path_28" data-name="Path 28" d="M71.129,64.1c.264-.482,1.353-1.928.389-2.052-1.135,1.959-2.83,3.685-3.11,6.033-.093.809.062,2.317,1.042,2.566.9.233,1.57-.964,1.881-1.617.14-.3.575-1.057.466-1.384-.218-.777-.56.171-.746.482-.731,1.2-1.555.187-1.477-.886C69.652,66.186,70.632,65,71.129,64.1Z" transform="translate(-68.385 -62.05)" fill="#ea0029"/>
        </g>
        <g id="Group_26" data-name="Group 26" transform="translate(150.107 46.656)">
          <path id="Path_29" data-name="Path 29" d="M127.232,63.21c-.4-.482-1.259-1.462-1.975-1.368a3.9,3.9,0,0,0-.373,1.415c.078.373.544.575.809.793a4.554,4.554,0,0,1,1.493,1.975,6.494,6.494,0,0,1,.264,2.985c-.109.84-.606,1.726-.451,2.566a6.423,6.423,0,0,0,1.088-2.861,10.125,10.125,0,0,0,.342-2.721A4.953,4.953,0,0,0,127.232,63.21Z" transform="translate(-124.873 -61.836)" fill="#ea0029"/>
        </g>
        <g id="Group_27" data-name="Group 27" transform="translate(48.677 27.024)">
          <path id="Path_30" data-name="Path 30" d="M61.351,51.433c.14-.4.948-2.192.187-2.223-.482,1.1-.855,2.27-1.244,3.405a7.43,7.43,0,0,0-.637,3.11c.062.653.513,1.819,1.353,1.726.9-.093,1.259-1.555,1.368-2.27.016-.109.14-1-.342-.731-.28.155-.187,1.011-.5,1.228-.762.513-1.135-.933-1.088-1.43A10.8,10.8,0,0,1,61.351,51.433Z" transform="translate(-59.638 -49.21)" fill="#ea0029"/>
        </g>
        <g id="Group_28" data-name="Group 28" transform="translate(7.954 51.218)">
          <path id="Path_31" data-name="Path 31" d="M35.473,67.382c.171-.482,1.119-2.581.233-2.612-.56,1.306-1.011,2.674-1.477,4.012a8.806,8.806,0,0,0-.762,3.654c.078.762.591,2.13,1.6,2.021,1.073-.109,1.477-1.835,1.6-2.659.016-.124.171-1.166-.4-.855-.327.171-.218,1.2-.591,1.446-.9.606-1.322-1.1-1.291-1.695A13.135,13.135,0,0,1,35.473,67.382Z" transform="translate(-33.447 -64.77)" fill="#ea0029"/>
        </g>
        <g id="Group_29" data-name="Group 29" transform="translate(76.908 16.467)">
          <path id="Path_32" data-name="Path 32" d="M78.767,50.49c.824.233,1.322-.964,1.493-1.617.047-.187.218-.777.016-.948-.358-.3-.451.591-.653.777-.731.715-1.042-.637-1.011-1.2a11.4,11.4,0,0,1,.98-3.125c.2-.529.933-1.757.093-1.959-.7,1.866-1.71,3.872-1.881,5.893C77.756,49.059,77.9,50.241,78.767,50.49Z" transform="translate(-77.795 -42.42)" fill="#ea0029"/>
        </g>
        <g id="Group_30" data-name="Group 30" transform="translate(87.069 10.721)">
          <path id="Path_33" data-name="Path 33" d="M86.569,43.429c-.187.544-.575,1.959-1.228.824-.4-.715.047-1.788.264-2.519.187-.653.917-2.084.684-2.752-.342-.98-.824,1.135-.917,1.462-.435,1.384-1.788,4.276-.5,5.551C86.476,47.549,87.409,43.506,86.569,43.429Z" transform="translate(-84.33 -38.725)" fill="#ea0029"/>
        </g>
        <g id="Group_31" data-name="Group 31" transform="translate(17.718 50.239)">
          <path id="Path_34" data-name="Path 34" d="M41.986,64.342a1.075,1.075,0,0,0-1.57.373c-.3.435-.886,1.415-.622,1.928.342-.124.886-.809,1.322-.513.466.327,0,1.213-.2,1.57-.155.28-1.135,1.306-.622,1.493.482.171,1.275-1.026,1.493-1.337C42.421,67,43.168,65.088,41.986,64.342Z" transform="translate(-39.727 -64.141)" fill="#ea0029"/>
        </g>
        <g id="Group_32" data-name="Group 32" transform="translate(153.749 22.282)">
          <path id="Path_35" data-name="Path 35" d="M129,46.16c-.466,1.244-.98,2.488-1.4,3.747a4.357,4.357,0,0,0-.187,2.97c.3.715,1.151,1.43,1.8.7.264-.311,1.088-2.41.311-2.472-.187.544-.42,1.555-1.135.871a1.815,1.815,0,0,1-.264-1.928C128.389,49.332,129.9,46.611,129,46.16Z" transform="translate(-127.215 -46.16)" fill="#ea0029"/>
        </g>
        <g id="Group_33" data-name="Group 33" transform="translate(129.719 45.667)">
          <path id="Path_36" data-name="Path 36" d="M113.517,62.8A5.58,5.58,0,0,0,114,61.775c.093-.42.2-.327-.249-.575-.793,1.539-2.457,3.825-1.866,5.66.28.84,1.088,1.259,1.741.513a4.024,4.024,0,0,0,.606-1.244c.171-.5.435-.84-.093-1.088-.14.358-.327,1.259-.9,1.151s-.715-1.166-.591-1.6A13.592,13.592,0,0,1,113.517,62.8Z" transform="translate(-111.76 -61.2)" fill="#ea0029"/>
        </g>
        <g id="Group_34" data-name="Group 34" transform="translate(17.663 30.972)">
          <path id="Path_37" data-name="Path 37" d="M45.162,53.958a.609.609,0,0,0-.28-.249c-.637-.358-3.374-2.286-3.856-1.912-.373.28-.653,1.43-.824,1.85-.14.311-.591,1.026-.5,1.4s1.306.793,1.633.98a10.282,10.282,0,0,0,1.975,1.166c.435.124.389.249.715-.249a5.166,5.166,0,0,0,.358-.793c.264-.653.56-1.291.84-1.928A.583.583,0,0,0,45.162,53.958Z" transform="translate(-39.692 -51.749)" fill="#ea0029"/>
        </g>
      </g>
      <g id="Group_36" data-name="Group 36" transform="translate(0 74.432)">
        <path id="Path_38" data-name="Path 38" d="M34.242,85.186c0,.4.016.591.2.637.031.031.031.2-.031.233a5.189,5.189,0,0,0-.669.14,7.327,7.327,0,0,1-1.71.233,4.634,4.634,0,0,1-1.9-.342,3.022,3.022,0,0,1-1.9-2.908,3.181,3.181,0,0,1,1.695-2.908,4.678,4.678,0,0,1,2.255-.513,12.274,12.274,0,0,1,1.912.233c.031.3.031.964.14,1.555-.031.109-.3.109-.373.016a1.793,1.793,0,0,0-1.819-1.353c-1.539,0-2.27,1.275-2.27,2.8a2.946,2.946,0,0,0,1.1,2.628,2.358,2.358,0,0,0,1.322.373c.544,0,.669-.109.669-.731v-.606c0-.529-.062-.575-.513-.653l-.42-.062a.22.22,0,0,1,0-.342c.684.016,1.151.031,1.633.031.466,0,.933-.016,1.259-.031a.28.28,0,0,1,0,.342l-.218.031c-.3.047-.342.14-.342.669v.529Z" transform="translate(-28.24 -79.667)" fill="#222"/>
        <path id="Path_39" data-name="Path 39" d="M40.226,83.072a3.2,3.2,0,0,1-3.483,3.358A3.142,3.142,0,0,1,33.4,83.15a3.322,3.322,0,0,1,3.436-3.39A3.2,3.2,0,0,1,40.226,83.072Zm-3.467-2.861c-1.182,0-1.819,1.1-1.819,2.721,0,1.182.42,3.063,1.99,3.063,1.259,0,1.757-1.228,1.757-2.8C38.671,81.548,37.956,80.211,36.758,80.211Z" transform="translate(-25.377 -79.667)" fill="#222"/>
        <path id="Path_40" data-name="Path 40" d="M42.975,83.846c-.5,1.166-.746,1.928-.964,2.472a.654.654,0,0,1-.342.078.445.445,0,0,1-.264-.078c-.109-.264-.264-.777-.4-1.1L39.446,81.3c-.373-.933-.42-.948-.731-1.026l-.389-.093a.251.251,0,0,1,.031-.327c.5.016.809.031,1.306.031.451,0,.855-.016,1.446-.031.078.062.062.249.016.327l-.3.062c-.171.031-.249.093-.249.187a7.778,7.778,0,0,0,.389,1.057l.855,2.177.311.809c.078-.171.233-.5.342-.777l.373-.9c.249-.606.653-1.695.777-2.021a1.627,1.627,0,0,0,.093-.342c0-.062-.078-.109-.311-.171l-.311-.062c-.078-.078-.078-.28.031-.327.451.016.824.031,1.182.031.327,0,.622-.016.9-.031.078.031.093.264.016.327l-.249.047a.707.707,0,0,0-.56.311,10.276,10.276,0,0,0-.777,1.633Z" transform="translate(-22.669 -79.617)" fill="#222"/>
        <path id="Path_41" data-name="Path 41" d="M45.533,82.374c0,.264.016.3.264.3h.669c.5,0,.622-.062.715-.529l.047-.249c.062-.078.311-.078.358.016-.016.311-.031.653-.031,1.026s.016.715.031,1.026c-.047.093-.3.093-.358.016l-.047-.249c-.093-.466-.218-.544-.715-.544H45.8c-.264,0-.264.016-.264.3v1.151a1.666,1.666,0,0,0,.155.917c.124.171.311.249,1.011.249.84,0,1.166-.031,1.695-1.119a.238.238,0,0,1,.358.047,4.993,4.993,0,0,1-.4,1.539c-.513-.016-1.43-.031-2.223-.031H44.865c-.466,0-.933.016-1.664.031-.078-.062-.078-.3,0-.342l.451-.062c.435-.062.5-.124.5-1.011V81.255c0-.871-.062-.933-.5-1.026l-.249-.047a.245.245,0,0,1,.016-.342c.451.016.933.031,1.384.031h2.037c.622,0,1.166-.016,1.291-.031.016.155.078.855.124,1.493-.031.109-.264.124-.358.031a2.3,2.3,0,0,0-.373-.762,1.253,1.253,0,0,0-.948-.3H45.8c-.311,0-.311.016-.311.373v1.695Z" transform="translate(-19.971 -79.622)" fill="#222"/>
        <path id="Path_42" data-name="Path 42" d="M48.362,81.431c0-.964-.016-1.073-.42-1.135l-.264-.031a.231.231,0,0,1,.016-.342c.731-.047,1.477-.093,2.394-.093a4.162,4.162,0,0,1,1.9.342,1.583,1.583,0,0,1,.855,1.43,1.547,1.547,0,0,1-1.026,1.446c-.093.047-.093.109-.047.218a7.782,7.782,0,0,0,1.493,2.41,1.084,1.084,0,0,0,.653.264.163.163,0,0,1,.031.249,2.468,2.468,0,0,1-.762.093,1.948,1.948,0,0,1-1.866-1.011,11.137,11.137,0,0,1-.746-1.493.481.481,0,0,0-.513-.342c-.342,0-.358.016-.358.218v1.182c0,.886.062.948.5,1.026l.264.047a.337.337,0,0,1,0,.342c-.513-.016-.948-.031-1.415-.031-.482,0-.9.016-1.415.031-.078-.062-.078-.3,0-.342l.264-.047c.435-.078.5-.14.5-1.026V81.431Zm1.322,1.228c0,.342.031.373.591.373A.976.976,0,0,0,51,82.769a1.377,1.377,0,0,0,.342-1.042,1.276,1.276,0,0,0-1.259-1.43c-.389,0-.42.031-.42.5V82.66Z" transform="translate(-17.513 -79.628)" fill="#222"/>
        <path id="Path_43" data-name="Path 43" d="M58.33,84.6c0,.622,0,1.228.016,1.555a.792.792,0,0,1-.575.218c-.016,0-.327-.5-.777-1.057L54.77,82.567a11.027,11.027,0,0,0-1.057-1.228,1.78,1.78,0,0,0-.047.622v1.866a6.579,6.579,0,0,0,.14,1.757c.093.2.311.264.56.311l.264.031a.3.3,0,0,1,0,.342c-.513-.016-.9-.031-1.291-.031-.358,0-.715.016-1.073.031a.3.3,0,0,1,0-.342l.171-.031c.264-.047.451-.109.529-.311a6.652,6.652,0,0,0,.14-1.757V81.369a2.657,2.657,0,0,0-.062-.824c-.078-.171-.218-.28-.544-.327l-.264-.031c-.062-.078-.062-.311.031-.342.451.016.933.031,1.337.031.327,0,.606-.016.809-.031A8.472,8.472,0,0,0,56,82.038l.809.948c.42.5.7.84.933,1.057a1.715,1.715,0,0,0,.031-.435V82.271a6.578,6.578,0,0,0-.14-1.757c-.093-.2-.3-.264-.56-.311l-.264-.031a.3.3,0,0,1,0-.342c.513.016.9.031,1.291.031.358,0,.7-.016,1.073-.031a.3.3,0,0,1,0,.342L59,80.2c-.249.031-.435.109-.513.311a6.652,6.652,0,0,0-.14,1.757V84.6Z" transform="translate(-14.95 -79.628)" fill="#222"/>
        <path id="Path_44" data-name="Path 44" d="M57.617,80.182c-.078-.078-.078-.311.031-.342.327.016.746.031,1.213.031.311,0,.591,0,.948-.031a5.79,5.79,0,0,0,.762,2.1l.637,1.353c.093.187.435.793.575,1.042.124-.233.28-.529.544-1.1l.5-1.057a12.359,12.359,0,0,0,.917-2.332c.451.031.669.031.948.031.311,0,.762-.016,1.1-.031a.244.244,0,0,1,.031.342l-.28.047c-.389.062-.591.187-.591.7,0,1.99.016,3.032.078,4.245.016.451.062.669.435.731l.311.031c.078.078.078.3-.016.342-.451-.016-.855-.031-1.337-.031-.435,0-.964.016-1.43.031a.231.231,0,0,1-.031-.342l.3-.031c.451-.062.451-.171.451-.762l-.016-2.5v-1.1h-.016c-.715,1.539-1.493,3.156-2.115,4.789a.334.334,0,0,1-.187.062.424.424,0,0,1-.249-.062c-.373-1.2-1.555-3.592-2.1-4.836h-.016c-.031.622-.047,1.057-.062,1.555-.016.622-.016,1.586-.016,2.177,0,.482.062.622.451.669l.373.062a.28.28,0,0,1-.016.342c-.358-.016-.777-.031-1.135-.031-.311,0-.669.016-1.057.031-.124-.031-.124-.3-.031-.342l.171-.031c.5-.093.544-.14.606-.746.047-.466.078-1.306.14-2.223.031-.653.062-1.43.062-1.944,0-.544-.218-.7-.591-.762Z" transform="translate(-12.029 -79.622)" fill="#222"/>
        <path id="Path_45" data-name="Path 45" d="M66.033,82.374c0,.264.016.3.264.3h.669c.5,0,.622-.062.715-.529l.047-.249c.062-.078.311-.078.358.016-.016.311-.031.653-.031,1.026s.016.715.031,1.026c-.047.093-.3.093-.358.016l-.047-.249c-.093-.466-.218-.544-.715-.544H66.3c-.264,0-.264.016-.264.3v1.151a1.666,1.666,0,0,0,.155.917c.124.171.311.249,1.011.249.84,0,1.166-.031,1.695-1.119a.238.238,0,0,1,.358.047,4.993,4.993,0,0,1-.4,1.539c-.513-.016-1.43-.031-2.223-.031H65.365c-.466,0-.933.016-1.664.031-.078-.062-.078-.3,0-.342l.451-.062c.435-.062.5-.124.5-1.011V81.255c0-.871-.062-.933-.5-1.026l-.249-.047a.245.245,0,0,1,.016-.342c.451.016.933.031,1.384.031h2.037c.622,0,1.166-.016,1.291-.031.016.155.078.855.124,1.493-.031.109-.264.124-.358.031a2.3,2.3,0,0,0-.373-.762,1.253,1.253,0,0,0-.948-.3H66.3c-.311,0-.311.016-.311.373v1.695Z" transform="translate(-8.597 -79.622)" fill="#222"/>
        <path id="Path_46" data-name="Path 46" d="M74.111,84.6c0,.622,0,1.228.016,1.555a.792.792,0,0,1-.575.218c-.016,0-.327-.5-.777-1.057L70.55,82.567a11.026,11.026,0,0,0-1.057-1.228,1.78,1.78,0,0,0-.047.622v1.866a6.578,6.578,0,0,0,.14,1.757c.093.2.311.264.56.311l.264.031a.3.3,0,0,1,0,.342c-.513-.016-.9-.031-1.291-.031-.358,0-.715.016-1.073.031a.3.3,0,0,1,0-.342l.171-.031c.264-.047.451-.109.529-.311a6.652,6.652,0,0,0,.14-1.757V81.369a2.658,2.658,0,0,0-.062-.824c-.078-.171-.218-.28-.544-.327l-.264-.031c-.062-.078-.062-.311.031-.342.451.016.933.031,1.337.031.327,0,.606-.016.809-.031a8.471,8.471,0,0,0,1.586,2.192l.809.948c.42.5.7.84.933,1.057a1.715,1.715,0,0,0,.031-.435V82.271a6.579,6.579,0,0,0-.14-1.757c-.093-.2-.3-.264-.56-.311l-.264-.031a.3.3,0,0,1,0-.342c.513.016.9.031,1.291.031.358,0,.7-.016,1.073-.031a.3.3,0,0,1,0,.342l-.171.031c-.249.031-.435.109-.513.311a6.652,6.652,0,0,0-.14,1.757V84.6Z" transform="translate(-6.194 -79.628)" fill="#222"/>
        <path id="Path_47" data-name="Path 47" d="M75.549,80.68c0-.233,0-.28-.233-.28h-.591c-.7,0-.9.389-1.2,1.088a.273.273,0,0,1-.358-.093,10.988,10.988,0,0,0,.311-1.633.217.217,0,0,1,.14-.047.454.454,0,0,1,.14.031c.047.171.078.2.809.2h3.592c.637,0,.777-.016.871-.218a.241.241,0,0,1,.124-.031.171.171,0,0,1,.14.062,6.437,6.437,0,0,0-.14,1.664c-.047.093-.311.109-.358.031-.171-.622-.3-1.073-1.026-1.073H77.2c-.233,0-.264.031-.264.28v4.26c0,.9.062.98.5,1.026l.389.047a.337.337,0,0,1,0,.342c-.622-.016-1.1-.031-1.539-.031-.466,0-.964.016-1.633.031a.28.28,0,0,1,0-.342l.435-.047c.435-.047.5-.14.5-1.026V80.68Z" transform="translate(-3.31 -79.7)" fill="#222"/>
        <path id="Path_48" data-name="Path 48" d="M86.906,83.072a3.2,3.2,0,0,1-3.483,3.358A3.142,3.142,0,0,1,80.08,83.15a3.322,3.322,0,0,1,3.436-3.39A3.2,3.2,0,0,1,86.906,83.072Zm-3.467-2.861c-1.182,0-1.819,1.1-1.819,2.721,0,1.182.42,3.063,1.99,3.063,1.259,0,1.757-1.228,1.757-2.8C85.367,81.548,84.636,80.211,83.438,80.211Z" transform="translate(0.524 -79.667)" fill="#222"/>
        <path id="Path_49" data-name="Path 49" d="M87.723,82.452c0,.264.016.3.264.3h.746c.513,0,.622-.062.715-.544l.047-.233a.284.284,0,0,1,.373.016c-.016.311-.031.669-.031,1.026s.016.715.031,1.011a.3.3,0,0,1-.373.016l-.047-.233c-.093-.466-.2-.544-.715-.544h-.746c-.264,0-.264.031-.264.3v1.306c0,.9.062.98.5,1.026l.358.047a.337.337,0,0,1,0,.342c-.591-.016-1.073-.031-1.539-.031-.451,0-.933.016-1.508.031a.28.28,0,0,1,0-.342l.311-.047c.435-.062.5-.14.5-1.026V81.27c0-.9-.062-.98-.5-1.057l-.187-.031c-.093-.062-.093-.3.016-.342.42.016.9.031,1.353.031h2.021c.622,0,1.166-.016,1.306-.031,0,.171,0,.855.016,1.508-.031.109-.249.109-.373.031a2.569,2.569,0,0,0-.28-.746,1.15,1.15,0,0,0-.948-.311h-.746c-.311,0-.311.016-.311.389v1.741Z" transform="translate(3.516 -79.622)" fill="#222"/>
        <path id="Path_50" data-name="Path 50" d="M92.4,81.255c0-.9-.062-.948-.5-1.042l-.249-.047a.226.226,0,0,1,.016-.327c.466.016.948.031,1.415.031s.948-.016,1.415-.031a.258.258,0,0,1,0,.327l-.233.031c-.435.078-.5.155-.5,1.057v2.223c0,1.135.124,2.379,1.586,2.379,1.228,0,1.617-1.073,1.617-2.394V82.3a6.578,6.578,0,0,0-.14-1.757c-.093-.2-.3-.264-.56-.311l-.264-.047a.28.28,0,0,1,0-.327c.513.016.9.031,1.291.031.358,0,.715-.016,1.073-.031a.28.28,0,0,1,0,.327l-.171.031c-.249.062-.435.109-.513.311a6.578,6.578,0,0,0-.14,1.757v1.073a3.324,3.324,0,0,1-.622,2.317,2.622,2.622,0,0,1-1.912.7,2.867,2.867,0,0,1-1.912-.544,2.7,2.7,0,0,1-.715-2.177V81.255Z" transform="translate(6.91 -79.622)" fill="#222"/>
        <path id="Path_51" data-name="Path 51" d="M96.9,80.182c-.078-.078-.078-.311.031-.342.327.016.746.031,1.213.031.311,0,.591,0,.948-.031a5.791,5.791,0,0,0,.762,2.1l.638,1.353c.093.187.435.793.575,1.042.124-.233.28-.529.544-1.1l.5-1.057a12.358,12.358,0,0,0,.917-2.332c.451.031.669.031.948.031.311,0,.762-.016,1.1-.031a.244.244,0,0,1,.031.342l-.28.047c-.389.062-.591.187-.591.7,0,1.99.016,3.032.078,4.245.016.451.062.669.435.731l.311.031c.078.078.078.3-.016.342-.451-.016-.855-.031-1.337-.031-.435,0-.964.016-1.43.031a.231.231,0,0,1-.031-.342l.3-.031c.451-.062.451-.171.451-.762l-.016-2.5v-1.1h-.016c-.715,1.539-1.493,3.156-2.115,4.789a.333.333,0,0,1-.187.062.424.424,0,0,1-.249-.062c-.373-1.2-1.555-3.592-2.1-4.836H98.3c-.031.622-.047,1.057-.062,1.555-.016.622-.016,1.586-.016,2.177,0,.482.062.622.451.669l.373.062a.28.28,0,0,1-.016.342c-.358-.016-.777-.031-1.135-.031-.311,0-.669.016-1.057.031-.124-.031-.124-.3-.031-.342l.171-.031c.5-.093.544-.14.606-.746.047-.466.078-1.306.14-2.223.031-.653.062-1.43.062-1.944,0-.544-.218-.7-.591-.762Z" transform="translate(9.766 -79.622)" fill="#222"/>
        <path id="Path_52" data-name="Path 52" d="M103.137,80.182c-.078-.078-.078-.311.031-.342.327.016.746.031,1.213.031.311,0,.591,0,.948-.031a5.79,5.79,0,0,0,.762,2.1l.637,1.353c.093.187.435.793.575,1.042.124-.233.28-.529.544-1.1l.5-1.057a12.357,12.357,0,0,0,.917-2.332c.451.031.669.031.948.031.311,0,.762-.016,1.1-.031a.244.244,0,0,1,.031.342l-.28.047c-.389.062-.591.187-.591.7,0,1.99.016,3.032.078,4.245.016.451.062.669.435.731l.311.031c.078.078.078.3-.016.342-.451-.016-.855-.031-1.337-.031-.435,0-.964.016-1.43.031a.231.231,0,0,1-.031-.342l.3-.031c.451-.062.451-.171.451-.762l-.016-2.5v-1.1H109.2c-.715,1.539-1.493,3.156-2.115,4.789a.333.333,0,0,1-.187.062.424.424,0,0,1-.249-.062c-.373-1.2-1.555-3.592-2.1-4.836h-.016c-.031.622-.047,1.057-.062,1.555-.016.622-.016,1.586-.016,2.177,0,.482.062.622.451.669l.373.062a.28.28,0,0,1-.016.342c-.358-.016-.777-.031-1.135-.031-.311,0-.669.016-1.057.031-.124-.031-.124-.3-.031-.342l.171-.031c.5-.093.544-.14.606-.746.047-.466.078-1.306.14-2.223.031-.653.062-1.43.062-1.944,0-.544-.218-.7-.591-.762Z" transform="translate(13.228 -79.622)" fill="#222"/>
        <path id="Path_53" data-name="Path 53" d="M113.28,84.1c-.233,0-.264.016-.311.187L112.6,85.4a.912.912,0,0,0-.062.342c0,.062.124.109.389.171l.3.047c.062.062.078.3-.016.342-.342-.016-.684-.016-1.088-.031-.327,0-.544.031-1,.031-.109-.062-.093-.264-.031-.342l.264-.031a.679.679,0,0,0,.591-.482c.171-.389.342-.855.606-1.539l.871-2.348a3.541,3.541,0,0,0,.358-1.228,1.916,1.916,0,0,0,.84-.575c.124,0,.187.047.218.187.078.28.187.637.435,1.322l1.306,3.778c.2.575.3.793.653.855l.373.062a.281.281,0,0,1-.016.342c-.466-.016-.98-.031-1.477-.031-.482,0-.855.016-1.306.031a.22.22,0,0,1-.016-.342l.311-.047c.218-.031.264-.109.264-.171a3.515,3.515,0,0,0-.187-.653l-.264-.824c-.047-.155-.124-.171-.466-.171H113.28Zm1.1-.513c.218,0,.264-.031.187-.28l-.249-.777c-.14-.42-.311-.933-.389-1.135-.078.218-.264.746-.42,1.182l-.249.731c-.093.264-.031.3.2.3h.917Z" transform="translate(17.701 -79.667)" fill="#222"/>
        <path id="Path_54" data-name="Path 54" d="M118.1,84.629a1.485,1.485,0,0,0,.171.917c.124.171.3.249,1,.249.871,0,1.151-.031,1.71-1.151a.262.262,0,0,1,.373.062,5.554,5.554,0,0,1-.42,1.555c-.513-.016-1.43-.031-2.223-.031h-1.291c-.451,0-.933.016-1.524.031a.263.263,0,0,1-.031-.342l.373-.047c.435-.062.5-.14.5-1.026V81.255c0-.9-.062-.98-.5-1.042l-.28-.031a.231.231,0,0,1,.016-.342c.5.016.98.031,1.446.031s.948-.016,1.43-.031a.28.28,0,0,1,0,.342l-.249.031c-.435.062-.5.14-.5,1.042v3.374Z" transform="translate(20.348 -79.622)" fill="#222"/>
        <path id="Path_55" data-name="Path 55" d="M126.81,83.083a3.091,3.091,0,0,1-2.021,3.11c-.062.031-.031.109.093.218a5.429,5.429,0,0,0,2.1,1.384,3.537,3.537,0,0,0,.731.078,1.257,1.257,0,0,0,.42-.078c.093.031.109.155.093.233a2.552,2.552,0,0,1-1.384.358,4.928,4.928,0,0,1-3.483-1.664c-.187-.187-.28-.311-.513-.327A3.1,3.1,0,0,1,120,83.13a3.322,3.322,0,0,1,3.436-3.39A3.225,3.225,0,0,1,126.81,83.083Zm-5.287-.14c0,1.182.42,3.079,1.99,3.079,1.259,0,1.757-1.244,1.757-2.8,0-1.648-.731-2.985-1.912-2.985C122.161,80.222,121.524,81.326,121.524,82.943Z" transform="translate(22.674 -79.678)" fill="#222"/>
        <path id="Path_56" data-name="Path 56" d="M126.049,81.255c0-.9-.062-.948-.5-1.042l-.249-.047a.226.226,0,0,1,.016-.327c.466.016.948.031,1.415.031s.948-.016,1.415-.031a.258.258,0,0,1,0,.327l-.233.031c-.435.078-.5.155-.5,1.057v2.223c0,1.135.124,2.379,1.586,2.379,1.228,0,1.617-1.073,1.617-2.394V82.3a6.579,6.579,0,0,0-.14-1.757c-.093-.2-.3-.264-.56-.311l-.264-.047a.28.28,0,0,1,0-.327c.513.016.9.031,1.291.031.358,0,.715-.016,1.073-.031a.28.28,0,0,1,0,.327l-.171.031c-.249.062-.435.109-.513.311a6.577,6.577,0,0,0-.14,1.757v1.073a3.325,3.325,0,0,1-.622,2.317,2.622,2.622,0,0,1-1.912.7,2.867,2.867,0,0,1-1.912-.544,2.7,2.7,0,0,1-.715-2.177V81.255Z" transform="translate(25.581 -79.622)" fill="#222"/>
        <path id="Path_57" data-name="Path 57" d="M139.867,80.25a.708.708,0,0,0-.435.218,7.279,7.279,0,0,0-.529,1.073c-.466,1.135-1.524,3.53-1.99,4.789a.572.572,0,0,1-.311.078.482.482,0,0,1-.264-.078c-.109-.233-.249-.575-.373-.855l-.4-.917c-.14-.311-.264-.591-.342-.746-.093.171-.2.389-.327.669l-.451.933c-.14.311-.249.591-.4.9a.556.556,0,0,1-.327.078.524.524,0,0,1-.264-.078c-.155-.4-.544-1.275-.871-1.99L131,80.918c-.264-.575-.311-.622-.637-.684l-.249-.047c-.078-.093-.062-.3.031-.342.358.016.762.031,1.259.031.42,0,.793-.016,1.166-.031a.259.259,0,0,1,.016.342l-.171.031c-.171.031-.249.078-.249.14s.2.513.5,1.2l.948,2.13c.264.591.42.871.529,1.1.109-.187.342-.653.5-1l.124-.28a1.13,1.13,0,0,0,.093-.342,1.306,1.306,0,0,0-.109-.358l-.933-2.037c-.218-.482-.3-.544-.653-.591l-.093-.016a.231.231,0,0,1,.031-.342c.42.016.793.031,1.213.031.5,0,.855-.016,1.1-.031.109.031.109.3.031.342l-.171.031c-.109.031-.264.062-.264.14a.642.642,0,0,0,.093.3l.3.669c.093.2.218.466.3.637l.3-.653.093-.187a3.783,3.783,0,0,0,.28-.715c0-.062-.031-.093-.187-.14l-.342-.062c-.062-.062-.062-.3.031-.342.28.016.622.031.948.031.373,0,.731-.016.98-.031a.28.28,0,0,1,.016.342l-.264.062c-.327.062-.389.062-.731.653-.233.389-.466.871-.591,1.135a2.648,2.648,0,0,0-.218.5.864.864,0,0,0,.078.249l.451.98c.249.529.389.84.451.98.466-1.119,1-2.348,1.462-3.514a5.493,5.493,0,0,0,.249-.777c0-.093-.155-.14-.28-.171l-.218-.062c-.078-.093-.062-.3.031-.342.311.016.7.031,1,.031.342,0,.622-.016.886-.031.093.047.093.264.031.342Z" transform="translate(28.26 -79.628)" fill="#222"/>
        <path id="Path_58" data-name="Path 58" d="M138.19,84.1c-.233,0-.264.016-.311.187l-.373,1.119a.912.912,0,0,0-.062.342c0,.062.124.109.389.171l.3.047c.062.062.078.3-.016.342-.342-.016-.684-.016-1.088-.031-.327,0-.544.031-1,.031-.109-.062-.093-.264-.031-.342l.264-.031a.679.679,0,0,0,.591-.482c.171-.389.342-.855.606-1.539l.871-2.348a3.541,3.541,0,0,0,.358-1.228,1.916,1.916,0,0,0,.84-.575c.124,0,.187.047.218.187.078.28.187.637.435,1.322l1.306,3.778c.2.575.3.793.653.855l.373.062a.281.281,0,0,1-.016.342c-.466-.016-.98-.031-1.477-.031-.482,0-.855.016-1.306.031a.22.22,0,0,1-.016-.342l.311-.047c.218-.031.264-.109.264-.171a3.515,3.515,0,0,0-.187-.653l-.264-.824c-.047-.155-.124-.171-.466-.171H138.19Zm1.1-.513c.218,0,.264-.031.187-.28l-.249-.777c-.14-.42-.311-.933-.389-1.135-.078.218-.264.746-.42,1.182l-.249.731c-.093.264-.031.3.2.3h.917Z" transform="translate(31.523 -79.667)" fill="#222"/>
        <path id="Path_59" data-name="Path 59" d="M142.982,84.831c0,.9.062.98.5,1.057l.264.047a.281.281,0,0,1-.016.342c-.513-.016-1-.031-1.446-.031-.466,0-.948.016-1.462.031a.28.28,0,0,1,0-.342l.264-.047c.451-.078.5-.14.5-1.057V81.286c0-.9-.062-.98-.5-1.057l-.264-.047a.28.28,0,0,1,0-.342c.513.016,1,.031,1.462.031.451,0,.933-.016,1.462-.031a.28.28,0,0,1,0,.342l-.264.047c-.451.078-.5.14-.5,1.057v3.545Z" transform="translate(34.194 -79.622)" fill="#222"/>
        <path id="Path_60" data-name="Path 60" d="M149.74,84.6c0,.622,0,1.228.016,1.555a.792.792,0,0,1-.575.218c-.016,0-.327-.5-.777-1.057l-2.223-2.752a11.028,11.028,0,0,0-1.057-1.228,1.78,1.78,0,0,0-.047.622v1.866a6.579,6.579,0,0,0,.14,1.757c.093.2.311.264.56.311l.264.031a.3.3,0,0,1,0,.342c-.529-.016-.9-.031-1.291-.031-.358,0-.715.016-1.073.031a.3.3,0,0,1,0-.342l.171-.031c.264-.047.451-.109.529-.311a6.652,6.652,0,0,0,.14-1.757V81.369a2.658,2.658,0,0,0-.062-.824c-.078-.171-.218-.28-.544-.327l-.264-.031c-.062-.078-.062-.311.031-.342.451.016.933.031,1.337.031.327,0,.606-.016.809-.031a8.472,8.472,0,0,0,1.586,2.192l.809.948c.42.5.7.84.933,1.057a1.713,1.713,0,0,0,.031-.435V82.271a6.579,6.579,0,0,0-.14-1.757c-.093-.2-.3-.264-.56-.311l-.264-.031a.3.3,0,0,1,0-.342c.513.016.9.031,1.291.031.358,0,.7-.016,1.073-.031a.3.3,0,0,1,0,.342l-.171.031a.6.6,0,0,0-.529.311,6.651,6.651,0,0,0-.14,1.757V84.6Z" transform="translate(35.769 -79.628)" fill="#222"/>
      </g>
      <g id="Group_37" data-name="Group 37" transform="translate(0.155 69.192)">
        <rect id="Rectangle_2" data-name="Rectangle 2" width="185.494" height="0.715" fill="#ea0029"/>
      </g>
    </g>
    <g id="Group_43" data-name="Group 43" transform="translate(346.489 69.422)">
      <g id="Group_40" data-name="Group 40" transform="translate(1.353 39.074)">
        <g id="Group_39" data-name="Group 39">
          <path id="Path_61" data-name="Path 61" d="M220.52,90.724V74.6h9.7v2.192h-7.4V81.5h6.313V83.68h-6.313v4.851h7.4v2.192h-9.7Z" transform="translate(-220.52 -74.46)" fill="#222"/>
          <path id="Path_62" data-name="Path 62" d="M238.526,90.718l-3.312-6.188-3.281,6.188H229.29l4.7-8.256L229.6,74.61h2.643l2.985,5.769,3-5.769h2.643l-4.385,7.852,4.711,8.256Z" transform="translate(-215.654 -74.454)" fill="#222"/>
          <path id="Path_63" data-name="Path 63" d="M240,90.724V74.6h9.7v2.192h-7.4V81.5h6.313V83.68H242.3v4.851h7.4v2.192H240Z" transform="translate(-209.711 -74.46)" fill="#222"/>
          <path id="Path_64" data-name="Path 64" d="M255.023,90.914a5.336,5.336,0,0,1-4-1.726c-1.493-1.586-1.477-3.374-1.477-6.484,0-3.094-.016-4.882,1.477-6.468a5.368,5.368,0,0,1,4-1.726c2.8,0,4.882,1.741,5.411,4.96h-2.348a3.1,3.1,0,0,0-3.063-2.768,2.9,2.9,0,0,0-2.239.98c-.746.855-.917,1.788-.917,5.022s.171,4.167.917,5.022a2.953,2.953,0,0,0,2.239.98,3.131,3.131,0,0,0,3.094-2.768h2.317C259.921,89.172,257.775,90.914,255.023,90.914Z" transform="translate(-204.413 -74.51)" fill="#222"/>
          <path id="Path_65" data-name="Path 65" d="M265.462,90.864A5.3,5.3,0,0,1,260.02,85.3V74.6h2.3V85.173c0,2.146,1.228,3.483,3.141,3.483,1.9,0,3.156-1.337,3.156-3.483V74.6h2.3V85.282A5.326,5.326,0,0,1,265.462,90.864Z" transform="translate(-198.603 -74.46)" fill="#222"/>
          <path id="Path_66" data-name="Path 66" d="M276.694,76.792V90.724h-2.3V76.792H270.21V74.6h10.666v2.192Z" transform="translate(-192.949 -74.46)" fill="#222"/>
          <path id="Path_67" data-name="Path 67" d="M280.4,90.724V74.6h2.3V90.724Z" transform="translate(-187.295 -74.46)" fill="#222"/>
          <path id="Path_68" data-name="Path 68" d="M291.649,90.724h-1.788L284.87,74.6h2.395l3.5,11.724,3.5-11.724h2.426Z" transform="translate(-184.815 -74.46)" fill="#222"/>
          <path id="Path_69" data-name="Path 69" d="M295.45,90.724V74.6h9.7v2.192h-7.4V81.5h6.313V83.68h-6.313v4.851h7.4v2.192h-9.7Z" transform="translate(-178.945 -74.46)" fill="#222"/>
          <path id="Path_70" data-name="Path 70" d="M315.408,90.914a5.3,5.3,0,0,1-3.98-1.726c-1.493-1.586-1.477-3.374-1.477-6.484,0-3.094-.016-4.882,1.477-6.468a5.359,5.359,0,0,1,3.98-1.726c2.8,0,4.882,1.741,5.411,4.96h-2.348a3.1,3.1,0,0,0-3.063-2.768,2.9,2.9,0,0,0-2.239.98c-.746.855-.917,1.788-.917,5.022s.171,4.167.917,5.022a2.953,2.953,0,0,0,2.239.98,3.131,3.131,0,0,0,3.094-2.768h2.317C320.305,89.172,318.16,90.914,315.408,90.914Z" transform="translate(-170.899 -74.51)" fill="#222"/>
          <path id="Path_71" data-name="Path 71" d="M329.669,89.188a5.352,5.352,0,0,1-4.012,1.726,5.23,5.23,0,0,1-3.98-1.726C320.184,87.6,320.2,85.814,320.2,82.7c0-3.094-.016-4.882,1.477-6.468a5.489,5.489,0,0,1,7.992,0c1.493,1.586,1.446,3.374,1.446,6.468C331.115,85.814,331.162,87.6,329.669,89.188Zm-1.741-11.475a3.052,3.052,0,0,0-4.509,0c-.746.855-.9,1.757-.9,5.007s.155,4.151.9,5.007a3.052,3.052,0,0,0,4.509,0c.746-.855.9-1.773.9-5.007S328.674,78.568,327.928,77.713Z" transform="translate(-165.212 -74.51)" fill="#222"/>
          <path id="Path_72" data-name="Path 72" d="M336.352,90.864A5.3,5.3,0,0,1,330.91,85.3V74.6h2.3V85.173c0,2.146,1.244,3.483,3.141,3.483s3.156-1.337,3.156-3.483V74.6h2.3V85.282A5.317,5.317,0,0,1,336.352,90.864Z" transform="translate(-159.269 -74.46)" fill="#222"/>
          <path id="Path_73" data-name="Path 73" d="M351.284,90.724l-7.012-11.35v11.35h-2.3V74.6h2.115L351.1,85.919V74.6h2.3V90.724Z" transform="translate(-153.133 -74.46)" fill="#222"/>
          <path id="Path_74" data-name="Path 74" d="M358.608,90.914a5.3,5.3,0,0,1-3.98-1.726c-1.493-1.586-1.477-3.374-1.477-6.484,0-3.094-.016-4.882,1.477-6.468a5.359,5.359,0,0,1,3.98-1.726c2.8,0,4.882,1.741,5.411,4.96h-2.348a3.1,3.1,0,0,0-3.063-2.768,2.9,2.9,0,0,0-2.239.98c-.746.855-.917,1.788-.917,5.022s.171,4.167.917,5.022a2.953,2.953,0,0,0,2.239.98,3.131,3.131,0,0,0,3.094-2.768h2.317C363.521,89.172,361.36,90.914,358.608,90.914Z" transform="translate(-146.929 -74.51)" fill="#222"/>
          <path id="Path_75" data-name="Path 75" d="M363.77,90.724V74.6h2.3V90.724Z" transform="translate(-141.037 -74.46)" fill="#222"/>
          <path id="Path_76" data-name="Path 76" d="M369.44,90.724V74.6h2.3V88.532h7.308v2.192Z" transform="translate(-137.891 -74.46)" fill="#222"/>
        </g>
      </g>
      <g id="Group_42" data-name="Group 42">
        <g id="Group_41" data-name="Group 41">
          <path id="Path_77" data-name="Path 77" d="M242.289,54.25a5.2,5.2,0,0,1,3.84,1.633,5.459,5.459,0,0,1,1.586,3.934v6.2c0,.3-.14.451-.435.451h-1.524a.4.4,0,0,1-.435-.451v-6.2a2.978,2.978,0,0,0-.886-2.192,2.95,2.95,0,0,0-4.276,0,3.028,3.028,0,0,0-.886,2.192V73.639a1.221,1.221,0,0,1-1.2,1.228H226.693a6.665,6.665,0,0,1-4.976-2.115,7.073,7.073,0,0,1-2.068-5.147,7.432,7.432,0,0,1,1.073-3.887,7.3,7.3,0,0,1,2.876-2.752l.669-.342a.425.425,0,0,1,.218-.062.3.3,0,0,1,.109.016.516.516,0,0,1,.249.233l.7,1.4a.766.766,0,0,1,.047.233.382.382,0,0,1-.249.373l-.684.342a4.855,4.855,0,0,0-1.912,1.85,5.006,5.006,0,0,0-.715,2.612,4.658,4.658,0,0,0,1.368,3.39,4.434,4.434,0,0,0,3.3,1.415h10.184V59.832a5.459,5.459,0,0,1,1.586-3.934A5.145,5.145,0,0,1,242.289,54.25ZM229.461,78.086a.408.408,0,0,1,.451.466v1.8c0,.3-.155.435-.451.435h-1.6a.387.387,0,0,1-.435-.435v-1.8c0-.311.14-.466.435-.466Zm4.354,0c.28,0,.435.155.435.466v1.8a.381.381,0,0,1-.435.435h-1.6c-.3,0-.451-.14-.451-.435v-1.8a.408.408,0,0,1,.451-.466Z" transform="translate(-219.65 -46.678)" fill="#222"/>
          <path id="Path_78" data-name="Path 78" d="M257.154,73.169h-1.088a4.665,4.665,0,0,1-3.436-1.322q-.047-.07-.14-.187c-.062-.078-.109-.14-.155-.187a5.442,5.442,0,0,1-4.416,1.695h-7.012a.4.4,0,0,1-.435-.451V71.163c0-.311.14-.466.435-.466h7.012a3.517,3.517,0,0,0,2.55-.731,2.933,2.933,0,0,0,.591-2.068v-5.38a3.51,3.51,0,0,0-1.026-2.534,3.34,3.34,0,0,0-2.472-1.057,5.3,5.3,0,0,0-3.11.746l-.606.451a.465.465,0,0,1-.264.078H243.5a.357.357,0,0,1-.264-.187l-.886-1.275a.375.375,0,0,1-.062-.233v-.093a.453.453,0,0,1,.171-.3l.606-.451a7.43,7.43,0,0,1,4.509-1.213,5.586,5.586,0,0,1,4.151,1.773,5.916,5.916,0,0,1,1.726,4.276v6.344a1.641,1.641,0,0,0,.466,1.213,2.249,2.249,0,0,0,1.741.622h1.524v2.488Zm-10.62-20.027a.4.4,0,0,1-.435-.451V50.7c0-.3.14-.451.435-.451h1.6a.4.4,0,0,1,.435.451v1.99c0,.3-.14.451-.435.451Z" transform="translate(-208.098 -48.897)" fill="#222"/>
          <path id="Path_79" data-name="Path 79" d="M263.45,70.722H262.33a4.752,4.752,0,0,1-3.576-1.228c-.016-.016-.031-.047-.047-.062-.016.016-.031.047-.062.078a.214.214,0,0,1-.047.062,4.042,4.042,0,0,1-3.016,1.151H250.7V68.265h4.944a1.673,1.673,0,0,0,1.275-.451,1.93,1.93,0,0,0,.435-1.4V55.126c0-.311.14-.466.435-.466H259.3a.408.408,0,0,1,.451.466V66.866a1.223,1.223,0,0,0,.264.855,2.668,2.668,0,0,0,1.944.529h1.508v2.472Zm-7.805,3.187a.408.408,0,0,1,.451.466V76.35a.4.4,0,0,1-.451.451h-1.6a.4.4,0,0,1-.435-.451V74.376c0-.311.14-.466.435-.466Zm4.354,0a.408.408,0,0,1,.451.466V76.35A.4.4,0,0,1,260,76.8h-1.586a.4.4,0,0,1-.451-.451V74.376a.408.408,0,0,1,.451-.466Z" transform="translate(-202.422 -46.45)" fill="#222"/>
          <path id="Path_80" data-name="Path 80" d="M282.475,70.712v2.457H258.39V70.712h7.059a7.055,7.055,0,0,1-1.679-4.633V63.56a6.887,6.887,0,0,1,2.021-5.007,6.726,6.726,0,0,1,9.733,0,6.887,6.887,0,0,1,2.021,5.007v7.152Zm-16.31-4.633a4.482,4.482,0,0,0,1.322,3.265,4.283,4.283,0,0,0,3.172,1.368h4.494V63.56a4.53,4.53,0,0,0-1.306-3.265,4.317,4.317,0,0,0-3.187-1.368,4.251,4.251,0,0,0-3.172,1.368,4.482,4.482,0,0,0-1.322,3.265v2.519Zm3.3-12.936a.4.4,0,0,1-.451-.451V50.7a.4.4,0,0,1,.451-.451h1.586a.4.4,0,0,1,.451.451v1.99a.4.4,0,0,1-.451.451Z" transform="translate(-198.155 -48.897)" fill="#222"/>
          <path id="Path_81" data-name="Path 81" d="M285.92,73.169H284.8a4.752,4.752,0,0,1-3.576-1.228c-.016-.016-.031-.047-.047-.062-.016.016-.031.047-.062.078a.216.216,0,0,1-.047.062,4.043,4.043,0,0,1-3.016,1.151H273.17V70.712h4.944a1.673,1.673,0,0,0,1.275-.451,1.93,1.93,0,0,0,.435-1.4V57.573c0-.311.14-.466.435-.466h1.508a.408.408,0,0,1,.451.466V69.313a1.223,1.223,0,0,0,.264.855,2.668,2.668,0,0,0,1.944.529h1.508v2.472ZM280.2,53.142a.4.4,0,0,1-.435-.451V50.7c0-.3.14-.451.435-.451h1.6a.4.4,0,0,1,.451.451v1.99a.4.4,0,0,1-.451.451Z" transform="translate(-189.954 -48.897)" fill="#222"/>
          <path id="Path_82" data-name="Path 82" d="M294.335,73.169h-1.12a4.767,4.767,0,0,1-3.592-1.228c0-.016,0-.016-.016-.031s-.016-.016-.016-.031l-.14.155h.016a4.006,4.006,0,0,1-3,1.151h-5.6V70.727h5.644a1.673,1.673,0,0,0,1.275-.451,1.914,1.914,0,0,0,.451-1.4V57.589q0-.466.42-.466h1.524c.28,0,.435.155.435.466V69.328a1.156,1.156,0,0,0,.28.855,2.6,2.6,0,0,0,1.928.529h1.524v2.457Zm-7.914-20.027a.4.4,0,0,1-.451-.451V50.7a.4.4,0,0,1,.451-.451h1.617a.4.4,0,0,1,.435.451v1.99c0,.3-.14.451-.435.451Zm4.354,0a.4.4,0,0,1-.435-.451V50.7c0-.3.14-.451.435-.451h1.586a.4.4,0,0,1,.451.451v1.99a.4.4,0,0,1-.451.451Z" transform="translate(-185.682 -48.897)" fill="#222"/>
          <path id="Path_83" data-name="Path 83" d="M296.514,49.38c.28,0,.435.155.435.466V69.36a4.243,4.243,0,0,1-1.135,3.125,4.091,4.091,0,0,1-3.016,1.151H289.02V71.179h3.794c.016.016.016.016.031.016a1.723,1.723,0,0,0,1.29-.451,1.993,1.993,0,0,0,.435-1.384V49.846c0-.311.14-.466.435-.466Z" transform="translate(-181.16 -49.38)" fill="#222"/>
          <path id="Path_84" data-name="Path 84" d="M299.884,73.2c0,.3-.14.451-.42.451h-1.539a.4.4,0,0,1-.435-.451V49.831c0-.3.14-.451.435-.451h1.539c.28,0,.42.155.42.451Z" transform="translate(-176.46 -49.38)" fill="#222"/>
          <path id="Path_85" data-name="Path 85" d="M341.506,70.716h-1.1a4.6,4.6,0,0,1-3.421-1.322.337.337,0,0,1-.093-.109,2.326,2.326,0,0,1-.233.3,4.079,4.079,0,0,1-3.032,1.151h-1.617a4.752,4.752,0,0,1-3.576-1.228c-.016-.016-.031-.047-.047-.062-.047.078-.093.124-.109.155a4.006,4.006,0,0,1-3,1.151H320.9a7.071,7.071,0,0,1-2.426,4.214,6.859,6.859,0,0,1-9.5-.42,7.1,7.1,0,0,1-2.068-5.147v-7.93a.381.381,0,0,1,.435-.435h1.524a.387.387,0,0,1,.435.435v7.93a4.608,4.608,0,0,0,1.368,3.39,4.458,4.458,0,0,0,3.3,1.415,4.4,4.4,0,0,0,3.3-1.415,4.658,4.658,0,0,0,1.368-3.39V55.168a.408.408,0,0,1,.451-.466h1.508a.408.408,0,0,1,.451.466V68.291h4.245a1.74,1.74,0,0,0,1.322-.451,1.93,1.93,0,0,0,.435-1.4v-10.4c0-.3.14-.451.435-.451h1.539c.28,0,.42.155.42.451V66.891a1.278,1.278,0,0,0,.264.855,2.718,2.718,0,0,0,1.944.529H333.7a1.827,1.827,0,0,0,1.337-.451,1.981,1.981,0,0,0,.42-1.4v-11.3a.4.4,0,0,1,.451-.451H337.4a.4.4,0,0,1,.451.451v11.3a1.64,1.64,0,0,0,.466,1.213,2.294,2.294,0,0,0,1.741.622h1.524v2.457Z" transform="translate(-171.233 -46.445)" fill="#222"/>
          <path id="Path_86" data-name="Path 86" d="M340.591,73.646h-1.259a4.705,4.705,0,0,1-3.576-1.228l-.062-.062c-.047.062-.078.109-.109.155a3.982,3.982,0,0,1-3,1.151H328.65V71.2h3.98a1.735,1.735,0,0,0,1.291-.451,1.931,1.931,0,0,0,.42-1.4V49.841a.4.4,0,0,1,.451-.451H336.3a.4.4,0,0,1,.451.451V69.805a1.2,1.2,0,0,0,.264.855,2.6,2.6,0,0,0,1.928.529h1.664v2.457Z" transform="translate(-159.171 -49.374)" fill="#222"/>
          <path id="Path_87" data-name="Path 87" d="M358.732,70.949h-1.12a4.819,4.819,0,0,1-3.592-1.244,4.046,4.046,0,0,1-.342-.451,5.3,5.3,0,0,1-4.214,1.695H335.72V68.492h13.745a3.368,3.368,0,0,0,2.41-.777,3.463,3.463,0,0,0,.762-2.472V62.009a5.115,5.115,0,0,0-1.508-3.732,4.882,4.882,0,0,0-3.638-1.555,5.966,5.966,0,0,0-5.224,2.5l-.451.637a.406.406,0,0,1-.327.218.39.39,0,0,1-.264-.109l-1.244-.9a.445.445,0,0,1-.171-.3v-.093a.573.573,0,0,1,.078-.264l.451-.637a8.189,8.189,0,0,1,7.168-3.53,7.138,7.138,0,0,1,5.333,2.27,7.606,7.606,0,0,1,2.208,5.489v5.1a1.2,1.2,0,0,0,.28.871,2.786,2.786,0,0,0,1.912.513h1.524v2.457Zm-12.252,2.97c.28,0,.435.155.435.466V76.36c0,.3-.14.451-.435.451h-1.6a.4.4,0,0,1-.451-.451V74.385a.408.408,0,0,1,.451-.466Z" transform="translate(-155.248 -46.678)" fill="#222"/>
          <path id="Path_88" data-name="Path 88" d="M373.162,70.96h-1.99a4.58,4.58,0,0,1-3.421-1.353,5.511,5.511,0,0,1-.482-.606,6.57,6.57,0,0,1-4.727,1.944H350.01V68.488h5.66V61.336a6.923,6.923,0,0,1,2.021-5.022,6.689,6.689,0,0,1,9.7,0,6.923,6.923,0,0,1,2.021,5.022v2.5a7.22,7.22,0,0,1-.793,3.312,1.545,1.545,0,0,0,.389.7,2.294,2.294,0,0,0,1.741.622h2.426V70.96Zm-10.6-2.457a4.26,4.26,0,0,0,3.187-1.368,4.517,4.517,0,0,0,1.322-3.281v-2.5a4.517,4.517,0,0,0-1.322-3.281,4.3,4.3,0,0,0-3.187-1.353,4.244,4.244,0,0,0-3.172,1.353,4.517,4.517,0,0,0-1.322,3.281V68.5Z" transform="translate(-147.319 -46.689)" fill="#222"/>
          <path id="Path_89" data-name="Path 89" d="M371.884,49.38c.28,0,.435.155.435.466V69.36a4.243,4.243,0,0,1-1.135,3.125,4.091,4.091,0,0,1-3.016,1.151H364.39V71.179h3.794c.016.016.016.016.031.016a1.723,1.723,0,0,0,1.29-.451,1.993,1.993,0,0,0,.435-1.384V49.846c0-.311.14-.466.435-.466Z" transform="translate(-139.34 -49.38)" fill="#222"/>
          <path id="Path_90" data-name="Path 90" d="M375.254,73.2c0,.3-.14.451-.42.451H373.3a.4.4,0,0,1-.435-.451V49.831c0-.3.14-.451.435-.451h1.539c.28,0,.42.155.42.451Z" transform="translate(-134.64 -49.38)" fill="#222"/>
        </g>
      </g>
    </g>
  </g>
</svg>
